<svg width="360" height="800" viewBox="0 0 360 800" fill="none" xmlns="http://www.w3.org/2000/svg">
<g clip-path="url(#clip0_171_147)">
<rect width="360" height="800" rx="12" fill="white"/>
<g clip-path="url(#clip1_171_147)">
<path d="M65 749H51C50.4696 749 49.9609 749.211 49.5858 749.586C49.2107 749.961 49 750.47 49 751V765C49 765.53 49.2107 766.039 49.5858 766.414C49.9609 766.789 50.4696 767 51 767H65C65.5304 767 66.0391 766.789 66.4142 766.414C66.7893 766.039 67 765.53 67 765V751C67 750.47 66.7893 749.961 66.4142 749.586C66.0391 749.211 65.5304 749 65 749ZM65 765H51V751H65V765ZM63 754.4L59.4 758L63 761.6L61.6 763L58 759.4L54.4 763L53 761.6L56.6 758L53 754.4L54.4 753L58 756.6L61.6 753L63 754.4Z" fill="black"/>
<path d="M187 749H173C172.47 749 171.961 749.211 171.586 749.586C171.211 749.961 171 750.47 171 751V765C171 765.53 171.211 766.039 171.586 766.414C171.961 766.789 172.47 767 173 767H187C187.53 767 188.039 766.789 188.414 766.414C188.789 766.039 189 765.53 189 765V751C189 750.47 188.789 749.961 188.414 749.586C188.039 749.211 187.53 749 187 749ZM187 765H173V751H187V765ZM185 754.4L181.4 758L185 761.6L183.6 763L180 759.4L176.4 763L175 761.6L178.6 758L175 754.4L176.4 753L180 756.6L183.6 753L185 754.4Z" fill="black"/>
<path d="M309 749H295C294.47 749 293.961 749.211 293.586 749.586C293.211 749.961 293 750.47 293 751V765C293 765.53 293.211 766.039 293.586 766.414C293.961 766.789 294.47 767 295 767H309C309.53 767 310.039 766.789 310.414 766.414C310.789 766.039 311 765.53 311 765V751C311 750.47 310.789 749.961 310.414 749.586C310.039 749.211 309.53 749 309 749ZM309 765H295V751H309V765ZM307 754.4L303.4 758L307 761.6L305.6 763L302 759.4L298.4 763L297 761.6L300.6 758L297 754.4L298.4 753L302 756.6L305.6 753L307 754.4Z" fill="black"/>
<path d="M47.2891 785V786.711H40.1953V785H47.2891ZM54.4141 785V786.711H47.3203V785H54.4141ZM61.5391 785V786.711H54.4453V785H61.5391ZM68.6641 785V786.711H61.5703V785H68.6641ZM75.7891 785V786.711H68.6953V785H75.7891Z" fill="black"/>
<path d="M169.289 785V786.711H162.195V785H169.289ZM176.414 785V786.711H169.32V785H176.414ZM183.539 785V786.711H176.445V785H183.539ZM190.664 785V786.711H183.57V785H190.664ZM197.789 785V786.711H190.695V785H197.789Z" fill="black"/>
<path d="M291.289 785V786.711H284.195V785H291.289ZM298.414 785V786.711H291.32V785H298.414ZM305.539 785V786.711H298.445V785H305.539ZM312.664 785V786.711H305.57V785H312.664ZM319.789 785V786.711H312.695V785H319.789Z" fill="black"/>
<path d="M0 736H360V734H0V736Z" fill="black" mask="url(#path-5-inside-2_171_147)"/>
</g>
<path d="M0 737H360V735H0V737Z" fill="black" mask="url(#path-3-inside-1_171_147)"/>
<g clip-path="url(#clip2_171_147)">
<rect x="21" y="25" width="81" height="54" fill="#D9D9D9" stroke="black" stroke-width="2"/>
</g>
<path d="M54.23 149.74L40.49 136L54.23 122.23L50 118L32 136L50 154L54.23 149.74Z" fill="black"/>
<path d="M94.2891 152.707H112.711V154.5H94.2891V152.707ZM112.289 152.707H130.711V154.5H112.289V152.707ZM130.289 152.707H148.711V154.5H130.289V152.707ZM148.289 152.707H166.711V154.5H148.289V152.707ZM166.289 152.707H184.711V154.5H166.289V152.707ZM184.289 152.707H202.711V154.5H184.289V152.707ZM202.289 152.707H220.711V154.5H202.289V152.707ZM220.289 152.707H238.711V154.5H220.289V152.707ZM238.289 152.707H256.711V154.5H238.289V152.707Z" fill="black"/>
<path d="M305.77 122.26L319.51 136L305.77 149.77L310 154L328 136L310 118L305.77 122.26Z" fill="black"/>
<line y1="-0.5" x2="100.125" y2="-0.5" transform="matrix(0.828964 0.559301 -0.7698 0.638286 20 24)" stroke="black"/>
<line y1="-0.5" x2="100.125" y2="-0.5" transform="matrix(-0.828964 0.559301 -0.7698 -0.638286 103 24)" stroke="black"/>
<path d="M43.9688 192.762H47.25V206.871H52.0312V210H43.9688V192.762Z" fill="black"/>
<path d="M85.6328 192.762H88.8438L92.8281 204.785L96.8711 192.762H100.035L102.941 210H99.7773L97.9258 199.113L94.2578 210H91.3633L87.7422 199.113L85.8555 210H82.6562L85.6328 192.762Z" fill="black"/>
<path d="M133.844 192.762H137.535L141.145 198.281L144.789 192.762H148.48L142.996 201.105L148.82 210H145.129L141.145 203.941L137.195 210H133.48L139.305 201.105L133.844 192.762Z" fill="black"/>
<path d="M186.258 192.762H189.551V204.199C189.551 206.02 189.406 207.297 189.117 208.031C188.828 208.766 188.352 209.352 187.688 209.789C187.023 210.219 186.227 210.434 185.297 210.434C183.398 210.434 181.781 209.602 180.445 207.938L182.812 205.723C183.336 206.316 183.781 206.715 184.148 206.918C184.516 207.121 184.871 207.223 185.215 207.223C185.566 207.223 185.828 207.074 186 206.777C186.172 206.48 186.258 205.828 186.258 204.82V192.762Z" fill="black"/>
<path d="M221.656 192.762H225.031L229.367 205.008L233.762 192.762H237.137L230.926 210H227.762L221.656 192.762Z" fill="black"/>
<path d="M278.004 195.105L275.578 197.25C274.727 196.062 273.859 195.469 272.977 195.469C272.547 195.469 272.195 195.586 271.922 195.82C271.648 196.047 271.512 196.305 271.512 196.594C271.512 196.883 271.609 197.156 271.805 197.414C272.07 197.758 272.871 198.496 274.207 199.629C275.457 200.676 276.215 201.336 276.48 201.609C277.145 202.281 277.613 202.926 277.887 203.543C278.168 204.152 278.309 204.82 278.309 205.547C278.309 206.961 277.82 208.129 276.844 209.051C275.867 209.973 274.594 210.434 273.023 210.434C271.797 210.434 270.727 210.133 269.812 209.531C268.906 208.93 268.129 207.984 267.48 206.695L270.234 205.031C271.062 206.555 272.016 207.316 273.094 207.316C273.656 207.316 274.129 207.152 274.512 206.824C274.895 206.496 275.086 206.117 275.086 205.688C275.086 205.297 274.941 204.906 274.652 204.516C274.363 204.125 273.727 203.527 272.742 202.723C270.867 201.191 269.656 200.012 269.109 199.184C268.562 198.348 268.289 197.516 268.289 196.688C268.289 195.492 268.742 194.469 269.648 193.617C270.562 192.758 271.688 192.328 273.023 192.328C273.883 192.328 274.699 192.527 275.473 192.926C276.254 193.324 277.098 194.051 278.004 195.105Z" fill="black"/>
<path d="M310.98 192.762H314.871C317.379 192.762 319.242 193.074 320.461 193.699C321.68 194.316 322.684 195.324 323.473 196.723C324.262 198.121 324.656 199.754 324.656 201.621C324.656 202.949 324.434 204.172 323.988 205.289C323.551 206.398 322.941 207.32 322.16 208.055C321.387 208.789 320.547 209.297 319.641 209.578C318.734 209.859 317.164 210 314.93 210H310.98V192.762ZM314.25 195.926V206.789H315.773C317.273 206.789 318.359 206.617 319.031 206.273C319.711 205.93 320.266 205.352 320.695 204.539C321.125 203.727 321.34 202.727 321.34 201.539C321.34 199.711 320.828 198.293 319.805 197.285C318.883 196.379 317.402 195.926 315.363 195.926H314.25Z" fill="black"/>
<line x1="12" y1="228.5" x2="348" y2="228.5" stroke="black"/>
<line x1="12" y1="278.5" x2="348" y2="278.5" stroke="black"/>
<line x1="12" y1="327.5" x2="348" y2="327.5" stroke="black"/>
<path d="M24.8828 521.504H35.1172V522.5H24.8828V521.504ZM34.8828 521.504H45.1172V522.5H34.8828V521.504ZM44.8828 521.504H55.1172V522.5H44.8828V521.504ZM54.8828 521.504H65.1172V522.5H54.8828V521.504ZM64.8828 521.504H75.1172V522.5H64.8828V521.504ZM74.8828 521.504H85.1172V522.5H74.8828V521.504ZM84.8828 521.504H95.1172V522.5H84.8828V521.504ZM94.8828 521.504H105.117V522.5H94.8828V521.504ZM104.883 521.504H115.117V522.5H104.883V521.504ZM114.883 521.504H125.117V522.5H114.883V521.504ZM124.883 521.504H135.117V522.5H124.883V521.504ZM134.883 521.504H145.117V522.5H134.883V521.504Z" fill="black"/>
<path d="M24.8828 711.504H35.1172V712.5H24.8828V711.504ZM34.8828 711.504H45.1172V712.5H34.8828V711.504ZM44.8828 711.504H55.1172V712.5H44.8828V711.504ZM54.8828 711.504H65.1172V712.5H54.8828V711.504ZM64.8828 711.504H75.1172V712.5H64.8828V711.504ZM74.8828 711.504H85.1172V712.5H74.8828V711.504ZM84.8828 711.504H95.1172V712.5H84.8828V711.504ZM94.8828 711.504H105.117V712.5H94.8828V711.504ZM104.883 711.504H115.117V712.5H104.883V711.504ZM114.883 711.504H125.117V712.5H114.883V711.504ZM124.883 711.504H135.117V712.5H124.883V711.504ZM134.883 711.504H145.117V712.5H134.883V711.504Z" fill="black"/>
<line x1="12" y1="377.5" x2="348" y2="377.5" stroke="black"/>
<line x1="12" y1="427.5" x2="348" y2="427.5" stroke="black"/>
<line x1="12" y1="477.5" x2="348" y2="477.5" stroke="black"/>
<rect x="19" y="540" width="320" height="51" rx="12" fill="#D9D9D9"/>
<path d="M45.2085 573V575.459H35.0112V573H45.2085ZM55.4507 573V575.459H45.2534V573H55.4507ZM65.6929 573V575.459H55.4956V573H65.6929ZM75.9351 573V575.459H65.7378V573H75.9351ZM86.1772 573V575.459H75.98V573H86.1772ZM96.4194 573V575.459H86.2222V573H96.4194ZM106.662 573V575.459H96.4644V573H106.662ZM116.904 573V575.459H106.707V573H116.904ZM127.146 573V575.459H116.949V573H127.146ZM137.388 573V575.459H127.191V573H137.388ZM147.63 573V575.459H137.433V573H147.63ZM157.873 573V575.459H147.675V573H157.873ZM168.115 573V575.459H157.917V573H168.115ZM178.357 573V575.459H168.16V573H178.357ZM188.599 573V575.459H178.402V573H188.599ZM198.841 573V575.459H188.644V573H198.841ZM209.083 573V575.459H198.886V573H209.083ZM219.326 573V575.459H209.128V573H219.326ZM229.568 573V575.459H219.371V573H229.568ZM239.81 573V575.459H229.613V573H239.81Z" fill="black"/>
<rect x="19" y="610" width="320" height="51" rx="12" fill="#D9D9D9"/>
<path d="M45.2085 643V645.459H35.0112V643H45.2085ZM55.4507 643V645.459H45.2534V643H55.4507ZM65.6929 643V645.459H55.4956V643H65.6929ZM75.9351 643V645.459H65.7378V643H75.9351ZM86.1772 643V645.459H75.98V643H86.1772ZM96.4194 643V645.459H86.2222V643H96.4194ZM106.662 643V645.459H96.4644V643H106.662ZM116.904 643V645.459H106.707V643H116.904ZM127.146 643V645.459H116.949V643H127.146ZM137.388 643V645.459H127.191V643H137.388ZM147.63 643V645.459H137.433V643H147.63ZM157.873 643V645.459H147.675V643H157.873ZM168.115 643V645.459H157.917V643H168.115ZM178.357 643V645.459H168.16V643H178.357ZM188.599 643V645.459H178.402V643H188.599ZM198.841 643V645.459H188.644V643H198.841ZM209.083 643V645.459H198.886V643H209.083ZM219.326 643V645.459H209.128V643H219.326ZM229.568 643V645.459H219.371V643H229.568ZM239.81 643V645.459H229.613V643H239.81Z" fill="black"/>
</g>
<rect x="1" y="1" width="358" height="798" rx="11" stroke="black" stroke-width="2"/>
<defs>
<clipPath id="clip0_171_147">
<rect width="360" height="800" rx="12" fill="white"/>
</clipPath>
<clipPath id="clip1_171_147">
<path d="M0 736H360V799H0V736Z" fill="white"/>
</clipPath>
<clipPath id="clip2_171_147">
<rect width="320" height="56" fill="white" transform="translate(20 24)"/>
</clipPath>
</defs>
</svg>
