<svg width="360" height="800" viewBox="0 0 360 800" fill="none" xmlns="http://www.w3.org/2000/svg">
<g clip-path="url(#clip0_171_338)">
<rect width="360" height="800" rx="12" fill="white"/>
<rect x="37" y="227" width="26" height="26" stroke="black" stroke-width="2"/>
<path d="M83.8945 245.354H93.1055V246.25H83.8945V245.354ZM92.8945 245.354H102.105V246.25H92.8945V245.354ZM101.895 245.354H111.105V246.25H101.895V245.354ZM110.895 245.354H120.105V246.25H110.895V245.354ZM119.895 245.354H129.105V246.25H119.895V245.354ZM128.895 245.354H138.105V246.25H128.895V245.354ZM137.895 245.354H147.105V246.25H137.895V245.354ZM146.895 245.354H156.105V246.25H146.895V245.354ZM155.895 245.354H165.105V246.25H155.895V245.354ZM164.895 245.354H174.105V246.25H164.895V245.354ZM173.895 245.354H183.105V246.25H173.895V245.354ZM182.895 245.354H192.105V246.25H182.895V245.354ZM191.895 245.354H201.105V246.25H191.895V245.354ZM200.895 245.354H210.105V246.25H200.895V245.354ZM209.895 245.354H219.105V246.25H209.895V245.354ZM218.895 245.354H228.105V246.25H218.895V245.354ZM227.895 245.354H237.105V246.25H227.895V245.354ZM236.895 245.354H246.105V246.25H236.895V245.354ZM245.895 245.354H255.105V246.25H245.895V245.354ZM254.895 245.354H264.105V246.25H254.895V245.354ZM263.895 245.354H273.105V246.25H263.895V245.354ZM272.895 245.354H282.105V246.25H272.895V245.354ZM281.895 245.354H291.105V246.25H281.895V245.354ZM290.895 245.354H300.105V246.25H290.895V245.354Z" fill="black"/>
<rect x="37" y="275" width="26" height="26" stroke="black" stroke-width="2"/>
<path d="M83.8945 293.354H93.1055V294.25H83.8945V293.354ZM92.8945 293.354H102.105V294.25H92.8945V293.354ZM101.895 293.354H111.105V294.25H101.895V293.354ZM110.895 293.354H120.105V294.25H110.895V293.354ZM119.895 293.354H129.105V294.25H119.895V293.354ZM128.895 293.354H138.105V294.25H128.895V293.354ZM137.895 293.354H147.105V294.25H137.895V293.354ZM146.895 293.354H156.105V294.25H146.895V293.354ZM155.895 293.354H165.105V294.25H155.895V293.354ZM164.895 293.354H174.105V294.25H164.895V293.354ZM173.895 293.354H183.105V294.25H173.895V293.354ZM182.895 293.354H192.105V294.25H182.895V293.354ZM191.895 293.354H201.105V294.25H191.895V293.354ZM200.895 293.354H210.105V294.25H200.895V293.354ZM209.895 293.354H219.105V294.25H209.895V293.354ZM218.895 293.354H228.105V294.25H218.895V293.354ZM227.895 293.354H237.105V294.25H227.895V293.354ZM236.895 293.354H246.105V294.25H236.895V293.354ZM245.895 293.354H255.105V294.25H245.895V293.354ZM254.895 293.354H264.105V294.25H254.895V293.354ZM263.895 293.354H273.105V294.25H263.895V293.354ZM272.895 293.354H282.105V294.25H272.895V293.354ZM281.895 293.354H291.105V294.25H281.895V293.354ZM290.895 293.354H300.105V294.25H290.895V293.354Z" fill="black"/>
<rect x="37" y="323" width="26" height="26" stroke="black" stroke-width="2"/>
<path d="M83.8945 341.354H93.1055V342.25H83.8945V341.354ZM92.8945 341.354H102.105V342.25H92.8945V341.354ZM101.895 341.354H111.105V342.25H101.895V341.354ZM110.895 341.354H120.105V342.25H110.895V341.354ZM119.895 341.354H129.105V342.25H119.895V341.354ZM128.895 341.354H138.105V342.25H128.895V341.354ZM137.895 341.354H147.105V342.25H137.895V341.354ZM146.895 341.354H156.105V342.25H146.895V341.354ZM155.895 341.354H165.105V342.25H155.895V341.354ZM164.895 341.354H174.105V342.25H164.895V341.354ZM173.895 341.354H183.105V342.25H173.895V341.354ZM182.895 341.354H192.105V342.25H182.895V341.354ZM191.895 341.354H201.105V342.25H191.895V341.354ZM200.895 341.354H210.105V342.25H200.895V341.354ZM209.895 341.354H219.105V342.25H209.895V341.354ZM218.895 341.354H228.105V342.25H218.895V341.354ZM227.895 341.354H237.105V342.25H227.895V341.354ZM236.895 341.354H246.105V342.25H236.895V341.354ZM245.895 341.354H255.105V342.25H245.895V341.354ZM254.895 341.354H264.105V342.25H254.895V341.354ZM263.895 341.354H273.105V342.25H263.895V341.354ZM272.895 341.354H282.105V342.25H272.895V341.354ZM281.895 341.354H291.105V342.25H281.895V341.354ZM290.895 341.354H300.105V342.25H290.895V341.354Z" fill="black"/>
<rect x="37" y="371" width="26" height="26" stroke="black" stroke-width="2"/>
<path d="M83.8945 389.354H93.1055V390.25H83.8945V389.354ZM92.8945 389.354H102.105V390.25H92.8945V389.354ZM101.895 389.354H111.105V390.25H101.895V389.354ZM110.895 389.354H120.105V390.25H110.895V389.354ZM119.895 389.354H129.105V390.25H119.895V389.354ZM128.895 389.354H138.105V390.25H128.895V389.354ZM137.895 389.354H147.105V390.25H137.895V389.354ZM146.895 389.354H156.105V390.25H146.895V389.354ZM155.895 389.354H165.105V390.25H155.895V389.354ZM164.895 389.354H174.105V390.25H164.895V389.354ZM173.895 389.354H183.105V390.25H173.895V389.354ZM182.895 389.354H192.105V390.25H182.895V389.354ZM191.895 389.354H201.105V390.25H191.895V389.354ZM200.895 389.354H210.105V390.25H200.895V389.354ZM209.895 389.354H219.105V390.25H209.895V389.354ZM218.895 389.354H228.105V390.25H218.895V389.354ZM227.895 389.354H237.105V390.25H227.895V389.354ZM236.895 389.354H246.105V390.25H236.895V389.354ZM245.895 389.354H255.105V390.25H245.895V389.354ZM254.895 389.354H264.105V390.25H254.895V389.354ZM263.895 389.354H273.105V390.25H263.895V389.354ZM272.895 389.354H282.105V390.25H272.895V389.354ZM281.895 389.354H291.105V390.25H281.895V389.354ZM290.895 389.354H300.105V390.25H290.895V389.354Z" fill="black"/>
<rect x="37" y="419" width="26" height="26" stroke="black" stroke-width="2"/>
<path d="M83.8945 437.354H93.1055V438.25H83.8945V437.354ZM92.8945 437.354H102.105V438.25H92.8945V437.354ZM101.895 437.354H111.105V438.25H101.895V437.354ZM110.895 437.354H120.105V438.25H110.895V437.354ZM119.895 437.354H129.105V438.25H119.895V437.354ZM128.895 437.354H138.105V438.25H128.895V437.354ZM137.895 437.354H147.105V438.25H137.895V437.354ZM146.895 437.354H156.105V438.25H146.895V437.354ZM155.895 437.354H165.105V438.25H155.895V437.354ZM164.895 437.354H174.105V438.25H164.895V437.354ZM173.895 437.354H183.105V438.25H173.895V437.354ZM182.895 437.354H192.105V438.25H182.895V437.354ZM191.895 437.354H201.105V438.25H191.895V437.354ZM200.895 437.354H210.105V438.25H200.895V437.354ZM209.895 437.354H219.105V438.25H209.895V437.354ZM218.895 437.354H228.105V438.25H218.895V437.354ZM227.895 437.354H237.105V438.25H227.895V437.354ZM236.895 437.354H246.105V438.25H236.895V437.354ZM245.895 437.354H255.105V438.25H245.895V437.354ZM254.895 437.354H264.105V438.25H254.895V437.354ZM263.895 437.354H273.105V438.25H263.895V437.354ZM272.895 437.354H282.105V438.25H272.895V437.354ZM281.895 437.354H291.105V438.25H281.895V437.354ZM290.895 437.354H300.105V438.25H290.895V437.354Z" fill="black"/>
<rect x="37" y="467" width="26" height="26" stroke="black" stroke-width="2"/>
<path d="M83.8945 485.354H93.1055V486.25H83.8945V485.354ZM92.8945 485.354H102.105V486.25H92.8945V485.354ZM101.895 485.354H111.105V486.25H101.895V485.354ZM110.895 485.354H120.105V486.25H110.895V485.354ZM119.895 485.354H129.105V486.25H119.895V485.354ZM128.895 485.354H138.105V486.25H128.895V485.354ZM137.895 485.354H147.105V486.25H137.895V485.354ZM146.895 485.354H156.105V486.25H146.895V485.354ZM155.895 485.354H165.105V486.25H155.895V485.354ZM164.895 485.354H174.105V486.25H164.895V485.354ZM173.895 485.354H183.105V486.25H173.895V485.354ZM182.895 485.354H192.105V486.25H182.895V485.354ZM191.895 485.354H201.105V486.25H191.895V485.354ZM200.895 485.354H210.105V486.25H200.895V485.354ZM209.895 485.354H219.105V486.25H209.895V485.354ZM218.895 485.354H228.105V486.25H218.895V485.354ZM227.895 485.354H237.105V486.25H227.895V485.354ZM236.895 485.354H246.105V486.25H236.895V485.354ZM245.895 485.354H255.105V486.25H245.895V485.354ZM254.895 485.354H264.105V486.25H254.895V485.354ZM263.895 485.354H273.105V486.25H263.895V485.354ZM272.895 485.354H282.105V486.25H272.895V485.354ZM281.895 485.354H291.105V486.25H281.895V485.354ZM290.895 485.354H300.105V486.25H290.895V485.354Z" fill="black"/>
<rect x="37" y="515" width="26" height="26" stroke="black" stroke-width="2"/>
<path d="M83.8945 533.354H93.1055V534.25H83.8945V533.354ZM92.8945 533.354H102.105V534.25H92.8945V533.354ZM101.895 533.354H111.105V534.25H101.895V533.354ZM110.895 533.354H120.105V534.25H110.895V533.354ZM119.895 533.354H129.105V534.25H119.895V533.354ZM128.895 533.354H138.105V534.25H128.895V533.354ZM137.895 533.354H147.105V534.25H137.895V533.354ZM146.895 533.354H156.105V534.25H146.895V533.354ZM155.895 533.354H165.105V534.25H155.895V533.354ZM164.895 533.354H174.105V534.25H164.895V533.354ZM173.895 533.354H183.105V534.25H173.895V533.354ZM182.895 533.354H192.105V534.25H182.895V533.354ZM191.895 533.354H201.105V534.25H191.895V533.354ZM200.895 533.354H210.105V534.25H200.895V533.354ZM209.895 533.354H219.105V534.25H209.895V533.354ZM218.895 533.354H228.105V534.25H218.895V533.354ZM227.895 533.354H237.105V534.25H227.895V533.354ZM236.895 533.354H246.105V534.25H236.895V533.354ZM245.895 533.354H255.105V534.25H245.895V533.354ZM254.895 533.354H264.105V534.25H254.895V533.354ZM263.895 533.354H273.105V534.25H263.895V533.354ZM272.895 533.354H282.105V534.25H272.895V533.354ZM281.895 533.354H291.105V534.25H281.895V533.354ZM290.895 533.354H300.105V534.25H290.895V533.354Z" fill="black"/>
<rect x="37" y="563" width="26" height="26" stroke="black" stroke-width="2"/>
<path d="M83.8945 581.354H93.1055V582.25H83.8945V581.354ZM92.8945 581.354H102.105V582.25H92.8945V581.354ZM101.895 581.354H111.105V582.25H101.895V581.354ZM110.895 581.354H120.105V582.25H110.895V581.354ZM119.895 581.354H129.105V582.25H119.895V581.354ZM128.895 581.354H138.105V582.25H128.895V581.354ZM137.895 581.354H147.105V582.25H137.895V581.354ZM146.895 581.354H156.105V582.25H146.895V581.354ZM155.895 581.354H165.105V582.25H155.895V581.354ZM164.895 581.354H174.105V582.25H164.895V581.354ZM173.895 581.354H183.105V582.25H173.895V581.354ZM182.895 581.354H192.105V582.25H182.895V581.354ZM191.895 581.354H201.105V582.25H191.895V581.354ZM200.895 581.354H210.105V582.25H200.895V581.354ZM209.895 581.354H219.105V582.25H209.895V581.354ZM218.895 581.354H228.105V582.25H218.895V581.354ZM227.895 581.354H237.105V582.25H227.895V581.354ZM236.895 581.354H246.105V582.25H236.895V581.354ZM245.895 581.354H255.105V582.25H245.895V581.354ZM254.895 581.354H264.105V582.25H254.895V581.354ZM263.895 581.354H273.105V582.25H263.895V581.354ZM272.895 581.354H282.105V582.25H272.895V581.354ZM281.895 581.354H291.105V582.25H281.895V581.354ZM290.895 581.354H300.105V582.25H290.895V581.354Z" fill="black"/>
<rect x="37" y="611" width="26" height="26" stroke="black" stroke-width="2"/>
<path d="M83.8945 629.354H93.1055V630.25H83.8945V629.354ZM92.8945 629.354H102.105V630.25H92.8945V629.354ZM101.895 629.354H111.105V630.25H101.895V629.354ZM110.895 629.354H120.105V630.25H110.895V629.354ZM119.895 629.354H129.105V630.25H119.895V629.354ZM128.895 629.354H138.105V630.25H128.895V629.354ZM137.895 629.354H147.105V630.25H137.895V629.354ZM146.895 629.354H156.105V630.25H146.895V629.354ZM155.895 629.354H165.105V630.25H155.895V629.354ZM164.895 629.354H174.105V630.25H164.895V629.354ZM173.895 629.354H183.105V630.25H173.895V629.354ZM182.895 629.354H192.105V630.25H182.895V629.354ZM191.895 629.354H201.105V630.25H191.895V629.354ZM200.895 629.354H210.105V630.25H200.895V629.354ZM209.895 629.354H219.105V630.25H209.895V629.354ZM218.895 629.354H228.105V630.25H218.895V629.354ZM227.895 629.354H237.105V630.25H227.895V629.354ZM236.895 629.354H246.105V630.25H236.895V629.354ZM245.895 629.354H255.105V630.25H245.895V629.354ZM254.895 629.354H264.105V630.25H254.895V629.354ZM263.895 629.354H273.105V630.25H263.895V629.354ZM272.895 629.354H282.105V630.25H272.895V629.354ZM281.895 629.354H291.105V630.25H281.895V629.354ZM290.895 629.354H300.105V630.25H290.895V629.354Z" fill="black"/>
<rect x="37" y="659" width="26" height="26" stroke="black" stroke-width="2"/>
<path d="M83.8945 677.354H93.1055V678.25H83.8945V677.354ZM92.8945 677.354H102.105V678.25H92.8945V677.354ZM101.895 677.354H111.105V678.25H101.895V677.354ZM110.895 677.354H120.105V678.25H110.895V677.354ZM119.895 677.354H129.105V678.25H119.895V677.354ZM128.895 677.354H138.105V678.25H128.895V677.354ZM137.895 677.354H147.105V678.25H137.895V677.354ZM146.895 677.354H156.105V678.25H146.895V677.354ZM155.895 677.354H165.105V678.25H155.895V677.354ZM164.895 677.354H174.105V678.25H164.895V677.354ZM173.895 677.354H183.105V678.25H173.895V677.354ZM182.895 677.354H192.105V678.25H182.895V677.354ZM191.895 677.354H201.105V678.25H191.895V677.354ZM200.895 677.354H210.105V678.25H200.895V677.354ZM209.895 677.354H219.105V678.25H209.895V677.354ZM218.895 677.354H228.105V678.25H218.895V677.354ZM227.895 677.354H237.105V678.25H227.895V677.354ZM236.895 677.354H246.105V678.25H236.895V677.354ZM245.895 677.354H255.105V678.25H245.895V677.354ZM254.895 677.354H264.105V678.25H254.895V677.354ZM263.895 677.354H273.105V678.25H263.895V677.354ZM272.895 677.354H282.105V678.25H272.895V677.354ZM281.895 677.354H291.105V678.25H281.895V677.354ZM290.895 677.354H300.105V678.25H290.895V677.354Z" fill="black"/>
<rect x="123" y="738" width="113" height="36" rx="11" stroke="black" stroke-width="2"/>
<path d="M59.41 132.08L54.83 127.5L59.41 122.91L58 121.5L52 127.5L58 133.5L59.41 132.08Z" fill="black"/>
<path d="M76.6053 133V134.188H69.4413V133H76.6053ZM83.8241 133V134.188H76.66V133H83.8241ZM91.0428 133V134.188H83.8788V133H91.0428ZM98.2616 133V134.188H91.0975V133H98.2616ZM105.48 133V134.188H98.3163V133H105.48ZM112.699 133V134.188H105.535V133H112.699ZM119.918 133V134.188H112.754V133H119.918ZM127.137 133V134.188H119.973V133H127.137ZM134.355 133V134.188H127.191V133H134.355ZM141.574 133V134.188H134.41V133H141.574ZM148.793 133V134.188H141.629V133H148.793ZM156.012 133V134.188H148.848V133H156.012ZM163.23 133V134.188H156.066V133H163.23ZM170.449 133V134.188H163.285V133H170.449ZM177.668 133V134.188H170.504V133H177.668ZM184.887 133V134.188H177.723V133H184.887ZM192.105 133V134.188H184.941V133H192.105ZM199.324 133V134.188H192.16V133H199.324ZM206.543 133V134.188H199.379V133H206.543ZM213.762 133V134.188H206.598V133H213.762Z" fill="black"/>
<rect x="36.5" y="111.5" width="193.41" height="32" rx="11.5" stroke="black"/>
<path d="M35.8652 195.729H47.6348V196.875H35.8652V195.729ZM47.3652 195.729H59.1348V196.875H47.3652V195.729ZM58.8652 195.729H70.6348V196.875H58.8652V195.729ZM70.3652 195.729H82.1348V196.875H70.3652V195.729ZM81.8652 195.729H93.6348V196.875H81.8652V195.729ZM93.3652 195.729H105.135V196.875H93.3652V195.729ZM104.865 195.729H116.635V196.875H104.865V195.729ZM116.365 195.729H128.135V196.875H116.365V195.729ZM127.865 195.729H139.635V196.875H127.865V195.729ZM139.365 195.729H151.135V196.875H139.365V195.729ZM150.865 195.729H162.635V196.875H150.865V195.729ZM162.365 195.729H174.135V196.875H162.365V195.729ZM173.865 195.729H185.635V196.875H173.865V195.729ZM185.365 195.729H197.135V196.875H185.365V195.729ZM196.865 195.729H208.635V196.875H196.865V195.729ZM208.365 195.729H220.135V196.875H208.365V195.729ZM219.865 195.729H231.635V196.875H219.865V195.729ZM231.365 195.729H243.135V196.875H231.365V195.729Z" fill="black"/>
<path d="M60.8 233.682L46.5371 248L40 241.438L41.6759 239.755L46.5371 244.623L59.1241 232L60.8 233.682Z" fill="white"/>
<path d="M60.8 473.682L46.5371 488L40 481.438L41.6759 479.755L46.5371 484.623L59.1241 472L60.8 473.682Z" fill="white"/>
<rect x="22" y="28" width="81" height="54" fill="#D9D9D9" stroke="black" stroke-width="2"/>
<line y1="-0.5" x2="100.125" y2="-0.5" transform="matrix(0.828964 0.559301 -0.7698 0.638286 21 27)" stroke="black"/>
<line y1="-0.5" x2="100.125" y2="-0.5" transform="matrix(-0.828964 0.559301 -0.7698 -0.638286 104 27)" stroke="black"/>
</g>
<rect x="1" y="1" width="358" height="798" rx="11" stroke="black" stroke-width="2"/>
<defs>
<clipPath id="clip0_171_338">
<rect width="360" height="800" rx="12" fill="white"/>
</clipPath>
</defs>
</svg>
