<svg width="360" height="800" viewBox="0 0 360 800" fill="none" xmlns="http://www.w3.org/2000/svg">
<g clip-path="url(#clip0_171_25)">
<rect width="360" height="800" rx="12" fill="white"/>
<path d="M72.375 138.906V142.188H44.7188V138.906H72.375ZM45.625 118.5V164H41.7812V118.5H45.625ZM75.4688 118.5V164H71.625V118.5H75.4688ZM84.1562 147.625V146.594C84.1562 144.135 84.5104 141.865 85.2188 139.781C85.9271 137.698 86.9375 135.896 88.25 134.375C89.5833 132.854 91.1771 131.677 93.0312 130.844C94.8854 129.99 96.9479 129.562 99.2188 129.562C101.51 129.562 103.583 129.99 105.438 130.844C107.292 131.677 108.885 132.854 110.219 134.375C111.552 135.896 112.573 137.698 113.281 139.781C113.99 141.865 114.344 144.135 114.344 146.594V147.625C114.344 150.083 113.99 152.354 113.281 154.438C112.573 156.5 111.552 158.292 110.219 159.812C108.906 161.333 107.323 162.521 105.469 163.375C103.615 164.208 101.552 164.625 99.2812 164.625C96.9896 164.625 94.9167 164.208 93.0625 163.375C91.2083 162.521 89.6146 161.333 88.2812 159.812C86.9479 158.292 85.9271 156.5 85.2188 154.438C84.5104 152.354 84.1562 150.083 84.1562 147.625ZM87.875 146.594V147.625C87.875 149.479 88.125 151.24 88.625 152.906C89.125 154.552 89.8542 156.021 90.8125 157.312C91.7708 158.583 92.9583 159.583 94.375 160.312C95.7917 161.042 97.4271 161.406 99.2812 161.406C101.115 161.406 102.729 161.042 104.125 160.312C105.542 159.583 106.729 158.583 107.688 157.312C108.646 156.021 109.365 154.552 109.844 152.906C110.344 151.24 110.594 149.479 110.594 147.625V146.594C110.594 144.76 110.344 143.021 109.844 141.375C109.365 139.729 108.635 138.26 107.656 136.969C106.698 135.677 105.51 134.656 104.094 133.906C102.677 133.156 101.052 132.781 99.2188 132.781C97.3854 132.781 95.7604 133.156 94.3438 133.906C92.9479 134.656 91.7604 135.677 90.7812 136.969C89.8229 138.26 89.0938 139.729 88.5938 141.375C88.1146 143.021 87.875 144.76 87.875 146.594ZM131.625 160.625L142.156 130.188H146.188L131.875 169.438C131.583 170.208 131.208 171.062 130.75 172C130.312 172.938 129.729 173.833 129 174.688C128.292 175.562 127.396 176.271 126.312 176.812C125.25 177.375 123.948 177.656 122.406 177.656C122.01 177.656 121.5 177.604 120.875 177.5C120.271 177.417 119.833 177.333 119.562 177.25L119.531 174.094C119.76 174.156 120.094 174.208 120.531 174.25C120.969 174.292 121.271 174.312 121.438 174.312C122.792 174.312 123.927 174.083 124.844 173.625C125.781 173.167 126.562 172.479 127.188 171.562C127.812 170.667 128.365 169.542 128.844 168.188L131.625 160.625ZM121.781 130.188L132.562 159.219L133.562 163.125L130.844 164.656L117.719 130.188H121.781Z" fill="black"/>
<path d="M211.877 164V166.139H203.01V164H211.877ZM220.783 164V166.139H211.916V164H220.783ZM229.689 164V166.139H220.822V164H229.689ZM238.596 164V166.139H229.729V164H238.596ZM247.502 164V166.139H238.635V164H247.502ZM256.408 164V166.139H247.541V164H256.408ZM265.314 164V166.139H256.447V164H265.314ZM274.221 164V166.139H265.354V164H274.221ZM283.127 164V166.139H274.26V164H283.127ZM292.033 164V166.139H283.166V164H292.033ZM300.939 164V166.139H292.072V164H300.939ZM309.846 164V166.139H300.979V164H309.846Z" fill="black"/>
<path d="M46.2085 225V227.459H36.0112V225H46.2085ZM56.4507 225V227.459H46.2534V225H56.4507ZM66.6929 225V227.459H56.4956V225H66.6929ZM76.9351 225V227.459H66.7378V225H76.9351ZM87.1772 225V227.459H76.98V225H87.1772ZM97.4194 225V227.459H87.2222V225H97.4194ZM107.662 225V227.459H97.4644V225H107.662ZM117.904 225V227.459H107.707V225H117.904ZM128.146 225V227.459H117.949V225H128.146ZM138.388 225V227.459H128.191V225H138.388ZM148.63 225V227.459H138.433V225H148.63ZM158.873 225V227.459H148.675V225H158.873ZM169.115 225V227.459H158.917V225H169.115ZM179.357 225V227.459H169.16V225H179.357ZM189.599 225V227.459H179.402V225H189.599Z" fill="black"/>
<rect x="36" y="241" width="288" height="45" rx="12" fill="#D9D9D9"/>
<path d="M67.9893 270V271.925H60.0088V270H67.9893ZM76.0049 270V271.925H68.0244V270H76.0049ZM84.0205 270V271.925H76.04V270H84.0205ZM92.0361 270V271.925H84.0557V270H92.0361ZM100.052 270V271.925H92.0713V270H100.052ZM108.067 270V271.925H100.087V270H108.067ZM116.083 270V271.925H108.103V270H116.083ZM124.099 270V271.925H116.118V270H124.099ZM132.114 270V271.925H124.134V270H132.114ZM140.13 270V271.925H132.149V270H140.13ZM148.146 270V271.925H140.165V270H148.146ZM156.161 270V271.925H148.181V270H156.161ZM164.177 270V271.925H156.196V270H164.177ZM172.192 270V271.925H164.212V270H172.192ZM180.208 270V271.925H172.228V270H180.208ZM188.224 270V271.925H180.243V270H188.224ZM196.239 270V271.925H188.259V270H196.239ZM204.255 270V271.925H196.274V270H204.255ZM212.271 270V271.925H204.29V270H212.271Z" fill="black"/>
<rect x="36" y="296" width="288" height="45" rx="12" fill="#D9D9D9"/>
<path d="M67.9893 325V326.925H60.0088V325H67.9893ZM76.0049 325V326.925H68.0244V325H76.0049ZM84.0205 325V326.925H76.04V325H84.0205ZM92.0361 325V326.925H84.0557V325H92.0361ZM100.052 325V326.925H92.0713V325H100.052ZM108.067 325V326.925H100.087V325H108.067ZM116.083 325V326.925H108.103V325H116.083ZM124.099 325V326.925H116.118V325H124.099ZM132.114 325V326.925H124.134V325H132.114ZM140.13 325V326.925H132.149V325H140.13ZM148.146 325V326.925H140.165V325H148.146ZM156.161 325V326.925H148.181V325H156.161ZM164.177 325V326.925H156.196V325H164.177ZM172.192 325V326.925H164.212V325H172.192ZM180.208 325V326.925H172.228V325H180.208ZM188.224 325V326.925H180.243V325H188.224ZM196.239 325V326.925H188.259V325H196.239ZM204.255 325V326.925H196.274V325H204.255ZM212.271 325V326.925H204.29V325H212.271Z" fill="black"/>
<path d="M46.2085 386V388.459H36.0112V386H46.2085ZM56.4507 386V388.459H46.2534V386H56.4507ZM66.6929 386V388.459H56.4956V386H66.6929ZM76.9351 386V388.459H66.7378V386H76.9351ZM87.1772 386V388.459H76.98V386H87.1772ZM97.4194 386V388.459H87.2222V386H97.4194ZM107.662 386V388.459H97.4644V386H107.662ZM117.904 386V388.459H107.707V386H117.904ZM128.146 386V388.459H117.949V386H128.146ZM138.388 386V388.459H128.191V386H138.388ZM148.63 386V388.459H138.433V386H148.63ZM158.873 386V388.459H148.675V386H158.873ZM169.115 386V388.459H158.917V386H169.115ZM179.357 386V388.459H169.16V386H179.357ZM189.599 386V388.459H179.402V386H189.599ZM199.841 386V388.459H189.644V386H199.841ZM210.083 386V388.459H199.886V386H210.083Z" fill="black"/>
<rect x="36" y="402" width="288" height="45" rx="12" fill="#D9D9D9"/>
<path d="M67.9893 431V432.925H60.0088V431H67.9893ZM76.0049 431V432.925H68.0244V431H76.0049ZM84.0205 431V432.925H76.04V431H84.0205ZM92.0361 431V432.925H84.0557V431H92.0361ZM100.052 431V432.925H92.0713V431H100.052ZM108.067 431V432.925H100.087V431H108.067ZM116.083 431V432.925H108.103V431H116.083ZM124.099 431V432.925H116.118V431H124.099ZM132.114 431V432.925H124.134V431H132.114ZM140.13 431V432.925H132.149V431H140.13ZM148.146 431V432.925H140.165V431H148.146ZM156.161 431V432.925H148.181V431H156.161ZM164.177 431V432.925H156.196V431H164.177ZM172.192 431V432.925H164.212V431H172.192ZM180.208 431V432.925H172.228V431H180.208ZM188.224 431V432.925H180.243V431H188.224ZM196.239 431V432.925H188.259V431H196.239ZM204.255 431V432.925H196.274V431H204.255ZM212.271 431V432.925H204.29V431H212.271ZM220.286 431V432.925H212.306V431H220.286Z" fill="black"/>
<rect x="21" y="106" width="318" height="364" rx="11" stroke="black" stroke-width="2"/>
<rect x="20" y="491" width="320" height="47" rx="12" fill="#D9D9D9"/>
<path d="M44.877 521V523.139H36.0098V521H44.877ZM53.7832 521V523.139H44.916V521H53.7832ZM62.6895 521V523.139H53.8223V521H62.6895ZM71.5957 521V523.139H62.7285V521H71.5957ZM80.502 521V523.139H71.6348V521H80.502ZM89.4082 521V523.139H80.541V521H89.4082ZM98.3145 521V523.139H89.4473V521H98.3145ZM107.221 521V523.139H98.3535V521H107.221ZM116.127 521V523.139H107.26V521H116.127ZM125.033 521V523.139H116.166V521H125.033ZM133.939 521V523.139H125.072V521H133.939ZM142.846 521V523.139H133.979V521H142.846ZM151.752 521V523.139H142.885V521H151.752ZM160.658 521V523.139H151.791V521H160.658ZM169.564 521V523.139H160.697V521H169.564ZM178.471 521V523.139H169.604V521H178.471ZM187.377 521V523.139H178.51V521H187.377ZM196.283 521V523.139H187.416V521H196.283ZM205.189 521V523.139H196.322V521H205.189ZM214.096 521V523.139H205.229V521H214.096ZM223.002 521V523.139H214.135V521H223.002ZM231.908 521V523.139H223.041V521H231.908Z" fill="black"/>
<rect x="20" y="558" width="320" height="47" rx="12" fill="#D9D9D9"/>
<path d="M44.877 588V590.139H36.0098V588H44.877ZM53.7832 588V590.139H44.916V588H53.7832ZM62.6895 588V590.139H53.8223V588H62.6895ZM71.5957 588V590.139H62.7285V588H71.5957ZM80.502 588V590.139H71.6348V588H80.502ZM89.4082 588V590.139H80.541V588H89.4082ZM98.3145 588V590.139H89.4473V588H98.3145ZM107.221 588V590.139H98.3535V588H107.221ZM116.127 588V590.139H107.26V588H116.127ZM125.033 588V590.139H116.166V588H125.033ZM133.939 588V590.139H125.072V588H133.939ZM142.846 588V590.139H133.979V588H142.846ZM151.752 588V590.139H142.885V588H151.752ZM160.658 588V590.139H151.791V588H160.658ZM169.564 588V590.139H160.697V588H169.564ZM178.471 588V590.139H169.604V588H178.471ZM187.377 588V590.139H178.51V588H187.377ZM196.283 588V590.139H187.416V588H196.283ZM205.189 588V590.139H196.322V588H205.189ZM214.096 588V590.139H205.229V588H214.096ZM223.002 588V590.139H214.135V588H223.002ZM231.908 588V590.139H223.041V588H231.908Z" fill="black"/>
<rect x="20" y="625" width="320" height="90" rx="12" fill="#D9D9D9"/>
<path d="M62.4141 666V667.711H55.3203V666H62.4141ZM69.5391 666V667.711H62.4453V666H69.5391ZM76.6641 666V667.711H69.5703V666H76.6641ZM83.7891 666V667.711H76.6953V666H83.7891ZM90.9141 666V667.711H83.8203V666H90.9141ZM98.0391 666V667.711H90.9453V666H98.0391ZM105.164 666V667.711H98.0703V666H105.164ZM112.289 666V667.711H105.195V666H112.289ZM119.414 666V667.711H112.32V666H119.414ZM126.539 666V667.711H119.445V666H126.539ZM133.664 666V667.711H126.57V666H133.664ZM140.789 666V667.711H133.695V666H140.789ZM147.914 666V667.711H140.82V666H147.914ZM155.039 666V667.711H147.945V666H155.039ZM162.164 666V667.711H155.07V666H162.164ZM169.289 666V667.711H162.195V666H169.289ZM176.414 666V667.711H169.32V666H176.414ZM183.539 666V667.711H176.445V666H183.539ZM190.664 666V667.711H183.57V666H190.664ZM197.789 666V667.711H190.695V666H197.789ZM204.914 666V667.711H197.82V666H204.914ZM212.039 666V667.711H204.945V666H212.039ZM219.164 666V667.711H212.07V666H219.164ZM226.289 666V667.711H219.195V666H226.289ZM233.414 666V667.711H226.32V666H233.414ZM240.539 666V667.711H233.445V666H240.539ZM247.664 666V667.711H240.57V666H247.664ZM254.789 666V667.711H247.695V666H254.789ZM261.914 666V667.711H254.82V666H261.914ZM269.039 666V667.711H261.945V666H269.039ZM276.164 666V667.711H269.07V666H276.164ZM283.289 666V667.711H276.195V666H283.289ZM290.414 666V667.711H283.32V666H290.414ZM297.539 666V667.711H290.445V666H297.539ZM304.664 666V667.711H297.57V666H304.664ZM73.1016 685V686.711H66.0078V685H73.1016ZM80.2266 685V686.711H73.1328V685H80.2266ZM87.3516 685V686.711H80.2578V685H87.3516ZM94.4766 685V686.711H87.3828V685H94.4766ZM101.602 685V686.711H94.5078V685H101.602ZM108.727 685V686.711H101.633V685H108.727ZM115.852 685V686.711H108.758V685H115.852ZM122.977 685V686.711H115.883V685H122.977ZM130.102 685V686.711H123.008V685H130.102ZM137.227 685V686.711H130.133V685H137.227ZM144.352 685V686.711H137.258V685H144.352ZM151.477 685V686.711H144.383V685H151.477ZM158.602 685V686.711H151.508V685H158.602ZM165.727 685V686.711H158.633V685H165.727ZM172.852 685V686.711H165.758V685H172.852ZM179.977 685V686.711H172.883V685H179.977ZM187.102 685V686.711H180.008V685H187.102ZM194.227 685V686.711H187.133V685H194.227ZM201.352 685V686.711H194.258V685H201.352ZM208.477 685V686.711H201.383V685H208.477ZM215.602 685V686.711H208.508V685H215.602ZM222.727 685V686.711H215.633V685H222.727ZM229.852 685V686.711H222.758V685H229.852ZM236.977 685V686.711H229.883V685H236.977ZM244.102 685V686.711H237.008V685H244.102ZM251.227 685V686.711H244.133V685H251.227ZM258.352 685V686.711H251.258V685H258.352ZM265.477 685V686.711H258.383V685H265.477ZM272.602 685V686.711H265.508V685H272.602ZM279.727 685V686.711H272.633V685H279.727ZM286.852 685V686.711H279.758V685H286.852ZM293.977 685V686.711H286.883V685H293.977Z" fill="black"/>
<path d="M65 749H51C50.4696 749 49.9609 749.211 49.5858 749.586C49.2107 749.961 49 750.47 49 751V765C49 765.53 49.2107 766.039 49.5858 766.414C49.9609 766.789 50.4696 767 51 767H65C65.5304 767 66.0391 766.789 66.4142 766.414C66.7893 766.039 67 765.53 67 765V751C67 750.47 66.7893 749.961 66.4142 749.586C66.0391 749.211 65.5304 749 65 749ZM65 765H51V751H65V765ZM63 754.4L59.4 758L63 761.6L61.6 763L58 759.4L54.4 763L53 761.6L56.6 758L53 754.4L54.4 753L58 756.6L61.6 753L63 754.4Z" fill="black"/>
<path d="M187 749H173C172.47 749 171.961 749.211 171.586 749.586C171.211 749.961 171 750.47 171 751V765C171 765.53 171.211 766.039 171.586 766.414C171.961 766.789 172.47 767 173 767H187C187.53 767 188.039 766.789 188.414 766.414C188.789 766.039 189 765.53 189 765V751C189 750.47 188.789 749.961 188.414 749.586C188.039 749.211 187.53 749 187 749ZM187 765H173V751H187V765ZM185 754.4L181.4 758L185 761.6L183.6 763L180 759.4L176.4 763L175 761.6L178.6 758L175 754.4L176.4 753L180 756.6L183.6 753L185 754.4Z" fill="black"/>
<path d="M309 749H295C294.47 749 293.961 749.211 293.586 749.586C293.211 749.961 293 750.47 293 751V765C293 765.53 293.211 766.039 293.586 766.414C293.961 766.789 294.47 767 295 767H309C309.53 767 310.039 766.789 310.414 766.414C310.789 766.039 311 765.53 311 765V751C311 750.47 310.789 749.961 310.414 749.586C310.039 749.211 309.53 749 309 749ZM309 765H295V751H309V765ZM307 754.4L303.4 758L307 761.6L305.6 763L302 759.4L298.4 763L297 761.6L300.6 758L297 754.4L298.4 753L302 756.6L305.6 753L307 754.4Z" fill="black"/>
<path d="M47.2891 785V786.711H40.1953V785H47.2891ZM54.4141 785V786.711H47.3203V785H54.4141ZM61.5391 785V786.711H54.4453V785H61.5391ZM68.6641 785V786.711H61.5703V785H68.6641ZM75.7891 785V786.711H68.6953V785H75.7891Z" fill="black"/>
<path d="M169.289 785V786.711H162.195V785H169.289ZM176.414 785V786.711H169.32V785H176.414ZM183.539 785V786.711H176.445V785H183.539ZM190.664 785V786.711H183.57V785H190.664ZM197.789 785V786.711H190.695V785H197.789Z" fill="black"/>
<path d="M291.289 785V786.711H284.195V785H291.289ZM298.414 785V786.711H291.32V785H298.414ZM305.539 785V786.711H298.445V785H305.539ZM312.664 785V786.711H305.57V785H312.664ZM319.789 785V786.711H312.695V785H319.789Z" fill="black"/>
<path d="M0 736H360V734H0V736Z" fill="black" mask="url(#path-20-inside-1_171_25)"/>
<rect x="22" y="22" width="81" height="54" fill="#D9D9D9" stroke="black" stroke-width="2"/>
<line y1="-0.5" x2="100.125" y2="-0.5" transform="matrix(0.828964 0.559301 -0.7698 0.638286 21 21)" stroke="black"/>
<line y1="-0.5" x2="100.125" y2="-0.5" transform="matrix(-0.828964 0.559301 -0.7698 -0.638286 104 21)" stroke="black"/>
</g>
<rect x="1" y="1" width="358" height="798" rx="11" stroke="black" stroke-width="2"/>
<defs>
<clipPath id="clip0_171_25">
<rect width="360" height="800" rx="12" fill="white"/>
</clipPath>
</defs>
</svg>
