<svg width="360" height="800" viewBox="0 0 360 800" fill="none" xmlns="http://www.w3.org/2000/svg">
<g clip-path="url(#clip0_171_247)">
<rect width="360" height="800" rx="12" fill="white"/>
<path d="M41.25 145.469H28.2812V142.188H41.25C43.9583 142.188 46.1562 141.75 47.8438 140.875C49.5521 139.979 50.7917 138.771 51.5625 137.25C52.3542 135.729 52.75 134.021 52.75 132.125C52.75 130.271 52.3542 128.562 51.5625 127C50.7917 125.438 49.5521 124.188 47.8438 123.25C46.1562 122.292 43.9583 121.812 41.25 121.812H29.625V164H25.7812V118.5H41.25C44.5833 118.5 47.3854 119.073 49.6562 120.219C51.9479 121.365 53.6771 122.958 54.8438 125C56.0104 127.042 56.5938 129.396 56.5938 132.062C56.5938 134.854 56.0104 137.26 54.8438 139.281C53.6771 141.281 51.9583 142.812 49.6875 143.875C47.4167 144.938 44.6042 145.469 41.25 145.469ZM76.9688 164.625C74.7604 164.625 72.7292 164.219 70.875 163.406C69.0417 162.594 67.4375 161.448 66.0625 159.969C64.7083 158.49 63.6562 156.74 62.9062 154.719C62.1771 152.677 61.8125 150.448 61.8125 148.031V146.688C61.8125 144.083 62.1979 141.729 62.9688 139.625C63.7396 137.521 64.8021 135.719 66.1562 134.219C67.5104 132.719 69.0521 131.573 70.7812 130.781C72.5312 129.969 74.3646 129.562 76.2812 129.562C78.4271 129.562 80.3333 129.948 82 130.719C83.6667 131.469 85.0625 132.542 86.1875 133.938C87.3333 135.312 88.1979 136.948 88.7812 138.844C89.3646 140.719 89.6562 142.792 89.6562 145.062V147.344H64.0625V144.156H85.9375V143.719C85.8958 141.823 85.5104 140.052 84.7812 138.406C84.0729 136.74 83.0104 135.385 81.5938 134.344C80.1771 133.302 78.4062 132.781 76.2812 132.781C74.6979 132.781 73.2396 133.115 71.9062 133.781C70.5938 134.448 69.4583 135.406 68.5 136.656C67.5625 137.885 66.8333 139.354 66.3125 141.062C65.8125 142.75 65.5625 144.625 65.5625 146.688V148.031C65.5625 149.906 65.8333 151.656 66.375 153.281C66.9375 154.885 67.7292 156.302 68.75 157.531C69.7917 158.76 71.0208 159.719 72.4375 160.406C73.8542 161.094 75.4167 161.438 77.125 161.438C79.125 161.438 80.8958 161.073 82.4375 160.344C83.9792 159.594 85.3646 158.417 86.5938 156.812L88.9375 158.625C88.2083 159.708 87.2917 160.708 86.1875 161.625C85.1042 162.542 83.8021 163.271 82.2812 163.812C80.7604 164.354 78.9896 164.625 76.9688 164.625ZM100.75 135.781V164H97.0312V130.188H100.656L100.75 135.781ZM112.719 129.938L112.625 133.375C112.208 133.312 111.802 133.26 111.406 133.219C111.01 133.177 110.583 133.156 110.125 133.156C108.5 133.156 107.073 133.458 105.844 134.062C104.635 134.646 103.615 135.469 102.781 136.531C101.948 137.573 101.312 138.802 100.875 140.219C100.438 141.615 100.188 143.115 100.125 144.719L98.75 145.25C98.75 143.042 98.9792 140.99 99.4375 139.094C99.8958 137.198 100.594 135.542 101.531 134.125C102.49 132.688 103.688 131.573 105.125 130.781C106.583 129.969 108.292 129.562 110.25 129.562C110.729 129.562 111.198 129.604 111.656 129.688C112.135 129.75 112.49 129.833 112.719 129.938ZM124.562 164H120.844V126.625C120.844 124.188 121.292 122.135 122.188 120.469C123.104 118.781 124.396 117.51 126.062 116.656C127.75 115.781 129.75 115.344 132.062 115.344C133.458 115.344 134.875 115.5 136.312 115.812C137.75 116.125 139.198 116.583 140.656 117.188L140.062 120.438C138.958 119.958 137.802 119.562 136.594 119.25C135.385 118.938 133.948 118.781 132.281 118.781C129.74 118.781 127.812 119.448 126.5 120.781C125.208 122.115 124.562 124.062 124.562 126.625V164ZM132.469 130.188V133.25H115.219V130.188H132.469ZM142.688 130.188V164H138.969V130.188H142.688ZM157.188 116V164H153.469V116H157.188Z" fill="black"/>
<path d="M27.1016 214V215.711H20.0078V214H27.1016ZM34.2266 214V215.711H27.1328V214H34.2266ZM41.3516 214V215.711H34.2578V214H41.3516ZM48.4766 214V215.711H41.3828V214H48.4766ZM55.6016 214V215.711H48.5078V214H55.6016Z" fill="black"/>
<path d="M199.102 214V215.711H192.008V214H199.102ZM206.227 214V215.711H199.133V214H206.227ZM213.352 214V215.711H206.258V214H213.352ZM220.477 214V215.711H213.383V214H220.477ZM227.602 214V215.711H220.508V214H227.602ZM234.727 214V215.711H227.633V214H234.727Z" fill="black"/>
<path d="M43.1016 252.5V254.211H36.0078V252.5H43.1016ZM50.2266 252.5V254.211H43.1328V252.5H50.2266ZM57.3516 252.5V254.211H50.2578V252.5H57.3516ZM64.4766 252.5V254.211H57.3828V252.5H64.4766ZM71.6016 252.5V254.211H64.5078V252.5H71.6016ZM78.7266 252.5V254.211H71.6328V252.5H78.7266ZM85.8516 252.5V254.211H78.7578V252.5H85.8516ZM92.9766 252.5V254.211H85.8828V252.5H92.9766ZM100.102 252.5V254.211H93.0078V252.5H100.102Z" fill="black"/>
<path d="M137.41 243.58L142 248.17L146.59 243.58L148 245L142 251L136 245L137.41 243.58Z" fill="black"/>
<rect x="21" y="224" width="148" height="46" rx="11" stroke="black" stroke-width="2"/>
<path d="M213.102 252.5V254.211H206.008V252.5H213.102ZM220.227 252.5V254.211H213.133V252.5H220.227ZM227.352 252.5V254.211H220.258V252.5H227.352ZM234.477 252.5V254.211H227.383V252.5H234.477ZM241.602 252.5V254.211H234.508V252.5H241.602ZM248.727 252.5V254.211H241.633V252.5H248.727ZM255.852 252.5V254.211H248.758V252.5H255.852ZM262.977 252.5V254.211H255.883V252.5H262.977ZM270.102 252.5V254.211H263.008V252.5H270.102ZM277.227 252.5V254.211H270.133V252.5H277.227ZM284.352 252.5V254.211H277.258V252.5H284.352Z" fill="black"/>
<path d="M307.41 243.58L312 248.17L316.59 243.58L318 245L312 251L306 245L307.41 243.58Z" fill="black"/>
<rect x="191" y="224" width="148" height="46" rx="11" stroke="black" stroke-width="2"/>
<path d="M27.1016 321V322.711H20.0078V321H27.1016ZM34.2266 321V322.711H27.1328V321H34.2266ZM41.3516 321V322.711H34.2578V321H41.3516ZM48.4766 321V322.711H41.3828V321H48.4766ZM55.6016 321V322.711H48.5078V321H55.6016Z" fill="black"/>
<path d="M199.102 321V322.711H192.008V321H199.102ZM206.227 321V322.711H199.133V321H206.227ZM213.352 321V322.711H206.258V321H213.352ZM220.477 321V322.711H213.383V321H220.477ZM227.602 321V322.711H220.508V321H227.602ZM234.727 321V322.711H227.633V321H234.727Z" fill="black"/>
<path d="M43.1016 359.5V361.211H36.0078V359.5H43.1016ZM50.2266 359.5V361.211H43.1328V359.5H50.2266ZM57.3516 359.5V361.211H50.2578V359.5H57.3516ZM64.4766 359.5V361.211H57.3828V359.5H64.4766ZM71.6016 359.5V361.211H64.5078V359.5H71.6016ZM78.7266 359.5V361.211H71.6328V359.5H78.7266ZM85.8516 359.5V361.211H78.7578V359.5H85.8516ZM92.9766 359.5V361.211H85.8828V359.5H92.9766ZM100.102 359.5V361.211H93.0078V359.5H100.102Z" fill="black"/>
<path d="M137.41 350.58L142 355.17L146.59 350.58L148 352L142 358L136 352L137.41 350.58Z" fill="black"/>
<rect x="21" y="331" width="148" height="46" rx="11" stroke="black" stroke-width="2"/>
<path d="M213.102 359.5V361.211H206.008V359.5H213.102ZM220.227 359.5V361.211H213.133V359.5H220.227ZM227.352 359.5V361.211H220.258V359.5H227.352ZM234.477 359.5V361.211H227.383V359.5H234.477ZM241.602 359.5V361.211H234.508V359.5H241.602ZM248.727 359.5V361.211H241.633V359.5H248.727ZM255.852 359.5V361.211H248.758V359.5H255.852ZM262.977 359.5V361.211H255.883V359.5H262.977ZM270.102 359.5V361.211H263.008V359.5H270.102ZM277.227 359.5V361.211H270.133V359.5H277.227ZM284.352 359.5V361.211H277.258V359.5H284.352Z" fill="black"/>
<path d="M307.41 350.58L312 355.17L316.59 350.58L318 352L312 358L306 352L307.41 350.58Z" fill="black"/>
<rect x="191" y="331" width="148" height="46" rx="11" stroke="black" stroke-width="2"/>
<path d="M30.2085 431V433.459H20.0112V431H30.2085ZM40.4507 431V433.459H30.2534V431H40.4507ZM50.6929 431V433.459H40.4956V431H50.6929ZM60.9351 431V433.459H50.7378V431H60.9351ZM71.1772 431V433.459H60.98V431H71.1772ZM81.4194 431V433.459H71.2222V431H81.4194ZM91.6616 431V433.459H81.4644V431H91.6616ZM101.904 431V433.459H91.7065V431H101.904ZM112.146 431V433.459H101.949V431H112.146ZM122.388 431V433.459H112.191V431H122.388ZM132.63 431V433.459H122.433V431H132.63ZM142.873 431V433.459H132.675V431H142.873ZM153.115 431V433.459H142.917V431H153.115ZM163.357 431V433.459H153.16V431H163.357ZM173.599 431V433.459H163.402V431H173.599ZM183.841 431V433.459H173.644V431H183.841ZM194.083 431V433.459H183.886V431H194.083ZM204.326 431V433.459H194.128V431H204.326ZM214.568 431V433.459H204.371V431H214.568ZM224.81 431V433.459H214.613V431H224.81ZM235.052 431V433.459H224.855V431H235.052ZM245.294 431V433.459H235.097V431H245.294ZM255.537 431V433.459H245.339V431H255.537ZM265.779 431V433.459H255.582V431H265.779ZM276.021 431V433.459H265.824V431H276.021ZM286.263 431V433.459H276.066V431H286.263Z" fill="black"/>
<path d="M90.9141 501V502.711H83.8203V501H90.9141ZM98.0391 501V502.711H90.9453V501H98.0391ZM105.164 501V502.711H98.0703V501H105.164ZM112.289 501V502.711H105.195V501H112.289ZM119.414 501V502.711H112.32V501H119.414ZM126.539 501V502.711H119.445V501H126.539ZM133.664 501V502.711H126.57V501H133.664ZM140.789 501V502.711H133.695V501H140.789ZM147.914 501V502.711H140.82V501H147.914ZM155.039 501V502.711H147.945V501H155.039ZM162.164 501V502.711H155.07V501H162.164ZM169.289 501V502.711H162.195V501H169.289ZM176.414 501V502.711H169.32V501H176.414ZM183.539 501V502.711H176.445V501H183.539ZM190.664 501V502.711H183.57V501H190.664ZM197.789 501V502.711H190.695V501H197.789ZM204.914 501V502.711H197.82V501H204.914ZM212.039 501V502.711H204.945V501H212.039ZM219.164 501V502.711H212.07V501H219.164ZM226.289 501V502.711H219.195V501H226.289ZM233.414 501V502.711H226.32V501H233.414ZM240.539 501V502.711H233.445V501H240.539ZM247.664 501V502.711H240.57V501H247.664ZM254.789 501V502.711H247.695V501H254.789ZM261.914 501V502.711H254.82V501H261.914ZM269.039 501V502.711H261.945V501H269.039ZM276.164 501V502.711H269.07V501H276.164Z" fill="black"/>
<rect x="21" y="475" width="318" height="41" rx="11" stroke="black" stroke-width="2"/>
<path d="M90.9141 563V564.711H83.8203V563H90.9141ZM98.0391 563V564.711H90.9453V563H98.0391ZM105.164 563V564.711H98.0703V563H105.164ZM112.289 563V564.711H105.195V563H112.289ZM119.414 563V564.711H112.32V563H119.414ZM126.539 563V564.711H119.445V563H126.539ZM133.664 563V564.711H126.57V563H133.664ZM140.789 563V564.711H133.695V563H140.789ZM147.914 563V564.711H140.82V563H147.914ZM155.039 563V564.711H147.945V563H155.039ZM162.164 563V564.711H155.07V563H162.164ZM169.289 563V564.711H162.195V563H169.289ZM176.414 563V564.711H169.32V563H176.414ZM183.539 563V564.711H176.445V563H183.539ZM190.664 563V564.711H183.57V563H190.664ZM197.789 563V564.711H190.695V563H197.789ZM204.914 563V564.711H197.82V563H204.914ZM212.039 563V564.711H204.945V563H212.039ZM219.164 563V564.711H212.07V563H219.164ZM226.289 563V564.711H219.195V563H226.289ZM233.414 563V564.711H226.32V563H233.414ZM240.539 563V564.711H233.445V563H240.539ZM247.664 563V564.711H240.57V563H247.664ZM254.789 563V564.711H247.695V563H254.789ZM261.914 563V564.711H254.82V563H261.914ZM269.039 563V564.711H261.945V563H269.039ZM276.164 563V564.711H269.07V563H276.164Z" fill="black"/>
<rect x="21" y="537" width="318" height="41" rx="11" stroke="black" stroke-width="2"/>
<path d="M90.9141 625V626.711H83.8203V625H90.9141ZM98.0391 625V626.711H90.9453V625H98.0391ZM105.164 625V626.711H98.0703V625H105.164ZM112.289 625V626.711H105.195V625H112.289ZM119.414 625V626.711H112.32V625H119.414ZM126.539 625V626.711H119.445V625H126.539ZM133.664 625V626.711H126.57V625H133.664ZM140.789 625V626.711H133.695V625H140.789ZM147.914 625V626.711H140.82V625H147.914ZM155.039 625V626.711H147.945V625H155.039ZM162.164 625V626.711H155.07V625H162.164ZM169.289 625V626.711H162.195V625H169.289ZM176.414 625V626.711H169.32V625H176.414ZM183.539 625V626.711H176.445V625H183.539ZM190.664 625V626.711H183.57V625H190.664ZM197.789 625V626.711H190.695V625H197.789ZM204.914 625V626.711H197.82V625H204.914ZM212.039 625V626.711H204.945V625H212.039ZM219.164 625V626.711H212.07V625H219.164ZM226.289 625V626.711H219.195V625H226.289ZM233.414 625V626.711H226.32V625H233.414ZM240.539 625V626.711H233.445V625H240.539ZM247.664 625V626.711H240.57V625H247.664ZM254.789 625V626.711H247.695V625H254.789ZM261.914 625V626.711H254.82V625H261.914ZM269.039 625V626.711H261.945V625H269.039ZM276.164 625V626.711H269.07V625H276.164Z" fill="black"/>
<rect x="21" y="599" width="318" height="41" rx="11" stroke="black" stroke-width="2"/>
<path d="M90.9141 687V688.711H83.8203V687H90.9141ZM98.0391 687V688.711H90.9453V687H98.0391ZM105.164 687V688.711H98.0703V687H105.164ZM112.289 687V688.711H105.195V687H112.289ZM119.414 687V688.711H112.32V687H119.414ZM126.539 687V688.711H119.445V687H126.539ZM133.664 687V688.711H126.57V687H133.664ZM140.789 687V688.711H133.695V687H140.789ZM147.914 687V688.711H140.82V687H147.914ZM155.039 687V688.711H147.945V687H155.039ZM162.164 687V688.711H155.07V687H162.164ZM169.289 687V688.711H162.195V687H169.289ZM176.414 687V688.711H169.32V687H176.414ZM183.539 687V688.711H176.445V687H183.539ZM190.664 687V688.711H183.57V687H190.664ZM197.789 687V688.711H190.695V687H197.789ZM204.914 687V688.711H197.82V687H204.914ZM212.039 687V688.711H204.945V687H212.039ZM219.164 687V688.711H212.07V687H219.164ZM226.289 687V688.711H219.195V687H226.289ZM233.414 687V688.711H226.32V687H233.414ZM240.539 687V688.711H233.445V687H240.539ZM247.664 687V688.711H240.57V687H247.664ZM254.789 687V688.711H247.695V687H254.789ZM261.914 687V688.711H254.82V687H261.914ZM269.039 687V688.711H261.945V687H269.039ZM276.164 687V688.711H269.07V687H276.164Z" fill="black"/>
<rect x="21" y="661" width="318" height="41" rx="11" stroke="black" stroke-width="2"/>
<path d="M65 749H51C50.4696 749 49.9609 749.211 49.5858 749.586C49.2107 749.961 49 750.47 49 751V765C49 765.53 49.2107 766.039 49.5858 766.414C49.9609 766.789 50.4696 767 51 767H65C65.5304 767 66.0391 766.789 66.4142 766.414C66.7893 766.039 67 765.53 67 765V751C67 750.47 66.7893 749.961 66.4142 749.586C66.0391 749.211 65.5304 749 65 749ZM65 765H51V751H65V765ZM63 754.4L59.4 758L63 761.6L61.6 763L58 759.4L54.4 763L53 761.6L56.6 758L53 754.4L54.4 753L58 756.6L61.6 753L63 754.4Z" fill="black"/>
<path d="M187 749H173C172.47 749 171.961 749.211 171.586 749.586C171.211 749.961 171 750.47 171 751V765C171 765.53 171.211 766.039 171.586 766.414C171.961 766.789 172.47 767 173 767H187C187.53 767 188.039 766.789 188.414 766.414C188.789 766.039 189 765.53 189 765V751C189 750.47 188.789 749.961 188.414 749.586C188.039 749.211 187.53 749 187 749ZM187 765H173V751H187V765ZM185 754.4L181.4 758L185 761.6L183.6 763L180 759.4L176.4 763L175 761.6L178.6 758L175 754.4L176.4 753L180 756.6L183.6 753L185 754.4Z" fill="black"/>
<path d="M309 749H295C294.47 749 293.961 749.211 293.586 749.586C293.211 749.961 293 750.47 293 751V765C293 765.53 293.211 766.039 293.586 766.414C293.961 766.789 294.47 767 295 767H309C309.53 767 310.039 766.789 310.414 766.414C310.789 766.039 311 765.53 311 765V751C311 750.47 310.789 749.961 310.414 749.586C310.039 749.211 309.53 749 309 749ZM309 765H295V751H309V765ZM307 754.4L303.4 758L307 761.6L305.6 763L302 759.4L298.4 763L297 761.6L300.6 758L297 754.4L298.4 753L302 756.6L305.6 753L307 754.4Z" fill="black"/>
<path d="M47.2891 785V786.711H40.1953V785H47.2891ZM54.4141 785V786.711H47.3203V785H54.4141ZM61.5391 785V786.711H54.4453V785H61.5391ZM68.6641 785V786.711H61.5703V785H68.6641ZM75.7891 785V786.711H68.6953V785H75.7891Z" fill="black"/>
<path d="M169.289 785V786.711H162.195V785H169.289ZM176.414 785V786.711H169.32V785H176.414ZM183.539 785V786.711H176.445V785H183.539ZM190.664 785V786.711H183.57V785H190.664ZM197.789 785V786.711H190.695V785H197.789Z" fill="black"/>
<path d="M291.289 785V786.711H284.195V785H291.289ZM298.414 785V786.711H291.32V785H298.414ZM305.539 785V786.711H298.445V785H305.539ZM312.664 785V786.711H305.57V785H312.664ZM319.789 785V786.711H312.695V785H319.789Z" fill="black"/>
<path d="M0 736H360V734H0V736Z" fill="black" mask="url(#path-30-inside-1_171_247)"/>
<rect x="22" y="28" width="81" height="54" fill="#D9D9D9" stroke="black" stroke-width="2"/>
<line y1="-0.5" x2="100.125" y2="-0.5" transform="matrix(0.828964 0.559301 -0.7698 0.638286 21 27)" stroke="black"/>
<line y1="-0.5" x2="100.125" y2="-0.5" transform="matrix(-0.828964 0.559301 -0.7698 -0.638286 104 27)" stroke="black"/>
</g>
<rect x="1" y="1" width="358" height="798" rx="11" stroke="black" stroke-width="2"/>
<defs>
<clipPath id="clip0_171_247">
<rect width="360" height="800" rx="12" fill="white"/>
</clipPath>
</defs>
</svg>
