<svg width="313" height="358" viewBox="0 0 313 358" fill="none" xmlns="http://www.w3.org/2000/svg">
<rect width="312" height="51" transform="translate(0.666992)" fill="#EF75FF"/>
<path d="M133.61 25.7598H129.958L129.938 23.748H133.005C133.545 23.748 133.988 23.6797 134.333 23.543C134.678 23.3997 134.935 23.1947 135.104 22.9277C135.28 22.6543 135.368 22.3223 135.368 21.9316C135.368 21.4889 135.284 21.1309 135.114 20.8574C134.951 20.584 134.694 20.3854 134.343 20.2617C133.998 20.138 133.552 20.0762 133.005 20.0762H130.974V32H128.044V17.7812H133.005C133.832 17.7812 134.571 17.8594 135.222 18.0156C135.879 18.1719 136.436 18.4095 136.892 18.7285C137.347 19.0475 137.696 19.4512 137.937 19.9395C138.177 20.4212 138.298 20.9941 138.298 21.6582C138.298 22.2441 138.164 22.7845 137.897 23.2793C137.637 23.7741 137.224 24.1777 136.657 24.4902C136.097 24.8027 135.365 24.9753 134.46 25.0078L133.61 25.7598ZM133.483 32H129.157L130.3 29.7148H133.483C133.998 29.7148 134.418 29.6335 134.743 29.4707C135.069 29.3014 135.31 29.0736 135.466 28.7871C135.622 28.5007 135.7 28.1719 135.7 27.8008C135.7 27.3841 135.629 27.0228 135.485 26.7168C135.349 26.4108 135.127 26.1764 134.821 26.0137C134.515 25.8444 134.112 25.7598 133.61 25.7598H130.788L130.808 23.748H134.323L134.997 24.5391C135.863 24.526 136.56 24.679 137.087 24.998C137.621 25.3105 138.008 25.7174 138.249 26.2188C138.496 26.7201 138.62 27.2572 138.62 27.8301C138.62 28.7415 138.422 29.5098 138.024 30.1348C137.627 30.7533 137.045 31.2188 136.276 31.5312C135.515 31.8438 134.584 32 133.483 32ZM146.892 29.4707V21.4336H149.704V32H147.058L146.892 29.4707ZM147.204 27.3027L148.034 27.2832C148.034 27.9863 147.953 28.6406 147.79 29.2461C147.627 29.8451 147.383 30.3659 147.058 30.8086C146.732 31.2448 146.322 31.5866 145.827 31.834C145.332 32.0749 144.75 32.1953 144.079 32.1953C143.565 32.1953 143.09 32.1237 142.653 31.9805C142.224 31.8307 141.853 31.5996 141.54 31.2871C141.234 30.9681 140.993 30.5612 140.817 30.0664C140.648 29.5651 140.563 28.9629 140.563 28.2598V21.4336H143.376V28.2793C143.376 28.5918 143.412 28.8555 143.483 29.0703C143.562 29.2852 143.669 29.4609 143.806 29.5977C143.942 29.7344 144.102 29.832 144.284 29.8906C144.473 29.9492 144.681 29.9785 144.909 29.9785C145.489 29.9785 145.944 29.8613 146.276 29.627C146.615 29.3926 146.853 29.0736 146.989 28.6699C147.132 28.2598 147.204 27.804 147.204 27.3027ZM157.028 21.4336V23.4258H150.876V21.4336H157.028ZM152.399 18.8262H155.212V28.8164C155.212 29.1224 155.251 29.3568 155.329 29.5195C155.414 29.6823 155.537 29.7962 155.7 29.8613C155.863 29.9199 156.068 29.9492 156.315 29.9492C156.491 29.9492 156.647 29.9427 156.784 29.9297C156.927 29.9102 157.048 29.8906 157.146 29.8711L157.155 31.9414C156.914 32.0195 156.654 32.0814 156.374 32.127C156.094 32.1725 155.785 32.1953 155.446 32.1953C154.828 32.1953 154.287 32.0944 153.825 31.8926C153.369 31.6842 153.018 31.3522 152.771 30.8965C152.523 30.4408 152.399 29.8418 152.399 29.0996V18.8262ZM163.806 21.4336V23.4258H157.653V21.4336H163.806ZM159.177 18.8262H161.989V28.8164C161.989 29.1224 162.028 29.3568 162.106 29.5195C162.191 29.6823 162.315 29.7962 162.478 29.8613C162.64 29.9199 162.845 29.9492 163.093 29.9492C163.269 29.9492 163.425 29.9427 163.562 29.9297C163.705 29.9102 163.825 29.8906 163.923 29.8711L163.933 31.9414C163.692 32.0195 163.431 32.0814 163.151 32.127C162.871 32.1725 162.562 32.1953 162.224 32.1953C161.605 32.1953 161.065 32.0944 160.603 31.8926C160.147 31.6842 159.795 31.3522 159.548 30.8965C159.3 30.4408 159.177 29.8418 159.177 29.0996V18.8262ZM164.704 26.8242V26.6191C164.704 25.8444 164.815 25.1315 165.036 24.4805C165.257 23.8229 165.58 23.2533 166.003 22.7715C166.426 22.2897 166.947 21.9154 167.565 21.6484C168.184 21.375 168.894 21.2383 169.694 21.2383C170.495 21.2383 171.208 21.375 171.833 21.6484C172.458 21.9154 172.982 22.2897 173.405 22.7715C173.835 23.2533 174.16 23.8229 174.382 24.4805C174.603 25.1315 174.714 25.8444 174.714 26.6191V26.8242C174.714 27.5924 174.603 28.3053 174.382 28.9629C174.16 29.6139 173.835 30.1836 173.405 30.6719C172.982 31.1536 172.461 31.528 171.843 31.7949C171.224 32.0618 170.515 32.1953 169.714 32.1953C168.913 32.1953 168.2 32.0618 167.575 31.7949C166.957 31.528 166.433 31.1536 166.003 30.6719C165.58 30.1836 165.257 29.6139 165.036 28.9629C164.815 28.3053 164.704 27.5924 164.704 26.8242ZM167.517 26.6191V26.8242C167.517 27.2669 167.556 27.6803 167.634 28.0645C167.712 28.4486 167.836 28.7871 168.005 29.0801C168.181 29.3665 168.409 29.5911 168.688 29.7539C168.968 29.9167 169.31 29.998 169.714 29.998C170.104 29.998 170.44 29.9167 170.72 29.7539C171 29.5911 171.224 29.3665 171.394 29.0801C171.563 28.7871 171.687 28.4486 171.765 28.0645C171.849 27.6803 171.892 27.2669 171.892 26.8242V26.6191C171.892 26.1895 171.849 25.7858 171.765 25.4082C171.687 25.0241 171.56 24.6855 171.384 24.3926C171.215 24.0931 170.99 23.8587 170.71 23.6895C170.43 23.5202 170.091 23.4355 169.694 23.4355C169.297 23.4355 168.959 23.5202 168.679 23.6895C168.405 23.8587 168.181 24.0931 168.005 24.3926C167.836 24.6855 167.712 25.0241 167.634 25.4082C167.556 25.7858 167.517 26.1895 167.517 26.6191ZM179.196 23.6895V32H176.384V21.4336H179.021L179.196 23.6895ZM178.786 26.3457H178.024C178.024 25.5645 178.125 24.8613 178.327 24.2363C178.529 23.6048 178.812 23.0677 179.177 22.625C179.541 22.1758 179.974 21.834 180.476 21.5996C180.983 21.3587 181.55 21.2383 182.175 21.2383C182.67 21.2383 183.122 21.3099 183.532 21.4531C183.942 21.5964 184.294 21.8242 184.587 22.1367C184.886 22.4492 185.114 22.8626 185.271 23.377C185.433 23.8913 185.515 24.5195 185.515 25.2617V32H182.683V25.252C182.683 24.7832 182.618 24.4186 182.487 24.1582C182.357 23.8978 182.165 23.7155 181.911 23.6113C181.664 23.5007 181.358 23.4453 180.993 23.4453C180.616 23.4453 180.287 23.5202 180.007 23.6699C179.733 23.8197 179.506 24.028 179.323 24.2949C179.147 24.5553 179.014 24.8613 178.923 25.2129C178.832 25.5645 178.786 25.9421 178.786 26.3457Z" fill="black"/>
<rect width="312" height="51" transform="translate(0.666992 75)" fill="url(#paint0_linear_578_112)"/>
<path d="M140.729 98.5723V100.857H133.308V98.5723H140.729ZM134.177 92.7812V107H131.247V92.7812H134.177ZM142.819 92.7812V107H139.899V92.7812H142.819ZM144.743 101.824V101.619C144.743 100.844 144.854 100.132 145.075 99.4805C145.297 98.8229 145.619 98.2533 146.042 97.7715C146.465 97.2897 146.986 96.9154 147.604 96.6484C148.223 96.375 148.933 96.2383 149.733 96.2383C150.534 96.2383 151.247 96.375 151.872 96.6484C152.497 96.9154 153.021 97.2897 153.444 97.7715C153.874 98.2533 154.2 98.8229 154.421 99.4805C154.642 100.132 154.753 100.844 154.753 101.619V101.824C154.753 102.592 154.642 103.305 154.421 103.963C154.2 104.614 153.874 105.184 153.444 105.672C153.021 106.154 152.5 106.528 151.882 106.795C151.263 107.062 150.554 107.195 149.753 107.195C148.952 107.195 148.239 107.062 147.614 106.795C146.996 106.528 146.472 106.154 146.042 105.672C145.619 105.184 145.297 104.614 145.075 103.963C144.854 103.305 144.743 102.592 144.743 101.824ZM147.556 101.619V101.824C147.556 102.267 147.595 102.68 147.673 103.064C147.751 103.449 147.875 103.787 148.044 104.08C148.22 104.367 148.448 104.591 148.728 104.754C149.007 104.917 149.349 104.998 149.753 104.998C150.144 104.998 150.479 104.917 150.759 104.754C151.039 104.591 151.263 104.367 151.433 104.08C151.602 103.787 151.726 103.449 151.804 103.064C151.888 102.68 151.931 102.267 151.931 101.824V101.619C151.931 101.189 151.888 100.786 151.804 100.408C151.726 100.024 151.599 99.6855 151.423 99.3926C151.254 99.0931 151.029 98.8587 150.749 98.6895C150.469 98.5202 150.131 98.4355 149.733 98.4355C149.336 98.4355 148.998 98.5202 148.718 98.6895C148.444 98.8587 148.22 99.0931 148.044 99.3926C147.875 99.6855 147.751 100.024 147.673 100.408C147.595 100.786 147.556 101.189 147.556 101.619ZM159.919 104.949L162.263 96.4336H165.202L161.638 107H159.86L159.919 104.949ZM158.308 96.4336L160.661 104.959L160.71 107H158.923L155.358 96.4336H158.308ZM171.188 107.195C170.368 107.195 169.632 107.065 168.981 106.805C168.33 106.538 167.777 106.17 167.321 105.701C166.872 105.232 166.527 104.689 166.286 104.07C166.045 103.445 165.925 102.781 165.925 102.078V101.688C165.925 100.887 166.039 100.154 166.267 99.4902C166.494 98.8262 166.82 98.25 167.243 97.7617C167.673 97.2734 168.194 96.8991 168.806 96.6387C169.418 96.3717 170.108 96.2383 170.876 96.2383C171.625 96.2383 172.289 96.362 172.868 96.6094C173.448 96.8568 173.933 97.2083 174.323 97.6641C174.72 98.1198 175.02 98.6667 175.222 99.3047C175.424 99.9362 175.524 100.639 175.524 101.414V102.586H167.126V100.711H172.761V100.496C172.761 100.105 172.689 99.7572 172.546 99.4512C172.409 99.1387 172.201 98.8913 171.921 98.709C171.641 98.5267 171.283 98.4355 170.847 98.4355C170.476 98.4355 170.157 98.5169 169.89 98.6797C169.623 98.8424 169.405 99.0703 169.235 99.3633C169.073 99.6562 168.949 100.001 168.864 100.398C168.786 100.789 168.747 101.219 168.747 101.688V102.078C168.747 102.501 168.806 102.892 168.923 103.25C169.047 103.608 169.219 103.917 169.44 104.178C169.668 104.438 169.942 104.64 170.261 104.783C170.586 104.926 170.954 104.998 171.364 104.998C171.872 104.998 172.344 104.9 172.78 104.705C173.223 104.503 173.604 104.201 173.923 103.797L175.29 105.281C175.069 105.6 174.766 105.906 174.382 106.199C174.004 106.492 173.549 106.733 173.015 106.922C172.481 107.104 171.872 107.195 171.188 107.195ZM179.938 98.7383V107H177.126V96.4336H179.772L179.938 98.7383ZM183.122 96.3652L183.073 98.9727C182.937 98.9531 182.771 98.9368 182.575 98.9238C182.386 98.9043 182.214 98.8945 182.058 98.8945C181.66 98.8945 181.315 98.9466 181.022 99.0508C180.736 99.1484 180.495 99.2949 180.3 99.4902C180.111 99.6855 179.968 99.9232 179.87 100.203C179.779 100.483 179.727 100.802 179.714 101.16L179.147 100.984C179.147 100.301 179.216 99.6725 179.353 99.0996C179.489 98.5202 179.688 98.0156 179.948 97.5859C180.215 97.1562 180.541 96.8242 180.925 96.5898C181.309 96.3555 181.748 96.2383 182.243 96.2383C182.399 96.2383 182.559 96.2513 182.722 96.2773C182.884 96.2969 183.018 96.3262 183.122 96.3652Z" fill="black"/>
<path d="M19.2744 167.781H21.7549L25.4072 178.221L29.0596 167.781H31.54L26.4033 182H24.4111L19.2744 167.781ZM17.9365 167.781H20.4072L20.8564 177.957V182H17.9365V167.781ZM30.4072 167.781H32.8877V182H29.958V177.957L30.4072 167.781ZM40.1436 182.195C39.3232 182.195 38.5876 182.065 37.9365 181.805C37.2855 181.538 36.7321 181.17 36.2764 180.701C35.8271 180.232 35.4821 179.689 35.2412 179.07C35.0003 178.445 34.8799 177.781 34.8799 177.078V176.688C34.8799 175.887 34.9938 175.154 35.2217 174.49C35.4495 173.826 35.7751 173.25 36.1982 172.762C36.6279 172.273 37.1488 171.899 37.7607 171.639C38.3727 171.372 39.0628 171.238 39.8311 171.238C40.5798 171.238 41.2438 171.362 41.8232 171.609C42.4027 171.857 42.8877 172.208 43.2783 172.664C43.6755 173.12 43.9749 173.667 44.1768 174.305C44.3786 174.936 44.4795 175.639 44.4795 176.414V177.586H36.0811V175.711H41.7158V175.496C41.7158 175.105 41.6442 174.757 41.501 174.451C41.3643 174.139 41.1559 173.891 40.876 173.709C40.596 173.527 40.238 173.436 39.8018 173.436C39.4307 173.436 39.1117 173.517 38.8447 173.68C38.5778 173.842 38.3597 174.07 38.1904 174.363C38.0277 174.656 37.904 175.001 37.8193 175.398C37.7412 175.789 37.7021 176.219 37.7021 176.688V177.078C37.7021 177.501 37.7607 177.892 37.8779 178.25C38.0016 178.608 38.1742 178.917 38.3955 179.178C38.6234 179.438 38.8968 179.64 39.2158 179.783C39.5413 179.926 39.9092 179.998 40.3193 179.998C40.8271 179.998 41.2992 179.9 41.7354 179.705C42.1781 179.503 42.5589 179.201 42.8779 178.797L44.2451 180.281C44.0238 180.6 43.721 180.906 43.3369 181.199C42.9593 181.492 42.5036 181.733 41.9697 181.922C41.4359 182.104 40.8271 182.195 40.1436 182.195ZM48.835 173.689V182H46.0225V171.434H48.6592L48.835 173.689ZM48.4248 176.346H47.6631C47.6631 175.564 47.764 174.861 47.9658 174.236C48.1676 173.605 48.4508 173.068 48.8154 172.625C49.18 172.176 49.613 171.834 50.1143 171.6C50.6221 171.359 51.1885 171.238 51.8135 171.238C52.3083 171.238 52.7607 171.31 53.1709 171.453C53.5811 171.596 53.9326 171.824 54.2256 172.137C54.5251 172.449 54.7529 172.863 54.9092 173.377C55.0719 173.891 55.1533 174.52 55.1533 175.262V182H52.3213V175.252C52.3213 174.783 52.2562 174.419 52.126 174.158C51.9958 173.898 51.8037 173.715 51.5498 173.611C51.3024 173.501 50.9964 173.445 50.6318 173.445C50.2542 173.445 49.9255 173.52 49.6455 173.67C49.3721 173.82 49.1442 174.028 48.9619 174.295C48.7861 174.555 48.6527 174.861 48.5615 175.213C48.4704 175.564 48.4248 175.942 48.4248 176.346ZM63.0049 179.08C63.0049 178.878 62.9463 178.696 62.8291 178.533C62.7119 178.37 62.4938 178.221 62.1748 178.084C61.8623 177.941 61.4098 177.811 60.8174 177.693C60.2835 177.576 59.7855 177.43 59.3232 177.254C58.8675 177.072 58.4704 176.854 58.1318 176.6C57.7998 176.346 57.5394 176.046 57.3506 175.701C57.1618 175.35 57.0674 174.949 57.0674 174.5C57.0674 174.057 57.1618 173.641 57.3506 173.25C57.5459 172.859 57.8226 172.514 58.1807 172.215C58.5452 171.909 58.988 171.671 59.5088 171.502C60.0361 171.326 60.6286 171.238 61.2861 171.238C62.2041 171.238 62.9919 171.385 63.6494 171.678C64.3135 171.971 64.8213 172.374 65.1729 172.889C65.5309 173.396 65.71 173.976 65.71 174.627H62.8975C62.8975 174.354 62.8389 174.109 62.7217 173.895C62.611 173.673 62.4352 173.501 62.1943 173.377C61.96 173.247 61.654 173.182 61.2764 173.182C60.9639 173.182 60.6937 173.237 60.4658 173.348C60.238 173.452 60.0622 173.595 59.9385 173.777C59.8213 173.953 59.7627 174.148 59.7627 174.363C59.7627 174.526 59.7952 174.673 59.8604 174.803C59.932 174.926 60.0459 175.04 60.2021 175.145C60.3584 175.249 60.5602 175.346 60.8076 175.438C61.0615 175.522 61.374 175.6 61.7451 175.672C62.5068 175.828 63.1872 176.033 63.7861 176.287C64.3851 176.535 64.8604 176.873 65.2119 177.303C65.5635 177.726 65.7393 178.283 65.7393 178.973C65.7393 179.441 65.6351 179.871 65.4268 180.262C65.2184 180.652 64.9189 180.994 64.5283 181.287C64.1377 181.574 63.6689 181.798 63.1221 181.961C62.5817 182.117 61.973 182.195 61.2959 182.195C60.3128 182.195 59.4795 182.02 58.7959 181.668C58.1188 181.316 57.6045 180.87 57.2529 180.33C56.9079 179.783 56.7354 179.223 56.7354 178.65H59.4014C59.4144 179.035 59.512 179.344 59.6943 179.578C59.8831 179.812 60.1208 179.982 60.4072 180.086C60.7002 180.19 61.016 180.242 61.3545 180.242C61.7191 180.242 62.0218 180.193 62.2627 180.096C62.5036 179.992 62.6859 179.855 62.8096 179.686C62.9398 179.51 63.0049 179.308 63.0049 179.08ZM73.2686 179.617V174.91C73.2686 174.572 73.2132 174.282 73.1025 174.041C72.9919 173.794 72.8193 173.602 72.585 173.465C72.3571 173.328 72.0609 173.26 71.6963 173.26C71.3838 173.26 71.1136 173.315 70.8857 173.426C70.6579 173.53 70.4821 173.683 70.3584 173.885C70.2347 174.08 70.1729 174.311 70.1729 174.578H67.3604C67.3604 174.129 67.4645 173.702 67.6729 173.299C67.8812 172.895 68.1839 172.54 68.5811 172.234C68.9782 171.922 69.4502 171.678 69.9971 171.502C70.5505 171.326 71.1689 171.238 71.8525 171.238C72.6729 171.238 73.402 171.375 74.04 171.648C74.6781 171.922 75.1794 172.332 75.5439 172.879C75.915 173.426 76.1006 174.109 76.1006 174.93V179.451C76.1006 180.031 76.1364 180.506 76.208 180.877C76.2796 181.242 76.3838 181.561 76.5205 181.834V182H73.6787C73.542 181.714 73.4378 181.355 73.3662 180.926C73.3011 180.49 73.2686 180.053 73.2686 179.617ZM73.6396 175.564L73.6592 177.156H72.0869C71.7158 177.156 71.3936 177.199 71.1201 177.283C70.8467 177.368 70.6221 177.488 70.4463 177.645C70.2705 177.794 70.1403 177.97 70.0557 178.172C69.9775 178.374 69.9385 178.595 69.9385 178.836C69.9385 179.077 69.9938 179.295 70.1045 179.49C70.2152 179.679 70.3747 179.829 70.583 179.939C70.7913 180.044 71.0355 180.096 71.3154 180.096C71.7386 180.096 72.1064 180.011 72.4189 179.842C72.7314 179.673 72.9723 179.464 73.1416 179.217C73.3174 178.969 73.4085 178.735 73.415 178.514L74.1572 179.705C74.0531 179.972 73.9098 180.249 73.7275 180.535C73.5518 180.822 73.3271 181.092 73.0537 181.346C72.7803 181.593 72.4515 181.798 72.0674 181.961C71.6833 182.117 71.2275 182.195 70.7002 182.195C70.0296 182.195 69.4209 182.062 68.874 181.795C68.3337 181.521 67.904 181.147 67.585 180.672C67.2725 180.19 67.1162 179.643 67.1162 179.031C67.1162 178.478 67.2204 177.986 67.4287 177.557C67.637 177.127 67.943 176.766 68.3467 176.473C68.7568 176.173 69.2679 175.949 69.8799 175.799C70.4919 175.643 71.2015 175.564 72.0088 175.564H73.6396ZM78.4248 171.434H81.2471V182.635C81.2471 183.416 81.1038 184.077 80.8174 184.617C80.5309 185.158 80.1175 185.568 79.5771 185.848C79.0368 186.128 78.3825 186.268 77.6143 186.268C77.3734 186.268 77.139 186.255 76.9111 186.229C76.6768 186.202 76.4359 186.16 76.1885 186.102L76.1982 183.943C76.3545 183.969 76.5075 183.989 76.6572 184.002C76.8005 184.021 76.9469 184.031 77.0967 184.031C77.3896 184.031 77.6338 183.982 77.8291 183.885C78.0244 183.787 78.1709 183.634 78.2686 183.426C78.3727 183.224 78.4248 182.96 78.4248 182.635V171.434ZM78.2002 168.68C78.2002 168.27 78.3434 167.931 78.6299 167.664C78.9229 167.397 79.307 167.264 79.7822 167.264C80.264 167.264 80.6481 167.397 80.9346 167.664C81.221 167.931 81.3643 168.27 81.3643 168.68C81.3643 169.09 81.221 169.428 80.9346 169.695C80.6481 169.962 80.264 170.096 79.7822 170.096C79.307 170.096 78.9229 169.962 78.6299 169.695C78.3434 169.428 78.2002 169.09 78.2002 168.68ZM88.3467 182.195C87.5264 182.195 86.7907 182.065 86.1396 181.805C85.4886 181.538 84.9352 181.17 84.4795 180.701C84.0303 180.232 83.6852 179.689 83.4443 179.07C83.2035 178.445 83.083 177.781 83.083 177.078V176.688C83.083 175.887 83.1969 175.154 83.4248 174.49C83.6527 173.826 83.9782 173.25 84.4014 172.762C84.8311 172.273 85.3519 171.899 85.9639 171.639C86.5758 171.372 87.266 171.238 88.0342 171.238C88.7829 171.238 89.4469 171.362 90.0264 171.609C90.6058 171.857 91.0908 172.208 91.4814 172.664C91.8786 173.12 92.1781 173.667 92.3799 174.305C92.5817 174.936 92.6826 175.639 92.6826 176.414V177.586H84.2842V175.711H89.9189V175.496C89.9189 175.105 89.8473 174.757 89.7041 174.451C89.5674 174.139 89.359 173.891 89.0791 173.709C88.7992 173.527 88.4411 173.436 88.0049 173.436C87.6338 173.436 87.3148 173.517 87.0479 173.68C86.7809 173.842 86.5628 174.07 86.3936 174.363C86.2308 174.656 86.1071 175.001 86.0225 175.398C85.9443 175.789 85.9053 176.219 85.9053 176.688V177.078C85.9053 177.501 85.9639 177.892 86.0811 178.25C86.2048 178.608 86.3773 178.917 86.5986 179.178C86.8265 179.438 87.0999 179.64 87.4189 179.783C87.7445 179.926 88.1123 179.998 88.5225 179.998C89.0303 179.998 89.5023 179.9 89.9385 179.705C90.3812 179.503 90.762 179.201 91.0811 178.797L92.4482 180.281C92.2269 180.6 91.9242 180.906 91.54 181.199C91.1624 181.492 90.7067 181.733 90.1729 181.922C89.639 182.104 89.0303 182.195 88.3467 182.195ZM94.3916 180.643C94.3916 180.226 94.5348 179.878 94.8213 179.598C95.1143 179.318 95.5016 179.178 95.9834 179.178C96.4652 179.178 96.8493 179.318 97.1357 179.598C97.4287 179.878 97.5752 180.226 97.5752 180.643C97.5752 181.059 97.4287 181.408 97.1357 181.688C96.8493 181.967 96.4652 182.107 95.9834 182.107C95.5016 182.107 95.1143 181.967 94.8213 181.688C94.5348 181.408 94.3916 181.059 94.3916 180.643ZM94.3916 172.586C94.3916 172.169 94.5348 171.821 94.8213 171.541C95.1143 171.261 95.5016 171.121 95.9834 171.121C96.4652 171.121 96.8493 171.261 97.1357 171.541C97.4287 171.821 97.5752 172.169 97.5752 172.586C97.5752 173.003 97.4287 173.351 97.1357 173.631C96.8493 173.911 96.4652 174.051 95.9834 174.051C95.5016 174.051 95.1143 173.911 94.8213 173.631C94.5348 173.351 94.3916 173.003 94.3916 172.586Z" fill="black"/>
<rect x="1.16699" y="150.5" width="311" height="207" stroke="#EF75FF"/>
<defs>
<linearGradient id="paint0_linear_578_112" x1="156" y1="0" x2="156" y2="51" gradientUnits="userSpaceOnUse">
<stop stop-color="#EF75FF"/>
<stop offset="1" stop-color="#59FFF1"/>
</linearGradient>
</defs>
</svg>
