<svg width="312" height="450" viewBox="0 0 312 450" fill="none" xmlns="http://www.w3.org/2000/svg">
<rect x="25" y="1" width="118" height="118" rx="11" fill="#59FFF1" stroke="black" stroke-width="2"/>
<path d="M37.266 136.2V146H36.426V141.478H31.89V146H31.05V136.2H31.89V140.68H36.426V136.2H37.266ZM39.3625 146V136.2H44.4025V136.998H40.2025V140.666H43.9825V141.464H40.2025V145.202H44.5005V146H39.3625ZM44.9574 146L48.0934 140.932L45.1674 136.2H46.0914L48.5554 140.204L51.0194 136.2H51.9294L49.0174 140.932L52.1394 146H51.2014L48.5554 141.674L45.8954 146H44.9574Z" fill="black"/>
<path d="M93.05 146L93.526 143.494H92.378V142.794H93.652L94.268 139.672H93.078V138.972H94.394L94.884 136.466H95.654L95.178 138.972H97.516L97.992 136.466H98.776L98.286 138.972H99.448V139.672H98.16L97.558 142.794H98.748V143.494H97.432L96.942 146H96.158L96.648 143.494H94.31L93.82 146H93.05ZM94.436 142.794H96.774L97.39 139.672H95.052L94.436 142.794ZM102.592 146.154C101.654 146.154 100.982 145.972 100.436 145.678V144.88C101.01 145.188 101.682 145.384 102.48 145.384C103.824 145.384 104.776 144.6 104.776 143.2C104.776 141.842 103.852 141.128 102.536 141.128C101.85 141.128 101.262 141.254 100.632 141.506L100.884 136.48H105.154V137.278H101.64L101.472 140.568C101.92 140.428 102.284 140.386 102.732 140.386C104.454 140.386 105.616 141.436 105.616 143.2C105.616 145.006 104.356 146.154 102.592 146.154ZM108.939 146.154C108.337 146.154 107.763 146 107.217 145.692V144.908C107.735 145.244 108.323 145.384 108.911 145.384C110.591 145.384 111.417 143.942 111.515 141.366C110.899 141.954 110.185 142.332 109.247 142.332C107.721 142.332 106.475 141.38 106.475 139.392C106.475 137.586 107.511 136.326 109.261 136.326C111.361 136.326 112.355 138.188 112.355 140.75C112.355 144.474 110.997 146.154 108.939 146.154ZM109.275 141.562C110.171 141.562 110.857 141.184 111.529 140.47C111.459 138.44 110.731 137.11 109.275 137.11C107.945 137.11 107.315 138.048 107.315 139.35C107.315 140.834 108.113 141.562 109.275 141.562ZM119.132 136.2V136.998H114.876V140.82H118.726V141.618H114.876V146H114.036V136.2H119.132ZM125.572 136.2V136.998H121.316V140.82H125.166V141.618H121.316V146H120.476V136.2H125.572ZM132.011 136.2V136.998H127.755V140.82H131.605V141.618H127.755V146H126.915V136.2H132.011ZM132.809 146V145.202H134.615V137.376L132.865 138.132V137.348L134.839 136.48H135.441V145.202H137.093V146H132.809Z" fill="black"/>
<path d="M31.05 169V159.2H33.962C35.67 159.2 37.028 160.18 37.028 162.126C37.028 163.568 36.272 164.59 34.914 164.926L37.448 169H36.468L34.032 165.038H31.89V169H31.05ZM31.89 164.254H33.976C35.278 164.254 36.188 163.512 36.188 162.126C36.188 160.726 35.292 159.998 34.004 159.998H31.89V164.254ZM41.9689 169.154C39.9669 169.154 38.1749 167.81 38.1749 164.142C38.1749 160.866 39.9529 159.046 42.1789 159.046C42.9769 159.046 43.6629 159.186 44.2509 159.564V160.362C43.6349 159.984 43.0049 159.83 42.2769 159.83C40.3869 159.83 39.0149 161.398 39.0149 164.142C39.0149 167.166 40.3869 168.37 42.0529 168.37C42.7389 168.37 43.2009 168.258 43.6909 167.936V163.834H44.5169V168.412C43.8449 168.902 43.0609 169.154 41.9689 169.154ZM49.0541 159.2C50.8321 159.2 51.8961 159.984 51.8961 161.664C51.8961 163.008 51.1401 163.652 50.4681 163.862C51.1821 164.03 52.2741 164.66 52.2881 166.34C52.2741 168.608 50.3561 169 49.0681 169H46.2121V159.2H49.0541ZM48.9841 159.998H47.0521V163.512H49.2081C50.2441 163.512 51.0561 162.994 51.0561 161.776C51.0561 160.46 50.3421 159.998 48.9841 159.998ZM49.1661 164.296H47.0521V168.202H48.9141C50.0761 168.202 51.4341 168.062 51.4481 166.256C51.4341 164.52 50.0761 164.296 49.1661 164.296Z" fill="black"/>
<path d="M78.612 169.154C76.582 169.154 75.574 167.936 75.574 166.606C75.574 165.402 76.288 164.436 77.24 163.792C76.484 163.33 75.924 162.7 75.924 161.65C75.924 160.516 76.792 159.326 78.612 159.326C80.32 159.326 81.3 160.446 81.3 161.734C81.3 162.672 80.754 163.554 79.914 164.226C80.852 164.702 81.65 165.346 81.65 166.648C81.65 167.838 80.768 169.154 78.612 169.154ZM79.242 163.89C79.9 163.386 80.474 162.616 80.474 161.734C80.474 160.796 79.788 160.096 78.612 160.096C77.394 160.096 76.75 160.838 76.75 161.706C76.75 162.98 78.024 163.372 79.242 163.89ZM78.612 168.37C80.096 168.37 80.81 167.586 80.81 166.634C80.81 165.192 79.228 164.814 77.884 164.156C77.016 164.758 76.414 165.542 76.414 166.55C76.414 167.614 77.212 168.37 78.612 168.37ZM85.1031 169.154C84.5011 169.154 83.9271 169 83.3811 168.692V167.908C83.8991 168.244 84.4871 168.384 85.0751 168.384C86.7551 168.384 87.5811 166.942 87.6791 164.366C87.0631 164.954 86.3491 165.332 85.4111 165.332C83.8851 165.332 82.6391 164.38 82.6391 162.392C82.6391 160.586 83.6751 159.326 85.4251 159.326C87.5251 159.326 88.5191 161.188 88.5191 163.75C88.5191 167.474 87.1611 169.154 85.1031 169.154ZM85.4391 164.562C86.3351 164.562 87.0211 164.184 87.6931 163.47C87.6231 161.44 86.8951 160.11 85.4391 160.11C84.1091 160.11 83.4791 161.048 83.4791 162.35C83.4791 163.834 84.2771 164.562 85.4391 164.562ZM97.7665 159.326C99.2785 159.326 100.343 160.25 100.343 161.72C100.343 163.316 99.2505 164.198 98.1725 165.094C97.1505 165.934 96.0865 166.774 96.0585 168.216L100.413 168.202V169H95.2045V168.482C95.2045 166.564 96.4365 165.528 97.5845 164.576C98.5925 163.736 99.5165 162.952 99.5165 161.72C99.5165 160.726 98.7325 160.096 97.7105 160.096C96.9685 160.096 96.2405 160.306 95.4565 160.838V159.998C96.1565 159.564 96.9405 159.326 97.7665 159.326ZM103.735 169.154C102.797 169.154 102.125 168.972 101.579 168.678V167.88C102.153 168.188 102.825 168.384 103.623 168.384C104.967 168.384 105.919 167.6 105.919 166.2C105.919 164.842 104.995 164.128 103.679 164.128C102.993 164.128 102.405 164.254 101.775 164.506L102.027 159.48H106.297V160.278H102.783L102.615 163.568C103.063 163.428 103.427 163.386 103.875 163.386C105.597 163.386 106.759 164.436 106.759 166.2C106.759 168.006 105.499 169.154 103.735 169.154ZM110.01 169.154C109.072 169.154 108.4 168.972 107.854 168.678V167.88C108.428 168.188 109.1 168.384 109.898 168.384C111.242 168.384 112.194 167.6 112.194 166.2C112.194 164.842 111.27 164.128 109.954 164.128C109.268 164.128 108.68 164.254 108.05 164.506L108.302 159.48H112.572V160.278H109.058L108.89 163.568C109.338 163.428 109.702 163.386 110.15 163.386C111.872 163.386 113.034 164.436 113.034 166.2C113.034 168.006 111.774 169.154 110.01 169.154ZM122.13 159.326C123.642 159.326 124.706 160.25 124.706 161.72C124.706 163.316 123.614 164.198 122.536 165.094C121.514 165.934 120.45 166.774 120.422 168.216L124.776 168.202V169H119.568V168.482C119.568 166.564 120.8 165.528 121.948 164.576C122.956 163.736 123.88 162.952 123.88 161.72C123.88 160.726 123.096 160.096 122.074 160.096C121.332 160.096 120.604 160.306 119.82 160.838V159.998C120.52 159.564 121.304 159.326 122.13 159.326ZM129.851 169V166.774H125.413V166.158L129.823 159.48H130.663V166.004H131.909V166.774H130.663V169H129.851ZM126.407 166.004H129.851V160.852L126.407 166.004ZM132.666 169V168.202H134.472V160.376L132.722 161.132V160.348L134.696 159.48H135.298V168.202H136.95V169H132.666Z" fill="black"/>
<path d="M37.266 182.2V192H36.426V187.478H31.89V192H31.05V182.2H31.89V186.68H36.426V182.2H37.266ZM41.6025 192.154C40.5665 192.154 39.7545 191.986 38.9425 191.468V190.67C39.7825 191.174 40.5525 191.37 41.5465 191.37C42.8765 191.37 43.7445 190.726 43.7445 189.578C43.7445 187.016 38.7745 187.688 38.7745 184.566C38.7745 182.928 40.0765 182.046 41.6725 182.046C42.5405 182.046 43.2545 182.242 43.9965 182.69V183.488C43.2685 183.04 42.5825 182.83 41.7285 182.83C40.5105 182.83 39.6145 183.404 39.6145 184.538C39.6145 186.974 44.5845 186.414 44.5845 189.522C44.5845 191.286 43.2825 192.154 41.6025 192.154ZM46.8197 182.2V191.202H51.0757V192H45.9797V182.2H46.8197Z" fill="black"/>
<path d="M77.504 192V191.202H79.31V183.376L77.56 184.132V183.348L79.534 182.48H80.136V191.202H81.788V192H77.504ZM87.1918 182.48V183.222L84.2098 192H83.3698L86.3378 183.278H81.9138V182.48H87.1918ZM90.2447 192.154C89.3067 192.154 88.6347 191.972 88.0887 191.678V190.88C88.6627 191.188 89.3347 191.384 90.1327 191.384C91.4767 191.384 92.4287 190.6 92.4287 189.2C92.4287 187.842 91.5047 187.128 90.1887 187.128C89.5027 187.128 88.9147 187.254 88.2847 187.506L88.5367 182.48H92.8067V183.278H89.2927L89.1247 186.568C89.5727 186.428 89.9367 186.386 90.3847 186.386C92.1067 186.386 93.2687 187.436 93.2687 189.2C93.2687 191.006 92.0087 192.154 90.2447 192.154ZM99.8302 192V191.202H101.636V183.376L99.8862 184.132V183.348L101.86 182.48H102.462V191.202H104.114V192H99.8302ZM107.877 192.154C105.637 192.154 104.741 190.054 104.741 187.24C104.741 184.426 105.637 182.326 107.877 182.326C110.103 182.326 110.999 184.426 110.999 187.24C110.999 190.054 110.103 192.154 107.877 192.154ZM107.877 191.37C109.459 191.37 110.159 189.872 110.159 187.24C110.159 184.622 109.459 183.11 107.877 183.11C106.281 183.11 105.581 184.622 105.581 187.24C105.581 189.872 106.281 191.37 107.877 191.37ZM115.397 192.154C113.157 192.154 112.261 190.054 112.261 187.24C112.261 184.426 113.157 182.326 115.397 182.326C117.623 182.326 118.519 184.426 118.519 187.24C118.519 190.054 117.623 192.154 115.397 192.154ZM115.397 191.37C116.979 191.37 117.679 189.872 117.679 187.24C117.679 184.622 116.979 183.11 115.397 183.11C113.801 183.11 113.101 184.622 113.101 187.24C113.101 189.872 113.801 191.37 115.397 191.37ZM128.481 186.148C129.993 186.148 131.239 187.1 131.239 189.088C131.239 190.894 130.217 192.154 128.453 192.154C126.353 192.154 125.359 190.292 125.359 187.73C125.359 184.006 126.717 182.326 128.873 182.326C129.475 182.326 130.049 182.48 130.595 182.788V183.572C130.077 183.236 129.489 183.096 128.901 183.096C127.137 183.096 126.297 184.538 126.213 187.114C126.815 186.526 127.529 186.148 128.481 186.148ZM128.439 191.37C129.783 191.37 130.399 190.432 130.399 189.13C130.399 187.646 129.601 186.918 128.453 186.918C127.557 186.918 126.857 187.296 126.199 188.01C126.269 190.04 126.983 191.37 128.439 191.37ZM137.108 182.48V183.222L134.126 192H133.286L136.254 183.278H131.83V182.48H137.108Z" fill="black"/>
<rect x="169" y="1" width="118" height="118" rx="11" fill="#EF75FF" stroke="black" stroke-width="2"/>
<path d="M181.266 136.2V146H180.426V141.478H175.89V146H175.05V136.2H175.89V140.68H180.426V136.2H181.266ZM183.363 146V136.2H188.403V136.998H184.203V140.666H187.983V141.464H184.203V145.202H188.501V146H183.363ZM188.957 146L192.093 140.932L189.167 136.2H190.091L192.555 140.204L195.019 136.2H195.929L193.017 140.932L196.139 146H195.201L192.555 141.674L189.895 146H188.957Z" fill="black"/>
<path d="M237.05 146L237.526 143.494H236.378V142.794H237.652L238.268 139.672H237.078V138.972H238.394L238.884 136.466H239.654L239.178 138.972H241.516L241.992 136.466H242.776L242.286 138.972H243.448V139.672H242.16L241.558 142.794H242.748V143.494H241.432L240.942 146H240.158L240.648 143.494H238.31L237.82 146H237.05ZM238.436 142.794H240.774L241.39 139.672H239.052L238.436 142.794ZM244.87 146V136.2H249.91V136.998H245.71V140.666H249.49V141.464H245.71V145.202H250.008V146H244.87ZM256.597 136.2V136.998H252.341V140.82H256.191V141.618H252.341V146H251.501V136.2H256.597ZM262.407 136.48V137.222L259.425 146H258.585L261.553 137.278H257.129V136.48H262.407ZM265.46 146.154C264.522 146.154 263.85 145.972 263.304 145.678V144.88C263.878 145.188 264.55 145.384 265.348 145.384C266.692 145.384 267.644 144.6 267.644 143.2C267.644 141.842 266.72 141.128 265.404 141.128C264.718 141.128 264.13 141.254 263.5 141.506L263.752 136.48H268.022V137.278H264.508L264.34 140.568C264.788 140.428 265.152 140.386 265.6 140.386C267.322 140.386 268.484 141.436 268.484 143.2C268.484 145.006 267.224 146.154 265.46 146.154ZM275.109 136.2V136.998H270.853V140.82H274.703V141.618H270.853V146H270.013V136.2H275.109ZM281.548 136.2V136.998H277.292V140.82H281.142V141.618H277.292V146H276.452V136.2H281.548Z" fill="black"/>
<path d="M175.05 169V159.2H177.962C179.67 159.2 181.028 160.18 181.028 162.126C181.028 163.568 180.272 164.59 178.914 164.926L181.448 169H180.468L178.032 165.038H175.89V169H175.05ZM175.89 164.254H177.976C179.278 164.254 180.188 163.512 180.188 162.126C180.188 160.726 179.292 159.998 178.004 159.998H175.89V164.254ZM185.969 169.154C183.967 169.154 182.175 167.81 182.175 164.142C182.175 160.866 183.953 159.046 186.179 159.046C186.977 159.046 187.663 159.186 188.251 159.564V160.362C187.635 159.984 187.005 159.83 186.277 159.83C184.387 159.83 183.015 161.398 183.015 164.142C183.015 167.166 184.387 168.37 186.053 168.37C186.739 168.37 187.201 168.258 187.691 167.936V163.834H188.517V168.412C187.845 168.902 187.061 169.154 185.969 169.154ZM193.054 159.2C194.832 159.2 195.896 159.984 195.896 161.664C195.896 163.008 195.14 163.652 194.468 163.862C195.182 164.03 196.274 164.66 196.288 166.34C196.274 168.608 194.356 169 193.068 169H190.212V159.2H193.054ZM192.984 159.998H191.052V163.512H193.208C194.244 163.512 195.056 162.994 195.056 161.776C195.056 160.46 194.342 159.998 192.984 159.998ZM193.166 164.296H191.052V168.202H192.914C194.076 168.202 195.434 168.062 195.448 166.256C195.434 164.52 194.076 164.296 193.166 164.296Z" fill="black"/>
<path d="M220.038 159.326C221.55 159.326 222.614 160.25 222.614 161.72C222.614 163.316 221.522 164.198 220.444 165.094C219.422 165.934 218.358 166.774 218.33 168.216L222.684 168.202V169H217.476V168.482C217.476 166.564 218.708 165.528 219.856 164.576C220.864 163.736 221.788 162.952 221.788 161.72C221.788 160.726 221.004 160.096 219.982 160.096C219.24 160.096 218.512 160.306 217.728 160.838V159.998C218.428 159.564 219.212 159.326 220.038 159.326ZM225.936 169.154C225.026 169.154 224.41 169.014 223.766 168.706V167.922C224.438 168.244 225.054 168.384 225.908 168.37C227.098 168.37 228.148 167.712 228.148 166.41C228.148 165.08 227.182 164.478 226.104 164.478H225.054V163.694H226.104C227.112 163.694 227.812 162.882 227.812 161.916C227.812 160.852 227.098 160.096 225.712 160.096C225.054 160.096 224.48 160.25 223.864 160.544V159.76C224.466 159.48 225.068 159.326 225.824 159.326C227.546 159.326 228.61 160.418 228.61 161.902C228.61 162.854 228.05 163.75 227.196 164.044C228.05 164.254 228.946 165.066 228.946 166.452C228.946 168.188 227.532 169.154 225.936 169.154ZM232.421 169.154C231.819 169.154 231.245 169 230.699 168.692V167.908C231.217 168.244 231.805 168.384 232.393 168.384C234.073 168.384 234.899 166.942 234.997 164.366C234.381 164.954 233.667 165.332 232.729 165.332C231.203 165.332 229.957 164.38 229.957 162.392C229.957 160.586 230.993 159.326 232.743 159.326C234.843 159.326 235.837 161.188 235.837 163.75C235.837 167.474 234.479 169.154 232.421 169.154ZM232.757 164.562C233.653 164.562 234.339 164.184 235.011 163.47C234.941 161.44 234.213 160.11 232.757 160.11C231.427 160.11 230.797 161.048 230.797 162.35C230.797 163.834 231.595 164.562 232.757 164.562ZM242.551 169V168.202H244.357V160.376L242.607 161.132V160.348L244.581 159.48H245.183V168.202H246.835V169H242.551ZM247.5 169V168.202H249.306V160.376L247.556 161.132V160.348L249.53 159.48H250.132V168.202H251.784V169H247.5ZM257.188 159.48V160.222L254.206 169H253.366L256.334 160.278H251.91V159.48H257.188ZM266.085 159.326C267.597 159.326 268.661 160.25 268.661 161.72C268.661 163.316 267.569 164.198 266.491 165.094C265.469 165.934 264.405 166.774 264.377 168.216L268.731 168.202V169H263.523V168.482C263.523 166.564 264.755 165.528 265.903 164.576C266.911 163.736 267.835 162.952 267.835 161.72C267.835 160.726 267.051 160.096 266.029 160.096C265.287 160.096 264.559 160.306 263.775 160.838V159.998C264.475 159.564 265.259 159.326 266.085 159.326ZM272.053 169.154C271.115 169.154 270.443 168.972 269.897 168.678V167.88C270.471 168.188 271.143 168.384 271.941 168.384C273.285 168.384 274.237 167.6 274.237 166.2C274.237 164.842 273.313 164.128 271.997 164.128C271.311 164.128 270.723 164.254 270.093 164.506L270.345 159.48H274.615V160.278H271.101L270.933 163.568C271.381 163.428 271.745 163.386 272.193 163.386C273.915 163.386 275.077 164.436 275.077 166.2C275.077 168.006 273.817 169.154 272.053 169.154ZM278.329 169.154C277.391 169.154 276.719 168.972 276.173 168.678V167.88C276.747 168.188 277.419 168.384 278.217 168.384C279.561 168.384 280.513 167.6 280.513 166.2C280.513 164.842 279.589 164.128 278.273 164.128C277.587 164.128 276.999 164.254 276.369 164.506L276.621 159.48H280.891V160.278H277.377L277.209 163.568C277.657 163.428 278.021 163.386 278.469 163.386C280.191 163.386 281.353 164.436 281.353 166.2C281.353 168.006 280.093 169.154 278.329 169.154Z" fill="black"/>
<path d="M181.266 182.2V192H180.426V187.478H175.89V192H175.05V182.2H175.89V186.68H180.426V182.2H181.266ZM185.603 192.154C184.567 192.154 183.755 191.986 182.943 191.468V190.67C183.783 191.174 184.553 191.37 185.547 191.37C186.877 191.37 187.745 190.726 187.745 189.578C187.745 187.016 182.774 187.688 182.774 184.566C182.774 182.928 184.077 182.046 185.673 182.046C186.541 182.046 187.255 182.242 187.997 182.69V183.488C187.269 183.04 186.583 182.83 185.729 182.83C184.511 182.83 183.615 183.404 183.615 184.538C183.615 186.974 188.585 186.414 188.585 189.522C188.585 191.286 187.283 192.154 185.603 192.154ZM190.82 182.2V191.202H195.076V192H189.98V182.2H190.82Z" fill="black"/>
<path d="M222.038 182.326C223.55 182.326 224.614 183.25 224.614 184.72C224.614 186.316 223.522 187.198 222.444 188.094C221.422 188.934 220.358 189.774 220.33 191.216L224.684 191.202V192H219.476V191.482C219.476 189.564 220.708 188.528 221.856 187.576C222.864 186.736 223.788 185.952 223.788 184.72C223.788 183.726 223.004 183.096 221.982 183.096C221.24 183.096 220.512 183.306 219.728 183.838V182.998C220.428 182.564 221.212 182.326 222.038 182.326ZM228.132 192.154C227.53 192.154 226.956 192 226.41 191.692V190.908C226.928 191.244 227.516 191.384 228.104 191.384C229.784 191.384 230.61 189.942 230.708 187.366C230.092 187.954 229.378 188.332 228.44 188.332C226.914 188.332 225.668 187.38 225.668 185.392C225.668 183.586 226.704 182.326 228.454 182.326C230.554 182.326 231.548 184.188 231.548 186.75C231.548 190.474 230.19 192.154 228.132 192.154ZM228.468 187.562C229.364 187.562 230.05 187.184 230.722 186.47C230.652 184.44 229.924 183.11 228.468 183.11C227.138 183.11 226.508 184.048 226.508 185.35C226.508 186.834 227.306 187.562 228.468 187.562ZM234.8 192.154C233.89 192.154 233.274 192.014 232.63 191.706V190.922C233.302 191.244 233.918 191.384 234.772 191.37C235.962 191.37 237.012 190.712 237.012 189.41C237.012 188.08 236.046 187.478 234.968 187.478H233.918V186.694H234.968C235.976 186.694 236.676 185.882 236.676 184.916C236.676 183.852 235.962 183.096 234.576 183.096C233.918 183.096 233.344 183.25 232.728 183.544V182.76C233.33 182.48 233.932 182.326 234.688 182.326C236.41 182.326 237.474 183.418 237.474 184.902C237.474 185.854 236.914 186.75 236.06 187.044C236.914 187.254 237.81 188.066 237.81 189.452C237.81 191.188 236.396 192.154 234.8 192.154ZM244.469 192V191.202H246.275V183.376L244.525 184.132V183.348L246.499 182.48H247.101V191.202H248.753V192H244.469ZM252.516 192.154C250.276 192.154 249.38 190.054 249.38 187.24C249.38 184.426 250.276 182.326 252.516 182.326C254.742 182.326 255.638 184.426 255.638 187.24C255.638 190.054 254.742 192.154 252.516 192.154ZM252.516 191.37C254.098 191.37 254.798 189.872 254.798 187.24C254.798 184.622 254.098 183.11 252.516 183.11C250.92 183.11 250.22 184.622 250.22 187.24C250.22 189.872 250.92 191.37 252.516 191.37ZM260.036 192.154C257.796 192.154 256.9 190.054 256.9 187.24C256.9 184.426 257.796 182.326 260.036 182.326C262.262 182.326 263.158 184.426 263.158 187.24C263.158 190.054 262.262 192.154 260.036 192.154ZM260.036 191.37C261.618 191.37 262.318 189.872 262.318 187.24C262.318 184.622 261.618 183.11 260.036 183.11C258.44 183.11 257.74 184.622 257.74 187.24C257.74 189.872 258.44 191.37 260.036 191.37ZM274.883 182.48V183.222L271.901 192H271.061L274.029 183.278H269.605V182.48H274.883ZM277.866 192.154C276.956 192.154 276.34 192.014 275.696 191.706V190.922C276.368 191.244 276.984 191.384 277.838 191.37C279.028 191.37 280.078 190.712 280.078 189.41C280.078 188.08 279.112 187.478 278.034 187.478H276.984V186.694H278.034C279.042 186.694 279.742 185.882 279.742 184.916C279.742 183.852 279.028 183.096 277.642 183.096C276.984 183.096 276.41 183.25 275.794 183.544V182.76C276.396 182.48 276.998 182.326 277.754 182.326C279.476 182.326 280.54 183.418 280.54 184.902C280.54 185.854 279.98 186.75 279.126 187.044C279.98 187.254 280.876 188.066 280.876 189.452C280.876 191.188 279.462 192.154 277.866 192.154Z" fill="black"/>
<rect x="25" y="250" width="118" height="118" rx="11" fill="white" stroke="black" stroke-width="2"/>
<path d="M37.266 385.2V395H36.426V390.478H31.89V395H31.05V385.2H31.89V389.68H36.426V385.2H37.266ZM39.3625 395V385.2H44.4025V385.998H40.2025V389.666H43.9825V390.464H40.2025V394.202H44.5005V395H39.3625ZM44.9574 395L48.0934 389.932L45.1674 385.2H46.0914L48.5554 389.204L51.0194 385.2H51.9294L49.0174 389.932L52.1394 395H51.2014L48.5554 390.674L45.8954 395H44.9574Z" fill="black"/>
<path d="M92.05 395L92.526 392.494H91.378V391.794H92.652L93.268 388.672H92.078V387.972H93.394L93.884 385.466H94.654L94.178 387.972H96.516L96.992 385.466H97.776L97.286 387.972H98.448V388.672H97.16L96.558 391.794H97.748V392.494H96.432L95.942 395H95.158L95.648 392.494H93.31L92.82 395H92.05ZM93.436 391.794H95.774L96.39 388.672H94.052L93.436 391.794ZM104.966 385.2V385.998H100.71V389.82H104.56V390.618H100.71V395H99.8703V385.2H104.966ZM111.406 385.2V385.998H107.15V389.82H111V390.618H107.15V395H106.31V385.2H111.406ZM117.845 385.2V385.998H113.589V389.82H117.439V390.618H113.589V395H112.749V385.2H117.845ZM124.285 385.2V385.998H120.029V389.82H123.879V390.618H120.029V395H119.189V385.2H124.285ZM130.724 385.2V385.998H126.468V389.82H130.318V390.618H126.468V395H125.628V385.2H130.724ZM137.164 385.2V385.998H132.908V389.82H136.758V390.618H132.908V395H132.068V385.2H137.164Z" fill="black"/>
<path d="M31.05 418V408.2H33.962C35.67 408.2 37.028 409.18 37.028 411.126C37.028 412.568 36.272 413.59 34.914 413.926L37.448 418H36.468L34.032 414.038H31.89V418H31.05ZM31.89 413.254H33.976C35.278 413.254 36.188 412.512 36.188 411.126C36.188 409.726 35.292 408.998 34.004 408.998H31.89V413.254ZM41.9689 418.154C39.9669 418.154 38.1749 416.81 38.1749 413.142C38.1749 409.866 39.9529 408.046 42.1789 408.046C42.9769 408.046 43.6629 408.186 44.2509 408.564V409.362C43.6349 408.984 43.0049 408.83 42.2769 408.83C40.3869 408.83 39.0149 410.398 39.0149 413.142C39.0149 416.166 40.3869 417.37 42.0529 417.37C42.7389 417.37 43.2009 417.258 43.6909 416.936V412.834H44.5169V417.412C43.8449 417.902 43.0609 418.154 41.9689 418.154ZM49.0541 408.2C50.8321 408.2 51.8961 408.984 51.8961 410.664C51.8961 412.008 51.1401 412.652 50.4681 412.862C51.1821 413.03 52.2741 413.66 52.2881 415.34C52.2741 417.608 50.3561 418 49.0681 418H46.2121V408.2H49.0541ZM48.9841 408.998H47.0521V412.512H49.2081C50.2441 412.512 51.0561 411.994 51.0561 410.776C51.0561 409.46 50.3421 408.998 48.9841 408.998ZM49.1661 413.296H47.0521V417.202H48.9141C50.0761 417.202 51.4341 417.062 51.4481 415.256C51.4341 413.52 50.0761 413.296 49.1661 413.296Z" fill="black"/>
<path d="M73.038 408.326C74.55 408.326 75.614 409.25 75.614 410.72C75.614 412.316 74.522 413.198 73.444 414.094C72.422 414.934 71.358 415.774 71.33 417.216L75.684 417.202V418H70.476V417.482C70.476 415.564 71.708 414.528 72.856 413.576C73.864 412.736 74.788 411.952 74.788 410.72C74.788 409.726 74.004 409.096 72.982 409.096C72.24 409.096 71.512 409.306 70.728 409.838V408.998C71.428 408.564 72.212 408.326 73.038 408.326ZM79.0064 418.154C78.0684 418.154 77.3964 417.972 76.8504 417.678V416.88C77.4244 417.188 78.0964 417.384 78.8944 417.384C80.2384 417.384 81.1904 416.6 81.1904 415.2C81.1904 413.842 80.2664 413.128 78.9504 413.128C78.2644 413.128 77.6764 413.254 77.0464 413.506L77.2984 408.48H81.5684V409.278H78.0544L77.8864 412.568C78.3344 412.428 78.6984 412.386 79.1464 412.386C80.8684 412.386 82.0304 413.436 82.0304 415.2C82.0304 417.006 80.7704 418.154 79.0064 418.154ZM85.2818 418.154C84.3438 418.154 83.6718 417.972 83.1258 417.678V416.88C83.6998 417.188 84.3718 417.384 85.1698 417.384C86.5138 417.384 87.4658 416.6 87.4658 415.2C87.4658 413.842 86.5418 413.128 85.2258 413.128C84.5398 413.128 83.9518 413.254 83.3218 413.506L83.5738 408.48H87.8438V409.278H84.3298L84.1618 412.568C84.6098 412.428 84.9738 412.386 85.4218 412.386C87.1438 412.386 88.3058 413.436 88.3058 415.2C88.3058 417.006 87.0458 418.154 85.2818 418.154ZM97.4013 408.326C98.9133 408.326 99.9773 409.25 99.9773 410.72C99.9773 412.316 98.8853 413.198 97.8073 414.094C96.7853 414.934 95.7213 415.774 95.6933 417.216L100.047 417.202V418H94.8393V417.482C94.8393 415.564 96.0713 414.528 97.2193 413.576C98.2273 412.736 99.1513 411.952 99.1513 410.72C99.1513 409.726 98.3673 409.096 97.3453 409.096C96.6033 409.096 95.8753 409.306 95.0913 409.838V408.998C95.7913 408.564 96.5753 408.326 97.4013 408.326ZM103.37 418.154C102.432 418.154 101.76 417.972 101.214 417.678V416.88C101.788 417.188 102.46 417.384 103.258 417.384C104.602 417.384 105.554 416.6 105.554 415.2C105.554 413.842 104.63 413.128 103.314 413.128C102.628 413.128 102.04 413.254 101.41 413.506L101.662 408.48H105.932V409.278H102.418L102.25 412.568C102.698 412.428 103.062 412.386 103.51 412.386C105.232 412.386 106.394 413.436 106.394 415.2C106.394 417.006 105.134 418.154 103.37 418.154ZM109.645 418.154C108.707 418.154 108.035 417.972 107.489 417.678V416.88C108.063 417.188 108.735 417.384 109.533 417.384C110.877 417.384 111.829 416.6 111.829 415.2C111.829 413.842 110.905 413.128 109.589 413.128C108.903 413.128 108.315 413.254 107.685 413.506L107.937 408.48H112.207V409.278H108.693L108.525 412.568C108.973 412.428 109.337 412.386 109.785 412.386C111.507 412.386 112.669 413.436 112.669 415.2C112.669 417.006 111.409 418.154 109.645 418.154ZM121.765 408.326C123.277 408.326 124.341 409.25 124.341 410.72C124.341 412.316 123.249 413.198 122.171 414.094C121.149 414.934 120.085 415.774 120.057 417.216L124.411 417.202V418H119.203V417.482C119.203 415.564 120.435 414.528 121.583 413.576C122.591 412.736 123.515 411.952 123.515 410.72C123.515 409.726 122.731 409.096 121.709 409.096C120.967 409.096 120.239 409.306 119.455 409.838V408.998C120.155 408.564 120.939 408.326 121.765 408.326ZM127.733 418.154C126.795 418.154 126.123 417.972 125.577 417.678V416.88C126.151 417.188 126.823 417.384 127.621 417.384C128.965 417.384 129.917 416.6 129.917 415.2C129.917 413.842 128.993 413.128 127.677 413.128C126.991 413.128 126.403 413.254 125.773 413.506L126.025 408.48H130.295V409.278H126.781L126.613 412.568C127.061 412.428 127.425 412.386 127.873 412.386C129.595 412.386 130.757 413.436 130.757 415.2C130.757 417.006 129.497 418.154 127.733 418.154ZM134.008 418.154C133.07 418.154 132.398 417.972 131.852 417.678V416.88C132.426 417.188 133.098 417.384 133.896 417.384C135.24 417.384 136.192 416.6 136.192 415.2C136.192 413.842 135.268 413.128 133.952 413.128C133.266 413.128 132.678 413.254 132.048 413.506L132.3 408.48H136.57V409.278H133.056L132.888 412.568C133.336 412.428 133.7 412.386 134.148 412.386C135.87 412.386 137.032 413.436 137.032 415.2C137.032 417.006 135.772 418.154 134.008 418.154Z" fill="black"/>
<path d="M37.266 431.2V441H36.426V436.478H31.89V441H31.05V431.2H31.89V435.68H36.426V431.2H37.266ZM41.6025 441.154C40.5665 441.154 39.7545 440.986 38.9425 440.468V439.67C39.7825 440.174 40.5525 440.37 41.5465 440.37C42.8765 440.37 43.7445 439.726 43.7445 438.578C43.7445 436.016 38.7745 436.688 38.7745 433.566C38.7745 431.928 40.0765 431.046 41.6725 431.046C42.5405 431.046 43.2545 431.242 43.9965 431.69V432.488C43.2685 432.04 42.5825 431.83 41.7285 431.83C40.5105 431.83 39.6145 432.404 39.6145 433.538C39.6145 435.974 44.5845 435.414 44.5845 438.522C44.5845 440.286 43.2825 441.154 41.6025 441.154ZM46.8197 431.2V440.202H51.0757V441H45.9797V431.2H46.8197Z" fill="black"/>
<path d="M94.766 441.154C92.526 441.154 91.63 439.054 91.63 436.24C91.63 433.426 92.526 431.326 94.766 431.326C96.992 431.326 97.888 433.426 97.888 436.24C97.888 439.054 96.992 441.154 94.766 441.154ZM94.766 440.37C96.348 440.37 97.048 438.872 97.048 436.24C97.048 433.622 96.348 432.11 94.766 432.11C93.17 432.11 92.47 433.622 92.47 436.24C92.47 438.872 93.17 440.37 94.766 440.37ZM107.864 441.154C105.624 441.154 104.728 439.054 104.728 436.24C104.728 433.426 105.624 431.326 107.864 431.326C110.09 431.326 110.986 433.426 110.986 436.24C110.986 439.054 110.09 441.154 107.864 441.154ZM107.864 440.37C109.446 440.37 110.146 438.872 110.146 436.24C110.146 433.622 109.446 432.11 107.864 432.11C106.268 432.11 105.568 433.622 105.568 436.24C105.568 438.872 106.268 440.37 107.864 440.37ZM117.699 441V440.202H119.505V432.376L117.755 433.132V432.348L119.729 431.48H120.331V440.202H121.983V441H117.699ZM125.746 441.154C123.506 441.154 122.61 439.054 122.61 436.24C122.61 433.426 123.506 431.326 125.746 431.326C127.972 431.326 128.868 433.426 128.868 436.24C128.868 439.054 127.972 441.154 125.746 441.154ZM125.746 440.37C127.328 440.37 128.028 438.872 128.028 436.24C128.028 433.622 127.328 432.11 125.746 432.11C124.15 432.11 123.45 433.622 123.45 436.24C123.45 438.872 124.15 440.37 125.746 440.37ZM133.266 441.154C131.026 441.154 130.13 439.054 130.13 436.24C130.13 433.426 131.026 431.326 133.266 431.326C135.492 431.326 136.388 433.426 136.388 436.24C136.388 439.054 135.492 441.154 133.266 441.154ZM133.266 440.37C134.848 440.37 135.548 438.872 135.548 436.24C135.548 433.622 134.848 432.11 133.266 432.11C131.67 432.11 130.97 433.622 130.97 436.24C130.97 438.872 131.67 440.37 133.266 440.37Z" fill="black"/>
<rect x="169" y="250" width="118" height="118" rx="11" fill="black" stroke="#111111" stroke-width="2"/>
<path d="M181.266 385.2V395H180.426V390.478H175.89V395H175.05V385.2H175.89V389.68H180.426V385.2H181.266ZM183.363 395V385.2H188.403V385.998H184.203V389.666H187.983V390.464H184.203V394.202H188.501V395H183.363ZM188.957 395L192.093 389.932L189.167 385.2H190.091L192.555 389.204L195.019 385.2H195.929L193.017 389.932L196.139 395H195.201L192.555 390.674L189.895 395H188.957Z" fill="black"/>
<path d="M245.05 395L245.526 392.494H244.378V391.794H245.652L246.268 388.672H245.078V387.972H246.394L246.884 385.466H247.654L247.178 387.972H249.516L249.992 385.466H250.776L250.286 387.972H251.448V388.672H250.16L249.558 391.794H250.748V392.494H249.432L248.942 395H248.158L248.648 392.494H246.31L245.82 395H245.05ZM246.436 391.794H248.774L249.39 388.672H247.052L246.436 391.794ZM252.324 395V394.202H254.13V386.376L252.38 387.132V386.348L254.354 385.48H254.956V394.202H256.608V395H252.324ZM257.274 395V394.202H259.08V386.376L257.33 387.132V386.348L259.304 385.48H259.906V394.202H261.558V395H257.274ZM262.223 395V394.202H264.029V386.376L262.279 387.132V386.348L264.253 385.48H264.855V394.202H266.507V395H262.223ZM267.172 395V394.202H268.978V386.376L267.228 387.132V386.348L269.202 385.48H269.804V394.202H271.456V395H267.172ZM272.121 395V394.202H273.927V386.376L272.177 387.132V386.348L274.151 385.48H274.753V394.202H276.405V395H272.121ZM277.07 395V394.202H278.876V386.376L277.126 387.132V386.348L279.1 385.48H279.702V394.202H281.354V395H277.07Z" fill="black"/>
<path d="M175.05 418V408.2H177.962C179.67 408.2 181.028 409.18 181.028 411.126C181.028 412.568 180.272 413.59 178.914 413.926L181.448 418H180.468L178.032 414.038H175.89V418H175.05ZM175.89 413.254H177.976C179.278 413.254 180.188 412.512 180.188 411.126C180.188 409.726 179.292 408.998 178.004 408.998H175.89V413.254ZM185.969 418.154C183.967 418.154 182.175 416.81 182.175 413.142C182.175 409.866 183.953 408.046 186.179 408.046C186.977 408.046 187.663 408.186 188.251 408.564V409.362C187.635 408.984 187.005 408.83 186.277 408.83C184.387 408.83 183.015 410.398 183.015 413.142C183.015 416.166 184.387 417.37 186.053 417.37C186.739 417.37 187.201 417.258 187.691 416.936V412.834H188.517V417.412C187.845 417.902 187.061 418.154 185.969 418.154ZM193.054 408.2C194.832 408.2 195.896 408.984 195.896 410.664C195.896 412.008 195.14 412.652 194.468 412.862C195.182 413.03 196.274 413.66 196.288 415.34C196.274 417.608 194.356 418 193.068 418H190.212V408.2H193.054ZM192.984 408.998H191.052V412.512H193.208C194.244 412.512 195.056 411.994 195.056 410.776C195.056 409.46 194.342 408.998 192.984 408.998ZM193.166 413.296H191.052V417.202H192.914C194.076 417.202 195.434 417.062 195.448 415.256C195.434 413.52 194.076 413.296 193.166 413.296Z" fill="black"/>
<path d="M239.504 418V417.202H241.31V409.376L239.56 410.132V409.348L241.534 408.48H242.136V417.202H243.788V418H239.504ZM249.192 408.48V409.222L246.21 418H245.37L248.338 409.278H243.914V408.48H249.192ZM255.555 418V417.202H257.361V409.376L255.611 410.132V409.348L257.585 408.48H258.187V417.202H259.839V418H255.555ZM265.243 408.48V409.222L262.261 418H261.421L264.389 409.278H259.965V408.48H265.243ZM271.606 418V417.202H273.412V409.376L271.662 410.132V409.348L273.636 408.48H274.238V417.202H275.89V418H271.606ZM281.293 408.48V409.222L278.311 418H277.471L280.439 409.278H276.015V408.48H281.293Z" fill="black"/>
<path d="M181.266 431.2V441H180.426V436.478H175.89V441H175.05V431.2H175.89V435.68H180.426V431.2H181.266ZM185.603 441.154C184.567 441.154 183.755 440.986 182.943 440.468V439.67C183.783 440.174 184.553 440.37 185.547 440.37C186.877 440.37 187.745 439.726 187.745 438.578C187.745 436.016 182.774 436.688 182.774 433.566C182.774 431.928 184.077 431.046 185.673 431.046C186.541 431.046 187.255 431.242 187.997 431.69V432.488C187.269 432.04 186.583 431.83 185.729 431.83C184.511 431.83 183.615 432.404 183.615 433.538C183.615 435.974 188.585 435.414 188.585 438.522C188.585 440.286 187.283 441.154 185.603 441.154ZM190.82 431.2V440.202H195.076V441H189.98V431.2H190.82Z" fill="black"/>
<path d="M253.766 441.154C251.526 441.154 250.63 439.054 250.63 436.24C250.63 433.426 251.526 431.326 253.766 431.326C255.992 431.326 256.888 433.426 256.888 436.24C256.888 439.054 255.992 441.154 253.766 441.154ZM253.766 440.37C255.348 440.37 256.048 438.872 256.048 436.24C256.048 433.622 255.348 432.11 253.766 432.11C252.17 432.11 251.47 433.622 251.47 436.24C251.47 438.872 252.17 440.37 253.766 440.37ZM266.864 441.154C264.624 441.154 263.728 439.054 263.728 436.24C263.728 433.426 264.624 431.326 266.864 431.326C269.09 431.326 269.986 433.426 269.986 436.24C269.986 439.054 269.09 441.154 266.864 441.154ZM266.864 440.37C268.446 440.37 269.146 438.872 269.146 436.24C269.146 433.622 268.446 432.11 266.864 432.11C265.268 432.11 264.568 433.622 264.568 436.24C264.568 438.872 265.268 440.37 266.864 440.37ZM281.711 431.48V432.222L278.729 441H277.889L280.857 432.278H276.433V431.48H281.711Z" fill="black"/>
</svg>
