<svg width="374" height="493" viewBox="0 0 374 493" fill="none" xmlns="http://www.w3.org/2000/svg">
<path d="M26.957 37.2H37.581C41.2077 37.2 43.853 38.0533 45.517 39.76C47.181 41.424 48.013 44.0053 48.013 47.504V49.296C48.013 51.6 47.629 53.4773 46.861 54.928C46.1357 56.3787 45.005 57.424 43.469 58.064V58.192C46.9677 59.3867 48.717 62.5013 48.717 67.536V71.376C48.717 74.832 47.7997 77.4773 45.965 79.312C44.173 81.104 41.5277 82 38.029 82H26.957V37.2ZM36.749 55.44C38.157 55.44 39.2023 55.0773 39.885 54.352C40.6103 53.6267 40.973 52.4107 40.973 50.704V48.208C40.973 46.5867 40.6743 45.4133 40.077 44.688C39.5223 43.9627 38.6263 43.6 37.389 43.6H33.997V55.44H36.749ZM38.029 75.6C39.2663 75.6 40.1837 75.28 40.781 74.64C41.3783 73.9573 41.677 72.8053 41.677 71.184V67.28C41.677 65.232 41.3143 63.824 40.589 63.056C39.9063 62.2453 38.7543 61.84 37.133 61.84H33.997V75.6H38.029ZM52.832 37.2H72.032V43.6H59.872V55.44H69.536V61.84H59.872V75.6H72.032V82H52.832V37.2ZM76.082 37.2H86.706C90.3327 37.2 92.978 38.0533 94.642 39.76C96.306 41.424 97.138 44.0053 97.138 47.504V49.296C97.138 51.6 96.754 53.4773 95.986 54.928C95.2607 56.3787 94.13 57.424 92.594 58.064V58.192C96.0927 59.3867 97.842 62.5013 97.842 67.536V71.376C97.842 74.832 96.9247 77.4773 95.09 79.312C93.298 81.104 90.6527 82 87.154 82H76.082V37.2ZM85.874 55.44C87.282 55.44 88.3273 55.0773 89.01 54.352C89.7353 53.6267 90.098 52.4107 90.098 50.704V48.208C90.098 46.5867 89.7993 45.4133 89.202 44.688C88.6473 43.9627 87.7513 43.6 86.514 43.6H83.122V55.44H85.874ZM87.154 75.6C88.3913 75.6 89.3087 75.28 89.906 74.64C90.5033 73.9573 90.802 72.8053 90.802 71.184V67.28C90.802 65.232 90.4393 63.824 89.714 63.056C89.0313 62.2453 87.8793 61.84 86.258 61.84H83.122V75.6H87.154ZM107.397 37.2H116.933L124.229 82H117.189L115.909 73.104V73.232H107.909L106.629 82H100.101L107.397 37.2ZM115.077 67.152L111.941 45.008H111.813L108.741 67.152H115.077ZM136.609 82.64C133.196 82.64 130.614 81.68 128.865 79.76C127.116 77.7973 126.241 75.0027 126.241 71.376V68.816H132.897V71.888C132.897 74.7893 134.113 76.24 136.545 76.24C137.74 76.24 138.636 75.8987 139.233 75.216C139.873 74.4907 140.193 73.3387 140.193 71.76C140.193 69.8827 139.766 68.24 138.913 66.832C138.06 65.3813 136.481 63.6533 134.177 61.648C131.276 59.088 129.249 56.784 128.097 54.736C126.945 52.6453 126.369 50.2987 126.369 47.696C126.369 44.1547 127.265 41.424 129.057 39.504C130.849 37.5413 133.452 36.56 136.865 36.56C140.236 36.56 142.774 37.5413 144.481 39.504C146.23 41.424 147.105 44.1973 147.105 47.824V49.68H140.449V47.376C140.449 45.84 140.15 44.7307 139.553 44.048C138.956 43.3227 138.081 42.96 136.929 42.96C134.582 42.96 133.409 44.3893 133.409 47.248C133.409 48.8693 133.836 50.384 134.689 51.792C135.585 53.2 137.185 54.9067 139.489 56.912C142.433 59.472 144.46 61.7973 145.569 63.888C146.678 65.9787 147.233 68.432 147.233 71.248C147.233 74.9173 146.316 77.7333 144.481 79.696C142.689 81.6587 140.065 82.64 136.609 82.64ZM161.52 37.2H170.352L177.2 64.016H177.328V37.2H183.6V82H176.368L167.92 49.296H167.792V82H161.52V37.2ZM188.832 37.2H208.032V43.6H195.872V55.44H205.536V61.84H195.872V75.6H208.032V82H188.832V37.2ZM222.322 82.64C218.909 82.64 216.306 81.68 214.514 79.76C212.722 77.7973 211.826 75.0027 211.826 71.376V37.2H218.866V71.888C218.866 73.424 219.165 74.5333 219.762 75.216C220.402 75.8987 221.298 76.24 222.45 76.24C223.602 76.24 224.477 75.8987 225.074 75.216C225.714 74.5333 226.034 73.424 226.034 71.888V37.2H232.818V71.376C232.818 75.0027 231.922 77.7973 230.13 79.76C228.338 81.68 225.735 82.64 222.322 82.64ZM237.832 37.2H257.032V43.6H244.872V55.44H254.536V61.84H244.872V75.6H257.032V82H237.832V37.2Z" fill="black"/>
<path d="M25.645 119.6H30.861C32.6743 119.6 33.997 120.027 34.829 120.88C35.661 121.712 36.077 123.003 36.077 124.752V126.128C36.077 128.453 35.309 129.925 33.773 130.544V130.608C34.6263 130.864 35.2237 131.387 35.565 132.176C35.9277 132.965 36.109 134.021 36.109 135.344V139.28C36.109 139.92 36.1303 140.443 36.173 140.848C36.2157 141.232 36.3223 141.616 36.493 142H32.909C32.781 141.637 32.6957 141.296 32.653 140.976C32.6103 140.656 32.589 140.08 32.589 139.248V135.152C32.589 134.128 32.4183 133.413 32.077 133.008C31.757 132.603 31.1917 132.4 30.381 132.4H29.165V142H25.645V119.6ZM30.445 129.2C31.149 129.2 31.6717 129.019 32.013 128.656C32.3757 128.293 32.557 127.685 32.557 126.832V125.104C32.557 124.293 32.4077 123.707 32.109 123.344C31.8317 122.981 31.3837 122.8 30.765 122.8H29.165V129.2H30.445ZM38.5513 119.6H48.1513V122.8H42.0713V128.72H46.9033V131.92H42.0713V138.8H48.1513V142H38.5513V119.6ZM55.1683 142.32C53.4616 142.32 52.1603 141.84 51.2643 140.88C50.3683 139.899 49.9203 138.501 49.9203 136.688V124.912C49.9203 123.099 50.3683 121.712 51.2643 120.752C52.1603 119.771 53.4616 119.28 55.1683 119.28C56.8749 119.28 58.1763 119.771 59.0723 120.752C59.9683 121.712 60.4163 123.099 60.4163 124.912V126.832H57.0883V124.688C57.0883 123.216 56.4803 122.48 55.2643 122.48C54.0483 122.48 53.4403 123.216 53.4403 124.688V136.944C53.4403 138.395 54.0483 139.12 55.2643 139.12C56.4803 139.12 57.0883 138.395 57.0883 136.944V132.56H55.3283V129.36H60.4163V136.688C60.4163 138.501 59.9683 139.899 59.0723 140.88C58.1763 141.84 56.8749 142.32 55.1683 142.32ZM67.7963 142.32C66.0896 142.32 64.7883 141.84 63.8923 140.88C62.9963 139.899 62.5483 138.501 62.5483 136.688V119.6H66.0683V136.944C66.0683 137.712 66.2176 138.267 66.5163 138.608C66.8363 138.949 67.2843 139.12 67.8603 139.12C68.4363 139.12 68.8736 138.949 69.1723 138.608C69.4923 138.267 69.6523 137.712 69.6523 136.944V119.6H73.0443V136.688C73.0443 138.501 72.5963 139.899 71.7003 140.88C70.8043 141.84 69.5029 142.32 67.7963 142.32ZM75.5513 119.6H79.0713V138.8H84.8633V142H75.5513V119.6ZM89.3963 119.6H94.1643L97.8123 142H94.2923L93.6523 137.552V137.616H89.6523L89.0123 142H85.7483L89.3963 119.6ZM93.2363 134.576L91.6683 123.504H91.6043L90.0683 134.576H93.2363ZM99.52 119.6H104.736C106.549 119.6 107.872 120.027 108.704 120.88C109.536 121.712 109.952 123.003 109.952 124.752V126.128C109.952 128.453 109.184 129.925 107.648 130.544V130.608C108.501 130.864 109.099 131.387 109.44 132.176C109.803 132.965 109.984 134.021 109.984 135.344V139.28C109.984 139.92 110.005 140.443 110.048 140.848C110.091 141.232 110.197 141.616 110.368 142H106.784C106.656 141.637 106.571 141.296 106.528 140.976C106.485 140.656 106.464 140.08 106.464 139.248V135.152C106.464 134.128 106.293 133.413 105.952 133.008C105.632 132.603 105.067 132.4 104.256 132.4H103.04V142H99.52V119.6ZM104.32 129.2C105.024 129.2 105.547 129.019 105.888 128.656C106.251 128.293 106.432 127.685 106.432 126.832V125.104C106.432 124.293 106.283 123.707 105.984 123.344C105.707 122.981 105.259 122.8 104.64 122.8H103.04V129.2H104.32Z" fill="#767676"/>
<rect x="1.33301" y="1" width="371.333" height="173" rx="11" stroke="black" stroke-width="2"/>
<path d="M28.3955 257.5H45.3643C48.8434 257.5 51.833 258.021 54.333 259.062C56.8538 260.104 58.7913 261.646 60.1455 263.688C61.4997 265.729 62.1768 268.24 62.1768 271.219C62.1768 273.656 61.7601 275.75 60.9268 277.5C60.1143 279.229 58.958 280.677 57.458 281.844C55.9788 282.99 54.2393 283.906 52.2393 284.594L49.2705 286.156H34.5205L34.458 278.844H45.4268C47.0726 278.844 48.4372 278.552 49.5205 277.969C50.6038 277.385 51.4163 276.573 51.958 275.531C52.5205 274.49 52.8018 273.281 52.8018 271.906C52.8018 270.448 52.5309 269.188 51.9893 268.125C51.4476 267.062 50.6247 266.25 49.5205 265.688C48.4163 265.125 47.0309 264.844 45.3643 264.844H37.7705V303H28.3955V257.5ZM53.833 303L43.458 282.719L53.3643 282.656L63.8643 302.562V303H53.833ZM67.3955 286.438V285.781C67.3955 283.302 67.7497 281.021 68.458 278.938C69.1663 276.833 70.1976 275.01 71.5518 273.469C72.9059 271.927 74.5726 270.729 76.5518 269.875C78.5309 269 80.8018 268.562 83.3643 268.562C85.9268 268.562 88.208 269 90.208 269.875C92.208 270.729 93.8851 271.927 95.2393 273.469C96.6143 275.01 97.6559 276.833 98.3643 278.938C99.0726 281.021 99.4268 283.302 99.4268 285.781V286.438C99.4268 288.896 99.0726 291.177 98.3643 293.281C97.6559 295.365 96.6143 297.188 95.2393 298.75C93.8851 300.292 92.2184 301.49 90.2393 302.344C88.2601 303.198 85.9893 303.625 83.4268 303.625C80.8643 303.625 78.583 303.198 76.583 302.344C74.6038 301.49 72.9268 300.292 71.5518 298.75C70.1976 297.188 69.1663 295.365 68.458 293.281C67.7497 291.177 67.3955 288.896 67.3955 286.438ZM76.3955 285.781V286.438C76.3955 287.854 76.5205 289.177 76.7705 290.406C77.0205 291.635 77.4163 292.719 77.958 293.656C78.5205 294.573 79.2497 295.292 80.1455 295.812C81.0413 296.333 82.1351 296.594 83.4268 296.594C84.6768 296.594 85.7497 296.333 86.6455 295.812C87.5413 295.292 88.2601 294.573 88.8018 293.656C89.3434 292.719 89.7393 291.635 89.9893 290.406C90.2601 289.177 90.3955 287.854 90.3955 286.438V285.781C90.3955 284.406 90.2601 283.115 89.9893 281.906C89.7393 280.677 89.333 279.594 88.7705 278.656C88.2288 277.698 87.5101 276.948 86.6143 276.406C85.7184 275.865 84.6351 275.594 83.3643 275.594C82.0934 275.594 81.0101 275.865 80.1143 276.406C79.2393 276.948 78.5205 277.698 77.958 278.656C77.4163 279.594 77.0205 280.677 76.7705 281.906C76.5205 283.115 76.3955 284.406 76.3955 285.781ZM104.958 255H113.958V295.25L113.052 303H104.958V255ZM135.364 285.75V286.406C135.364 288.927 135.093 291.24 134.552 293.344C134.031 295.448 133.218 297.271 132.114 298.812C131.01 300.333 129.635 301.521 127.989 302.375C126.364 303.208 124.448 303.625 122.239 303.625C120.177 303.625 118.385 303.208 116.864 302.375C115.364 301.542 114.104 300.365 113.083 298.844C112.062 297.323 111.239 295.542 110.614 293.5C109.989 291.458 109.521 289.229 109.208 286.812V285.375C109.521 282.958 109.989 280.729 110.614 278.688C111.239 276.646 112.062 274.865 113.083 273.344C114.104 271.823 115.364 270.646 116.864 269.812C118.364 268.979 120.135 268.562 122.177 268.562C124.406 268.562 126.343 268.99 127.989 269.844C129.656 270.677 131.031 271.865 132.114 273.406C133.218 274.927 134.031 276.74 134.552 278.844C135.093 280.927 135.364 283.229 135.364 285.75ZM126.364 286.406V285.75C126.364 284.375 126.26 283.083 126.052 281.875C125.864 280.646 125.531 279.573 125.052 278.656C124.573 277.719 123.916 276.979 123.083 276.438C122.271 275.896 121.218 275.625 119.927 275.625C118.698 275.625 117.656 275.833 116.802 276.25C115.948 276.667 115.239 277.25 114.677 278C114.135 278.75 113.729 279.646 113.458 280.688C113.187 281.708 113.021 282.833 112.958 284.062V288.156C113.021 289.802 113.291 291.26 113.771 292.531C114.271 293.781 115.021 294.771 116.021 295.5C117.041 296.208 118.364 296.562 119.989 296.562C121.26 296.562 122.312 296.312 123.146 295.812C123.979 295.312 124.625 294.604 125.083 293.688C125.562 292.771 125.896 291.698 126.083 290.469C126.271 289.219 126.364 287.865 126.364 286.406ZM139.521 286.438V285.781C139.521 283.302 139.875 281.021 140.583 278.938C141.291 276.833 142.323 275.01 143.677 273.469C145.031 271.927 146.698 270.729 148.677 269.875C150.656 269 152.927 268.562 155.489 268.562C158.052 268.562 160.333 269 162.333 269.875C164.333 270.729 166.01 271.927 167.364 273.469C168.739 275.01 169.781 276.833 170.489 278.938C171.198 281.021 171.552 283.302 171.552 285.781V286.438C171.552 288.896 171.198 291.177 170.489 293.281C169.781 295.365 168.739 297.188 167.364 298.75C166.01 300.292 164.343 301.49 162.364 302.344C160.385 303.198 158.114 303.625 155.552 303.625C152.989 303.625 150.708 303.198 148.708 302.344C146.729 301.49 145.052 300.292 143.677 298.75C142.323 297.188 141.291 295.365 140.583 293.281C139.875 291.177 139.521 288.896 139.521 286.438ZM148.521 285.781V286.438C148.521 287.854 148.646 289.177 148.896 290.406C149.146 291.635 149.541 292.719 150.083 293.656C150.646 294.573 151.375 295.292 152.271 295.812C153.166 296.333 154.26 296.594 155.552 296.594C156.802 296.594 157.875 296.333 158.771 295.812C159.666 295.292 160.385 294.573 160.927 293.656C161.468 292.719 161.864 291.635 162.114 290.406C162.385 289.177 162.521 287.854 162.521 286.438V285.781C162.521 284.406 162.385 283.115 162.114 281.906C161.864 280.677 161.458 279.594 160.896 278.656C160.354 277.698 159.635 276.948 158.739 276.406C157.843 275.865 156.76 275.594 155.489 275.594C154.218 275.594 153.135 275.865 152.239 276.406C151.364 276.948 150.646 277.698 150.083 278.656C149.541 279.594 149.146 280.677 148.896 281.906C148.646 283.115 148.521 284.406 148.521 285.781ZM193.646 269.188V275.562H173.958V269.188H193.646ZM178.833 260.844H187.833V292.812C187.833 293.792 187.958 294.542 188.208 295.062C188.479 295.583 188.875 295.948 189.396 296.156C189.916 296.344 190.573 296.438 191.364 296.438C191.927 296.438 192.427 296.417 192.864 296.375C193.323 296.312 193.708 296.25 194.021 296.188L194.052 302.812C193.281 303.062 192.448 303.26 191.552 303.406C190.656 303.552 189.666 303.625 188.583 303.625C186.604 303.625 184.875 303.302 183.396 302.656C181.937 301.99 180.812 300.927 180.021 299.469C179.229 298.01 178.833 296.094 178.833 293.719V260.844ZM196.521 286.438V285.781C196.521 283.302 196.875 281.021 197.583 278.938C198.291 276.833 199.323 275.01 200.677 273.469C202.031 271.927 203.698 270.729 205.677 269.875C207.656 269 209.927 268.562 212.489 268.562C215.052 268.562 217.333 269 219.333 269.875C221.333 270.729 223.01 271.927 224.364 273.469C225.739 275.01 226.781 276.833 227.489 278.938C228.198 281.021 228.552 283.302 228.552 285.781V286.438C228.552 288.896 228.198 291.177 227.489 293.281C226.781 295.365 225.739 297.188 224.364 298.75C223.01 300.292 221.343 301.49 219.364 302.344C217.385 303.198 215.114 303.625 212.552 303.625C209.989 303.625 207.708 303.198 205.708 302.344C203.729 301.49 202.052 300.292 200.677 298.75C199.323 297.188 198.291 295.365 197.583 293.281C196.875 291.177 196.521 288.896 196.521 286.438ZM205.521 285.781V286.438C205.521 287.854 205.646 289.177 205.896 290.406C206.146 291.635 206.541 292.719 207.083 293.656C207.646 294.573 208.375 295.292 209.271 295.812C210.166 296.333 211.26 296.594 212.552 296.594C213.802 296.594 214.875 296.333 215.771 295.812C216.666 295.292 217.385 294.573 217.927 293.656C218.468 292.719 218.864 291.635 219.114 290.406C219.385 289.177 219.521 287.854 219.521 286.438V285.781C219.521 284.406 219.385 283.115 219.114 281.906C218.864 280.677 218.458 279.594 217.896 278.656C217.354 277.698 216.635 276.948 215.739 276.406C214.843 275.865 213.76 275.594 212.489 275.594C211.218 275.594 210.135 275.865 209.239 276.406C208.364 276.948 207.646 277.698 207.083 278.656C206.541 279.594 206.146 280.677 205.896 281.906C205.646 283.115 205.521 284.406 205.521 285.781Z" fill="black"/>
<path d="M26.9736 338.25H34.5049C36.2132 338.25 37.6559 338.51 38.833 339.031C40.0205 339.552 40.9215 340.323 41.5361 341.344C42.1611 342.354 42.4736 343.599 42.4736 345.078C42.4736 346.12 42.2601 347.073 41.833 347.938C41.4163 348.792 40.8122 349.521 40.0205 350.125C39.2393 350.719 38.3018 351.161 37.208 351.453L36.3643 351.781H29.2861L29.2549 349.328H34.5986C35.682 349.328 36.583 349.141 37.3018 348.766C38.0205 348.38 38.5622 347.865 38.9268 347.219C39.2913 346.573 39.4736 345.859 39.4736 345.078C39.4736 344.203 39.3018 343.438 38.958 342.781C38.6143 342.125 38.0726 341.62 37.333 341.266C36.6038 340.901 35.6611 340.719 34.5049 340.719H29.9893V361H26.9736V338.25ZM40.2705 361L34.7393 350.688L37.8799 350.672L43.4893 360.812V361H40.2705ZM53.2705 361.312C52.0934 361.312 51.0257 361.115 50.0674 360.719C49.1195 360.312 48.3018 359.745 47.6143 359.016C46.9372 358.286 46.4163 357.422 46.0518 356.422C45.6872 355.422 45.5049 354.328 45.5049 353.141V352.484C45.5049 351.109 45.708 349.885 46.1143 348.812C46.5205 347.729 47.0726 346.812 47.7705 346.062C48.4684 345.312 49.2601 344.745 50.1455 344.359C51.0309 343.974 51.9476 343.781 52.8955 343.781C54.1038 343.781 55.1455 343.99 56.0205 344.406C56.9059 344.823 57.6299 345.406 58.1924 346.156C58.7549 346.896 59.1715 347.771 59.4424 348.781C59.7132 349.781 59.8486 350.875 59.8486 352.062V353.359H47.2236V351H56.958V350.781C56.9163 350.031 56.7601 349.302 56.4893 348.594C56.2288 347.885 55.8122 347.302 55.2393 346.844C54.6663 346.385 53.8851 346.156 52.8955 346.156C52.2393 346.156 51.6351 346.297 51.083 346.578C50.5309 346.849 50.057 347.255 49.6611 347.797C49.2653 348.339 48.958 349 48.7393 349.781C48.5205 350.562 48.4111 351.464 48.4111 352.484V353.141C48.4111 353.943 48.5205 354.698 48.7393 355.406C48.9684 356.104 49.2965 356.719 49.7236 357.25C50.1611 357.781 50.6872 358.198 51.3018 358.5C51.9268 358.802 52.6351 358.953 53.4268 358.953C54.4476 358.953 55.3122 358.745 56.0205 358.328C56.7288 357.911 57.3486 357.354 57.8799 356.656L59.6299 358.047C59.2653 358.599 58.8018 359.125 58.2393 359.625C57.6768 360.125 56.984 360.531 56.1611 360.844C55.3486 361.156 54.3851 361.312 53.2705 361.312ZM74.1768 344.094H76.8018V360.641C76.8018 362.13 76.4997 363.401 75.8955 364.453C75.2913 365.505 74.4476 366.302 73.3643 366.844C72.2913 367.396 71.0518 367.672 69.6455 367.672C69.0622 367.672 68.3747 367.578 67.583 367.391C66.8018 367.214 66.0309 366.906 65.2705 366.469C64.5205 366.042 63.8903 365.464 63.3799 364.734L64.8955 363.016C65.6038 363.87 66.3434 364.464 67.1143 364.797C67.8955 365.13 68.6663 365.297 69.4268 365.297C70.3434 365.297 71.1351 365.125 71.8018 364.781C72.4684 364.438 72.984 363.927 73.3486 363.25C73.7236 362.583 73.9111 361.76 73.9111 360.781V347.812L74.1768 344.094ZM62.5361 352.734V352.406C62.5361 351.115 62.6872 349.943 62.9893 348.891C63.3018 347.828 63.7445 346.917 64.3174 346.156C64.9007 345.396 65.6038 344.812 66.4268 344.406C67.2497 343.99 68.1768 343.781 69.208 343.781C70.2705 343.781 71.1976 343.969 71.9893 344.344C72.7913 344.708 73.4684 345.245 74.0205 345.953C74.583 346.651 75.0257 347.495 75.3486 348.484C75.6715 349.474 75.8955 350.594 76.0205 351.844V353.281C75.9059 354.521 75.682 355.635 75.3486 356.625C75.0257 357.615 74.583 358.458 74.0205 359.156C73.4684 359.854 72.7913 360.391 71.9893 360.766C71.1872 361.13 70.2497 361.312 69.1768 361.312C68.1663 361.312 67.2497 361.099 66.4268 360.672C65.6143 360.245 64.9163 359.646 64.333 358.875C63.7497 358.104 63.3018 357.198 62.9893 356.156C62.6872 355.104 62.5361 353.964 62.5361 352.734ZM65.4268 352.406V352.734C65.4268 353.578 65.5101 354.37 65.6768 355.109C65.8538 355.849 66.1195 356.5 66.4736 357.062C66.8382 357.625 67.3018 358.068 67.8643 358.391C68.4268 358.703 69.0986 358.859 69.8799 358.859C70.8382 358.859 71.6299 358.656 72.2549 358.25C72.8799 357.844 73.3747 357.307 73.7393 356.641C74.1143 355.974 74.4059 355.25 74.6143 354.469V350.703C74.4997 350.13 74.3226 349.578 74.083 349.047C73.8538 348.505 73.5518 348.026 73.1768 347.609C72.8122 347.182 72.359 346.844 71.8174 346.594C71.2757 346.344 70.6403 346.219 69.9111 346.219C69.1195 346.219 68.4372 346.385 67.8643 346.719C67.3018 347.042 66.8382 347.49 66.4736 348.062C66.1195 348.625 65.8538 349.281 65.6768 350.031C65.5101 350.771 65.4268 351.562 65.4268 352.406ZM91.5361 357.094V344.094H94.4424V361H91.6768L91.5361 357.094ZM92.083 353.531L93.2861 353.5C93.2861 354.625 93.1663 355.667 92.9268 356.625C92.6976 357.573 92.3226 358.396 91.8018 359.094C91.2809 359.792 90.5986 360.339 89.7549 360.734C88.9111 361.12 87.8851 361.312 86.6768 361.312C85.8538 361.312 85.0986 361.193 84.4111 360.953C83.734 360.714 83.1507 360.344 82.6611 359.844C82.1715 359.344 81.7913 358.693 81.5205 357.891C81.2601 357.089 81.1299 356.125 81.1299 355V344.094H84.0205V355.031C84.0205 355.792 84.1038 356.422 84.2705 356.922C84.4476 357.411 84.682 357.802 84.9736 358.094C85.2757 358.375 85.609 358.573 85.9736 358.688C86.3486 358.802 86.734 358.859 87.1299 358.859C88.359 358.859 89.333 358.625 90.0518 358.156C90.7705 357.677 91.2861 357.036 91.5986 356.234C91.9215 355.422 92.083 354.521 92.083 353.531ZM101.989 337V361H99.083V337H101.989ZM116.599 358.109V349.406C116.599 348.74 116.463 348.161 116.192 347.672C115.932 347.172 115.536 346.786 115.005 346.516C114.474 346.245 113.817 346.109 113.036 346.109C112.307 346.109 111.666 346.234 111.114 346.484C110.573 346.734 110.146 347.062 109.833 347.469C109.531 347.875 109.38 348.312 109.38 348.781H106.489C106.489 348.177 106.646 347.578 106.958 346.984C107.271 346.391 107.718 345.854 108.302 345.375C108.896 344.885 109.604 344.5 110.427 344.219C111.26 343.927 112.187 343.781 113.208 343.781C114.437 343.781 115.521 343.99 116.458 344.406C117.406 344.823 118.146 345.453 118.677 346.297C119.218 347.13 119.489 348.177 119.489 349.438V357.312C119.489 357.875 119.536 358.474 119.63 359.109C119.734 359.745 119.885 360.292 120.083 360.75V361H117.067C116.922 360.667 116.807 360.224 116.724 359.672C116.64 359.109 116.599 358.589 116.599 358.109ZM117.099 350.75L117.13 352.781H114.208C113.385 352.781 112.651 352.849 112.005 352.984C111.359 353.109 110.817 353.302 110.38 353.562C109.942 353.823 109.609 354.151 109.38 354.547C109.151 354.932 109.036 355.385 109.036 355.906C109.036 356.438 109.156 356.922 109.396 357.359C109.635 357.797 109.994 358.146 110.474 358.406C110.963 358.656 111.562 358.781 112.271 358.781C113.156 358.781 113.937 358.594 114.614 358.219C115.291 357.844 115.828 357.385 116.224 356.844C116.63 356.302 116.849 355.776 116.88 355.266L118.114 356.656C118.041 357.094 117.843 357.578 117.521 358.109C117.198 358.641 116.765 359.151 116.224 359.641C115.692 360.12 115.057 360.521 114.317 360.844C113.588 361.156 112.765 361.312 111.849 361.312C110.703 361.312 109.698 361.089 108.833 360.641C107.979 360.193 107.312 359.594 106.833 358.844C106.364 358.083 106.13 357.234 106.13 356.297C106.13 355.391 106.307 354.594 106.661 353.906C107.015 353.208 107.526 352.63 108.192 352.172C108.859 351.703 109.661 351.349 110.599 351.109C111.536 350.87 112.583 350.75 113.739 350.75H117.099ZM126.927 346.75V361H124.036V344.094H126.849L126.927 346.75ZM132.208 344L132.192 346.688C131.953 346.635 131.724 346.604 131.505 346.594C131.297 346.573 131.057 346.562 130.786 346.562C130.119 346.562 129.531 346.667 129.021 346.875C128.51 347.083 128.078 347.375 127.724 347.75C127.369 348.125 127.088 348.573 126.88 349.094C126.682 349.604 126.552 350.167 126.489 350.781L125.677 351.25C125.677 350.229 125.776 349.271 125.974 348.375C126.182 347.479 126.5 346.688 126.927 346C127.354 345.302 127.896 344.76 128.552 344.375C129.218 343.979 130.01 343.781 130.927 343.781C131.135 343.781 131.375 343.807 131.646 343.859C131.916 343.901 132.104 343.948 132.208 344Z" fill="#767676"/>
<path d="M35.2705 401.016H29.4268L29.3955 397.797H34.3018C35.1663 397.797 35.8747 397.688 36.4268 397.469C36.9788 397.24 37.3903 396.911 37.6611 396.484C37.9424 396.047 38.083 395.516 38.083 394.891C38.083 394.182 37.9476 393.609 37.6768 393.172C37.4163 392.734 37.0049 392.417 36.4424 392.219C35.8903 392.021 35.1768 391.922 34.3018 391.922H31.0518V411H26.3643V388.25H34.3018C35.6247 388.25 36.807 388.375 37.8486 388.625C38.9007 388.875 39.7913 389.255 40.5205 389.766C41.2497 390.276 41.807 390.922 42.1924 391.703C42.5778 392.474 42.7705 393.391 42.7705 394.453C42.7705 395.391 42.557 396.255 42.1299 397.047C41.7132 397.839 41.0518 398.484 40.1455 398.984C39.2497 399.484 38.0778 399.76 36.6299 399.812L35.2705 401.016ZM35.0674 411H28.1455L29.9736 407.344H35.0674C35.8903 407.344 36.5622 407.214 37.083 406.953C37.6038 406.682 37.9893 406.318 38.2393 405.859C38.4893 405.401 38.6143 404.875 38.6143 404.281C38.6143 403.615 38.4997 403.036 38.2705 402.547C38.0518 402.057 37.6976 401.682 37.208 401.422C36.7184 401.151 36.0726 401.016 35.2705 401.016H30.7549L30.7861 397.797H36.4111L37.4893 399.062C38.8747 399.042 39.9893 399.286 40.833 399.797C41.6872 400.297 42.307 400.948 42.6924 401.75C43.0882 402.552 43.2861 403.411 43.2861 404.328C43.2861 405.786 42.9684 407.016 42.333 408.016C41.6976 409.005 40.7653 409.75 39.5361 410.25C38.3174 410.75 36.8278 411 35.0674 411ZM45.8018 402.719V402.391C45.8018 401.151 45.9788 400.01 46.333 398.969C46.6872 397.917 47.2028 397.005 47.8799 396.234C48.557 395.464 49.3903 394.865 50.3799 394.438C51.3695 394 52.5049 393.781 53.7861 393.781C55.0674 393.781 56.208 394 57.208 394.438C58.208 394.865 59.0465 395.464 59.7236 396.234C60.4111 397.005 60.932 397.917 61.2861 398.969C61.6403 400.01 61.8174 401.151 61.8174 402.391V402.719C61.8174 403.948 61.6403 405.089 61.2861 406.141C60.932 407.182 60.4111 408.094 59.7236 408.875C59.0465 409.646 58.2132 410.245 57.2236 410.672C56.234 411.099 55.0986 411.312 53.8174 411.312C52.5361 411.312 51.3955 411.099 50.3955 410.672C49.4059 410.245 48.5674 409.646 47.8799 408.875C47.2028 408.094 46.6872 407.182 46.333 406.141C45.9788 405.089 45.8018 403.948 45.8018 402.719ZM50.3018 402.391V402.719C50.3018 403.427 50.3643 404.089 50.4893 404.703C50.6143 405.318 50.8122 405.859 51.083 406.328C51.3643 406.786 51.7288 407.146 52.1768 407.406C52.6247 407.667 53.1715 407.797 53.8174 407.797C54.4424 407.797 54.9788 407.667 55.4268 407.406C55.8747 407.146 56.234 406.786 56.5049 406.328C56.7757 405.859 56.9736 405.318 57.0986 404.703C57.234 404.089 57.3018 403.427 57.3018 402.719V402.391C57.3018 401.703 57.234 401.057 57.0986 400.453C56.9736 399.839 56.7705 399.297 56.4893 398.828C56.2184 398.349 55.859 397.974 55.4111 397.703C54.9632 397.432 54.4215 397.297 53.7861 397.297C53.1507 397.297 52.609 397.432 52.1611 397.703C51.7236 397.974 51.3643 398.349 51.083 398.828C50.8122 399.297 50.6143 399.839 50.4893 400.453C50.3643 401.057 50.3018 401.703 50.3018 402.391ZM69.333 387V411H64.8174V387H69.333ZM83.0361 407.312V387H87.5674V411H83.4893L83.0361 407.312ZM72.3486 402.75V402.422C72.3486 401.13 72.4945 399.958 72.7861 398.906C73.0778 397.844 73.5049 396.932 74.0674 396.172C74.6299 395.411 75.3226 394.823 76.1455 394.406C76.9684 393.99 77.9059 393.781 78.958 393.781C79.9476 393.781 80.8122 393.99 81.5518 394.406C82.3018 394.823 82.9372 395.417 83.458 396.188C83.9893 396.948 84.4163 397.849 84.7393 398.891C85.0622 399.922 85.2965 401.052 85.4424 402.281V403C85.2965 404.177 85.0622 405.271 84.7393 406.281C84.4163 407.292 83.9893 408.177 83.458 408.938C82.9372 409.688 82.3018 410.271 81.5518 410.688C80.8018 411.104 79.9268 411.312 78.9268 411.312C77.8747 411.312 76.9372 411.099 76.1143 410.672C75.3018 410.245 74.6143 409.646 74.0518 408.875C73.4997 408.104 73.0778 407.198 72.7861 406.156C72.4945 405.115 72.3486 403.979 72.3486 402.75ZM76.8486 402.422V402.75C76.8486 403.448 76.9007 404.099 77.0049 404.703C77.1195 405.307 77.3018 405.844 77.5518 406.312C77.8122 406.771 78.1455 407.13 78.5518 407.391C78.9684 407.641 79.4736 407.766 80.0674 407.766C80.8382 407.766 81.4736 407.594 81.9736 407.25C82.4736 406.896 82.8538 406.411 83.1143 405.797C83.3851 405.182 83.5413 404.474 83.583 403.672V401.625C83.5518 400.969 83.458 400.38 83.3018 399.859C83.1559 399.328 82.9372 398.875 82.6455 398.5C82.3643 398.125 82.0101 397.833 81.583 397.625C81.1663 397.417 80.6715 397.312 80.0986 397.312C79.5153 397.312 79.0153 397.448 78.5986 397.719C78.182 397.979 77.8434 398.339 77.583 398.797C77.333 399.255 77.1455 399.797 77.0205 400.422C76.9059 401.036 76.8486 401.703 76.8486 402.422Z" fill="#767676"/>
<path d="M41.0518 453.781C40.9268 456.219 40.2393 458.083 38.9893 459.375C37.7497 460.667 35.9945 461.312 33.7236 461.312C31.4424 461.312 29.6299 460.448 28.2861 458.719C26.9424 456.979 26.2705 454.625 26.2705 451.656V447.531C26.2705 444.573 26.958 442.234 28.333 440.516C29.7184 438.797 31.6038 437.938 33.9893 437.938C36.1872 437.938 37.8851 438.599 39.083 439.922C40.2913 441.234 40.9476 443.115 41.0518 445.562H38.1611C38.0361 443.708 37.6455 442.385 36.9893 441.594C36.333 440.802 35.333 440.406 33.9893 440.406C32.4372 440.406 31.2445 441.016 30.4111 442.234C29.5778 443.443 29.1611 445.219 29.1611 447.562V451.734C29.1611 454.036 29.5465 455.802 30.3174 457.031C31.0986 458.26 32.234 458.875 33.7236 458.875C35.2132 458.875 36.2861 458.505 36.9424 457.766C37.5986 457.026 38.0049 455.698 38.1611 453.781H41.0518ZM43.9736 451.766C43.9736 449.307 44.5674 447.365 45.7549 445.938C46.9528 444.5 48.5309 443.781 50.4893 443.781C52.4476 443.781 54.0205 444.479 55.208 445.875C56.4059 447.271 57.0205 449.172 57.0518 451.578V453.359C57.0518 455.807 56.458 457.745 55.2705 459.172C54.083 460.599 52.4997 461.312 50.5205 461.312C48.5622 461.312 46.9893 460.62 45.8018 459.234C44.6247 457.849 44.0153 455.974 43.9736 453.609V451.766ZM46.7393 453.359C46.7393 455.099 47.0778 456.469 47.7549 457.469C48.4424 458.458 49.3643 458.953 50.5205 458.953C52.958 458.953 54.2132 457.193 54.2861 453.672V451.766C54.2861 450.036 53.9424 448.672 53.2549 447.672C52.5674 446.661 51.6455 446.156 50.4893 446.156C49.3538 446.156 48.4424 446.661 47.7549 447.672C47.0778 448.672 46.7393 450.031 46.7393 451.75V453.359ZM63.2236 444.094L63.3018 445.922C64.3747 444.495 65.7445 443.781 67.4111 443.781C70.4007 443.781 71.9163 445.776 71.958 449.766V461H69.208V449.891C69.208 448.568 68.984 447.63 68.5361 447.078C68.0986 446.516 67.4372 446.234 66.5518 446.234C65.8643 446.234 65.2445 446.464 64.6924 446.922C64.1507 447.38 63.7132 447.979 63.3799 448.719V461H60.6143V444.094H63.2236ZM75.5361 451.781C75.5361 449.177 76.0205 447.193 76.9893 445.828C77.9684 444.464 79.3695 443.781 81.1924 443.781C82.807 443.781 84.0674 444.438 84.9736 445.75V437H87.7393V461H85.208L85.0674 459.188C84.1611 460.604 82.8643 461.312 81.1768 461.312C79.4268 461.312 78.0518 460.635 77.0518 459.281C76.0622 457.917 75.557 455.995 75.5361 453.516V451.781ZM78.3018 453.359C78.3018 455.255 78.583 456.651 79.1455 457.547C79.708 458.432 80.6247 458.875 81.8955 458.875C83.2705 458.875 84.2965 458.182 84.9736 456.797V448.266C84.2653 446.911 83.2445 446.234 81.9111 446.234C80.6403 446.234 79.7236 446.682 79.1611 447.578C78.5986 448.464 78.3122 449.828 78.3018 451.672V453.359ZM98.0361 461.312C95.932 461.312 94.3174 460.688 93.1924 459.438C92.0674 458.177 91.4945 456.333 91.4736 453.906V451.859C91.4736 449.339 92.0205 447.365 93.1143 445.938C94.2184 444.5 95.7549 443.781 97.7236 443.781C99.7028 443.781 101.182 444.411 102.161 445.672C103.14 446.932 103.64 448.896 103.661 451.562V453.375H94.2236V453.766C94.2236 455.578 94.5622 456.896 95.2393 457.719C95.9268 458.542 96.9111 458.953 98.1924 458.953C99.0049 458.953 99.7184 458.802 100.333 458.5C100.958 458.188 101.541 457.698 102.083 457.031L103.521 458.781C102.323 460.469 100.494 461.312 98.0361 461.312ZM97.7236 446.156C96.5778 446.156 95.7288 446.552 95.1768 447.344C94.6247 448.125 94.3122 449.344 94.2393 451H100.896V450.625C100.823 449.021 100.531 447.875 100.021 447.188C99.5205 446.5 98.7549 446.156 97.7236 446.156ZM109.599 444.094L109.677 445.922C110.75 444.495 112.119 443.781 113.786 443.781C116.776 443.781 118.291 445.776 118.333 449.766V461H115.583V449.891C115.583 448.568 115.359 447.63 114.911 447.078C114.474 446.516 113.812 446.234 112.927 446.234C112.239 446.234 111.619 446.464 111.067 446.922C110.526 447.38 110.088 447.979 109.755 448.719V461H106.989V444.094H109.599ZM130.708 456.672C130.708 456.078 130.484 455.568 130.036 455.141C129.588 454.714 128.724 454.214 127.442 453.641C125.953 453.026 124.901 452.5 124.286 452.062C123.682 451.625 123.229 451.13 122.927 450.578C122.625 450.016 122.474 449.349 122.474 448.578C122.474 447.203 122.974 446.062 123.974 445.156C124.984 444.24 126.271 443.781 127.833 443.781C129.479 443.781 130.802 444.26 131.802 445.219C132.802 446.177 133.302 447.406 133.302 448.906H130.552C130.552 448.146 130.297 447.5 129.786 446.969C129.276 446.427 128.625 446.156 127.833 446.156C127.021 446.156 126.38 446.37 125.911 446.797C125.453 447.214 125.224 447.776 125.224 448.484C125.224 449.047 125.39 449.5 125.724 449.844C126.067 450.188 126.885 450.641 128.177 451.203C130.229 452.005 131.625 452.792 132.364 453.562C133.104 454.323 133.474 455.292 133.474 456.469C133.474 457.938 132.968 459.115 131.958 460C130.948 460.875 129.593 461.312 127.896 461.312C126.135 461.312 124.708 460.807 123.614 459.797C122.521 458.786 121.974 457.505 121.974 455.953H124.755C124.786 456.891 125.073 457.625 125.614 458.156C126.156 458.688 126.916 458.953 127.896 458.953C128.812 458.953 129.51 458.75 129.989 458.344C130.468 457.927 130.708 457.37 130.708 456.672ZM143.13 461.312C141.026 461.312 139.411 460.688 138.286 459.438C137.161 458.177 136.588 456.333 136.567 453.906V451.859C136.567 449.339 137.114 447.365 138.208 445.938C139.312 444.5 140.849 443.781 142.817 443.781C144.797 443.781 146.276 444.411 147.255 445.672C148.234 446.932 148.734 448.896 148.755 451.562V453.375H139.317V453.766C139.317 455.578 139.656 456.896 140.333 457.719C141.021 458.542 142.005 458.953 143.286 458.953C144.099 458.953 144.812 458.802 145.427 458.5C146.052 458.188 146.635 457.698 147.177 457.031L148.614 458.781C147.416 460.469 145.588 461.312 143.13 461.312ZM142.817 446.156C141.672 446.156 140.823 446.552 140.271 447.344C139.718 448.125 139.406 449.344 139.333 451H145.989V450.625C145.916 449.021 145.625 447.875 145.114 447.188C144.614 446.5 143.849 446.156 142.817 446.156ZM151.505 451.781C151.505 449.177 151.989 447.193 152.958 445.828C153.937 444.464 155.338 443.781 157.161 443.781C158.776 443.781 160.036 444.438 160.942 445.75V437H163.708V461H161.177L161.036 459.188C160.13 460.604 158.833 461.312 157.146 461.312C155.396 461.312 154.021 460.635 153.021 459.281C152.031 457.917 151.526 455.995 151.505 453.516V451.781ZM154.271 453.359C154.271 455.255 154.552 456.651 155.114 457.547C155.677 458.432 156.593 458.875 157.864 458.875C159.239 458.875 160.265 458.182 160.942 456.797V448.266C160.234 446.911 159.213 446.234 157.88 446.234C156.609 446.234 155.692 446.682 155.13 447.578C154.567 448.464 154.281 449.828 154.271 451.672V453.359Z" fill="#767676"/>
<rect x="1.33301" y="221" width="371.333" height="271" rx="11" stroke="black" stroke-width="2"/>
</svg>
