<svg width="313" height="373" viewBox="0 0 313 373" fill="none" xmlns="http://www.w3.org/2000/svg">
<rect x="1.66699" y="1.7832" width="310" height="45" rx="11" fill="#EE8A74"/>
<path d="M23.5029 24.543H19.8506L19.8311 22.5312H22.8975C23.4378 22.5312 23.8805 22.4629 24.2256 22.3262C24.5706 22.1829 24.8278 21.9779 24.9971 21.7109C25.1729 21.4375 25.2607 21.1055 25.2607 20.7148C25.2607 20.2721 25.1761 19.9141 25.0068 19.6406C24.8441 19.3672 24.5869 19.1686 24.2354 19.0449C23.8903 18.9212 23.4443 18.8594 22.8975 18.8594H20.8662V30.7832H17.9365V16.5645H22.8975C23.7243 16.5645 24.4632 16.6426 25.1143 16.7988C25.7718 16.9551 26.3285 17.1927 26.7842 17.5117C27.2399 17.8307 27.5882 18.2344 27.8291 18.7227C28.07 19.2044 28.1904 19.7773 28.1904 20.4414C28.1904 21.0273 28.057 21.5677 27.79 22.0625C27.5296 22.5573 27.1162 22.9609 26.5498 23.2734C25.9899 23.5859 25.2575 23.7585 24.3525 23.791L23.5029 24.543ZM23.376 30.7832H19.0498L20.1924 28.498H23.376C23.8903 28.498 24.3102 28.4167 24.6357 28.2539C24.9613 28.0846 25.2021 27.8568 25.3584 27.5703C25.5146 27.2839 25.5928 26.9551 25.5928 26.584C25.5928 26.1673 25.5212 25.806 25.3779 25.5C25.2412 25.194 25.0199 24.9596 24.7139 24.7969C24.4079 24.6276 24.0042 24.543 23.5029 24.543H20.6807L20.7002 22.5312H24.2158L24.8896 23.3223C25.7555 23.3092 26.4521 23.4622 26.9795 23.7812C27.5133 24.0938 27.9007 24.5007 28.1416 25.002C28.389 25.5033 28.5127 26.0404 28.5127 26.6133C28.5127 27.5247 28.3141 28.293 27.917 28.918C27.5199 29.5365 26.9372 30.002 26.1689 30.3145C25.4072 30.627 24.4762 30.7832 23.376 30.7832ZM36.7842 28.2539V20.2168H39.5967V30.7832H36.9502L36.7842 28.2539ZM37.0967 26.0859L37.9268 26.0664C37.9268 26.7695 37.8454 27.4238 37.6826 28.0293C37.5199 28.6283 37.2757 29.1491 36.9502 29.5918C36.6247 30.028 36.2145 30.3698 35.7197 30.6172C35.2249 30.8581 34.6423 30.9785 33.9717 30.9785C33.4574 30.9785 32.9821 30.9069 32.5459 30.7637C32.1162 30.6139 31.7451 30.3828 31.4326 30.0703C31.1266 29.7513 30.8857 29.3444 30.71 28.8496C30.5407 28.3483 30.4561 27.7461 30.4561 27.043V20.2168H33.2686V27.0625C33.2686 27.375 33.3044 27.6387 33.376 27.8535C33.4541 28.0684 33.5615 28.2441 33.6982 28.3809C33.835 28.5176 33.9945 28.6152 34.1768 28.6738C34.3656 28.7324 34.5739 28.7617 34.8018 28.7617C35.3812 28.7617 35.8369 28.6445 36.1689 28.4102C36.5075 28.1758 36.7451 27.8568 36.8818 27.4531C37.0251 27.043 37.0967 26.5872 37.0967 26.0859ZM46.9209 20.2168V22.209H40.7686V20.2168H46.9209ZM42.292 17.6094H45.1045V27.5996C45.1045 27.9056 45.1436 28.14 45.2217 28.3027C45.3063 28.4655 45.43 28.5794 45.5928 28.6445C45.7555 28.7031 45.9606 28.7324 46.208 28.7324C46.3838 28.7324 46.54 28.7259 46.6768 28.7129C46.82 28.6934 46.9404 28.6738 47.0381 28.6543L47.0479 30.7246C46.807 30.8027 46.5465 30.8646 46.2666 30.9102C45.9867 30.9557 45.6774 30.9785 45.3389 30.9785C44.7204 30.9785 44.18 30.8776 43.7178 30.6758C43.262 30.4674 42.9105 30.1354 42.6631 29.6797C42.4157 29.224 42.292 28.625 42.292 27.8828V17.6094ZM53.6982 20.2168V22.209H47.5459V20.2168H53.6982ZM49.0693 17.6094H51.8818V27.5996C51.8818 27.9056 51.9209 28.14 51.999 28.3027C52.0837 28.4655 52.2074 28.5794 52.3701 28.6445C52.5329 28.7031 52.738 28.7324 52.9854 28.7324C53.1611 28.7324 53.3174 28.7259 53.4541 28.7129C53.5973 28.6934 53.7178 28.6738 53.8154 28.6543L53.8252 30.7246C53.5843 30.8027 53.3239 30.8646 53.0439 30.9102C52.764 30.9557 52.4548 30.9785 52.1162 30.9785C51.4977 30.9785 50.9574 30.8776 50.4951 30.6758C50.0394 30.4674 49.6878 30.1354 49.4404 29.6797C49.193 29.224 49.0693 28.625 49.0693 27.8828V17.6094ZM54.5967 25.6074V25.4023C54.5967 24.6276 54.7074 23.9147 54.9287 23.2637C55.1501 22.6061 55.4723 22.0365 55.8955 21.5547C56.3187 21.0729 56.8395 20.6986 57.458 20.4316C58.0765 20.1582 58.7861 20.0215 59.5869 20.0215C60.3877 20.0215 61.1006 20.1582 61.7256 20.4316C62.3506 20.6986 62.8747 21.0729 63.2979 21.5547C63.7275 22.0365 64.0531 22.6061 64.2744 23.2637C64.4958 23.9147 64.6064 24.6276 64.6064 25.4023V25.6074C64.6064 26.3757 64.4958 27.0885 64.2744 27.7461C64.0531 28.3971 63.7275 28.9668 63.2979 29.4551C62.8747 29.9368 62.3538 30.3112 61.7354 30.5781C61.1169 30.8451 60.4072 30.9785 59.6064 30.9785C58.8057 30.9785 58.0928 30.8451 57.4678 30.5781C56.8493 30.3112 56.3252 29.9368 55.8955 29.4551C55.4723 28.9668 55.1501 28.3971 54.9287 27.7461C54.7074 27.0885 54.5967 26.3757 54.5967 25.6074ZM57.4092 25.4023V25.6074C57.4092 26.0501 57.4482 26.4635 57.5264 26.8477C57.6045 27.2318 57.7282 27.5703 57.8975 27.8633C58.0732 28.1497 58.3011 28.3743 58.5811 28.5371C58.861 28.6999 59.2028 28.7812 59.6064 28.7812C59.9971 28.7812 60.3324 28.6999 60.6123 28.5371C60.8923 28.3743 61.1169 28.1497 61.2861 27.8633C61.4554 27.5703 61.5791 27.2318 61.6572 26.8477C61.7419 26.4635 61.7842 26.0501 61.7842 25.6074V25.4023C61.7842 24.9727 61.7419 24.569 61.6572 24.1914C61.5791 23.8073 61.4521 23.4688 61.2764 23.1758C61.1071 22.8763 60.8825 22.6419 60.6025 22.4727C60.3226 22.3034 59.984 22.2188 59.5869 22.2188C59.1898 22.2188 58.8512 22.3034 58.5713 22.4727C58.2979 22.6419 58.0732 22.8763 57.8975 23.1758C57.7282 23.4688 57.6045 23.8073 57.5264 24.1914C57.4482 24.569 57.4092 24.9727 57.4092 25.4023ZM69.0889 22.4727V30.7832H66.2764V20.2168H68.9131L69.0889 22.4727ZM68.6787 25.1289H67.917C67.917 24.3477 68.0179 23.6445 68.2197 23.0195C68.4215 22.388 68.7048 21.8509 69.0693 21.4082C69.4339 20.959 69.8669 20.6172 70.3682 20.3828C70.876 20.1419 71.4424 20.0215 72.0674 20.0215C72.5622 20.0215 73.0146 20.0931 73.4248 20.2363C73.835 20.3796 74.1865 20.6074 74.4795 20.9199C74.779 21.2324 75.0068 21.6458 75.1631 22.1602C75.3258 22.6745 75.4072 23.3027 75.4072 24.0449V30.7832H72.5752V24.0352C72.5752 23.5664 72.5101 23.2018 72.3799 22.9414C72.2497 22.681 72.0576 22.4987 71.8037 22.3945C71.5563 22.2839 71.2503 22.2285 70.8857 22.2285C70.5081 22.2285 70.1794 22.3034 69.8994 22.4531C69.626 22.6029 69.3981 22.8112 69.2158 23.0781C69.04 23.3385 68.9066 23.6445 68.8154 23.9961C68.7243 24.3477 68.6787 24.7253 68.6787 25.1289Z" fill="black"/>
<rect x="1.66699" y="1.7832" width="310" height="45" rx="11" stroke="#873422" stroke-width="2"/>
<rect x="1.66699" y="72.7832" width="310" height="46" rx="11" fill="#ABE3CF"/>
<path d="M23.5029 96.043H19.8506L19.8311 94.0312H22.8975C23.4378 94.0312 23.8805 93.9629 24.2256 93.8262C24.5706 93.6829 24.8278 93.4779 24.9971 93.2109C25.1729 92.9375 25.2607 92.6055 25.2607 92.2148C25.2607 91.7721 25.1761 91.4141 25.0068 91.1406C24.8441 90.8672 24.5869 90.6686 24.2354 90.5449C23.8903 90.4212 23.4443 90.3594 22.8975 90.3594H20.8662V102.283H17.9365V88.0645H22.8975C23.7243 88.0645 24.4632 88.1426 25.1143 88.2988C25.7718 88.4551 26.3285 88.6927 26.7842 89.0117C27.2399 89.3307 27.5882 89.7344 27.8291 90.2227C28.07 90.7044 28.1904 91.2773 28.1904 91.9414C28.1904 92.5273 28.057 93.0677 27.79 93.5625C27.5296 94.0573 27.1162 94.4609 26.5498 94.7734C25.9899 95.0859 25.2575 95.2585 24.3525 95.291L23.5029 96.043ZM23.376 102.283H19.0498L20.1924 99.998H23.376C23.8903 99.998 24.3102 99.9167 24.6357 99.7539C24.9613 99.5846 25.2021 99.3568 25.3584 99.0703C25.5146 98.7839 25.5928 98.4551 25.5928 98.084C25.5928 97.6673 25.5212 97.306 25.3779 97C25.2412 96.694 25.0199 96.4596 24.7139 96.2969C24.4079 96.1276 24.0042 96.043 23.5029 96.043H20.6807L20.7002 94.0312H24.2158L24.8896 94.8223C25.7555 94.8092 26.4521 94.9622 26.9795 95.2812C27.5133 95.5938 27.9007 96.0007 28.1416 96.502C28.389 97.0033 28.5127 97.5404 28.5127 98.1133C28.5127 99.0247 28.3141 99.793 27.917 100.418C27.5199 101.036 26.9372 101.502 26.1689 101.814C25.4072 102.127 24.4762 102.283 23.376 102.283ZM36.7842 99.7539V91.7168H39.5967V102.283H36.9502L36.7842 99.7539ZM37.0967 97.5859L37.9268 97.5664C37.9268 98.2695 37.8454 98.9238 37.6826 99.5293C37.5199 100.128 37.2757 100.649 36.9502 101.092C36.6247 101.528 36.2145 101.87 35.7197 102.117C35.2249 102.358 34.6423 102.479 33.9717 102.479C33.4574 102.479 32.9821 102.407 32.5459 102.264C32.1162 102.114 31.7451 101.883 31.4326 101.57C31.1266 101.251 30.8857 100.844 30.71 100.35C30.5407 99.8483 30.4561 99.2461 30.4561 98.543V91.7168H33.2686V98.5625C33.2686 98.875 33.3044 99.1387 33.376 99.3535C33.4541 99.5684 33.5615 99.7441 33.6982 99.8809C33.835 100.018 33.9945 100.115 34.1768 100.174C34.3656 100.232 34.5739 100.262 34.8018 100.262C35.3812 100.262 35.8369 100.145 36.1689 99.9102C36.5075 99.6758 36.7451 99.3568 36.8818 98.9531C37.0251 98.543 37.0967 98.0872 37.0967 97.5859ZM46.9209 91.7168V93.709H40.7686V91.7168H46.9209ZM42.292 89.1094H45.1045V99.0996C45.1045 99.4056 45.1436 99.64 45.2217 99.8027C45.3063 99.9655 45.43 100.079 45.5928 100.145C45.7555 100.203 45.9606 100.232 46.208 100.232C46.3838 100.232 46.54 100.226 46.6768 100.213C46.82 100.193 46.9404 100.174 47.0381 100.154L47.0479 102.225C46.807 102.303 46.5465 102.365 46.2666 102.41C45.9867 102.456 45.6774 102.479 45.3389 102.479C44.7204 102.479 44.18 102.378 43.7178 102.176C43.262 101.967 42.9105 101.635 42.6631 101.18C42.4157 100.724 42.292 100.125 42.292 99.3828V89.1094ZM53.6982 91.7168V93.709H47.5459V91.7168H53.6982ZM49.0693 89.1094H51.8818V99.0996C51.8818 99.4056 51.9209 99.64 51.999 99.8027C52.0837 99.9655 52.2074 100.079 52.3701 100.145C52.5329 100.203 52.738 100.232 52.9854 100.232C53.1611 100.232 53.3174 100.226 53.4541 100.213C53.5973 100.193 53.7178 100.174 53.8154 100.154L53.8252 102.225C53.5843 102.303 53.3239 102.365 53.0439 102.41C52.764 102.456 52.4548 102.479 52.1162 102.479C51.4977 102.479 50.9574 102.378 50.4951 102.176C50.0394 101.967 49.6878 101.635 49.4404 101.18C49.193 100.724 49.0693 100.125 49.0693 99.3828V89.1094ZM54.5967 97.1074V96.9023C54.5967 96.1276 54.7074 95.4147 54.9287 94.7637C55.1501 94.1061 55.4723 93.5365 55.8955 93.0547C56.3187 92.5729 56.8395 92.1986 57.458 91.9316C58.0765 91.6582 58.7861 91.5215 59.5869 91.5215C60.3877 91.5215 61.1006 91.6582 61.7256 91.9316C62.3506 92.1986 62.8747 92.5729 63.2979 93.0547C63.7275 93.5365 64.0531 94.1061 64.2744 94.7637C64.4958 95.4147 64.6064 96.1276 64.6064 96.9023V97.1074C64.6064 97.8757 64.4958 98.5885 64.2744 99.2461C64.0531 99.8971 63.7275 100.467 63.2979 100.955C62.8747 101.437 62.3538 101.811 61.7354 102.078C61.1169 102.345 60.4072 102.479 59.6064 102.479C58.8057 102.479 58.0928 102.345 57.4678 102.078C56.8493 101.811 56.3252 101.437 55.8955 100.955C55.4723 100.467 55.1501 99.8971 54.9287 99.2461C54.7074 98.5885 54.5967 97.8757 54.5967 97.1074ZM57.4092 96.9023V97.1074C57.4092 97.5501 57.4482 97.9635 57.5264 98.3477C57.6045 98.7318 57.7282 99.0703 57.8975 99.3633C58.0732 99.6497 58.3011 99.8743 58.5811 100.037C58.861 100.2 59.2028 100.281 59.6064 100.281C59.9971 100.281 60.3324 100.2 60.6123 100.037C60.8923 99.8743 61.1169 99.6497 61.2861 99.3633C61.4554 99.0703 61.5791 98.7318 61.6572 98.3477C61.7419 97.9635 61.7842 97.5501 61.7842 97.1074V96.9023C61.7842 96.4727 61.7419 96.069 61.6572 95.6914C61.5791 95.3073 61.4521 94.9688 61.2764 94.6758C61.1071 94.3763 60.8825 94.1419 60.6025 93.9727C60.3226 93.8034 59.984 93.7188 59.5869 93.7188C59.1898 93.7188 58.8512 93.8034 58.5713 93.9727C58.2979 94.1419 58.0732 94.3763 57.8975 94.6758C57.7282 94.9688 57.6045 95.3073 57.5264 95.6914C57.4482 96.069 57.4092 96.4727 57.4092 96.9023ZM69.0889 93.9727V102.283H66.2764V91.7168H68.9131L69.0889 93.9727ZM68.6787 96.6289H67.917C67.917 95.8477 68.0179 95.1445 68.2197 94.5195C68.4215 93.888 68.7048 93.3509 69.0693 92.9082C69.4339 92.459 69.8669 92.1172 70.3682 91.8828C70.876 91.6419 71.4424 91.5215 72.0674 91.5215C72.5622 91.5215 73.0146 91.5931 73.4248 91.7363C73.835 91.8796 74.1865 92.1074 74.4795 92.4199C74.779 92.7324 75.0068 93.1458 75.1631 93.6602C75.3258 94.1745 75.4072 94.8027 75.4072 95.5449V102.283H72.5752V95.5352C72.5752 95.0664 72.5101 94.7018 72.3799 94.4414C72.2497 94.181 72.0576 93.9987 71.8037 93.8945C71.5563 93.7839 71.2503 93.7285 70.8857 93.7285C70.5081 93.7285 70.1794 93.8034 69.8994 93.9531C69.626 94.1029 69.3981 94.3112 69.2158 94.5781C69.04 94.8385 68.9066 95.1445 68.8154 95.4961C68.7243 95.8477 68.6787 96.2253 68.6787 96.6289Z" fill="black"/>
<path d="M280.077 92.3633L284.667 96.9533L289.257 92.3633L290.667 93.7833L284.667 99.7833L278.667 93.7833L280.077 92.3633Z" fill="black"/>
<rect x="1.66699" y="72.7832" width="310" height="46" rx="11" stroke="#1E8478" stroke-width="2"/>
<rect x="1.66699" y="144.783" width="310" height="41" rx="11" fill="#D9D9D9"/>
<path d="M138.222 165.791H135.3L135.284 164.182H137.737C138.17 164.182 138.524 164.127 138.8 164.018C139.076 163.903 139.282 163.739 139.417 163.525C139.558 163.307 139.628 163.041 139.628 162.729C139.628 162.374 139.56 162.088 139.425 161.869C139.295 161.65 139.089 161.492 138.808 161.393C138.532 161.294 138.175 161.244 137.737 161.244H136.112V170.783H133.769V159.408H137.737C138.399 159.408 138.99 159.471 139.511 159.596C140.037 159.721 140.482 159.911 140.847 160.166C141.211 160.421 141.49 160.744 141.683 161.135C141.875 161.52 141.972 161.979 141.972 162.51C141.972 162.979 141.865 163.411 141.651 163.807C141.443 164.202 141.112 164.525 140.659 164.775C140.211 165.025 139.625 165.163 138.901 165.189L138.222 165.791ZM138.12 170.783H134.659L135.573 168.955H138.12C138.532 168.955 138.868 168.89 139.128 168.76C139.388 168.624 139.581 168.442 139.706 168.213C139.831 167.984 139.894 167.721 139.894 167.424C139.894 167.09 139.836 166.801 139.722 166.557C139.612 166.312 139.435 166.124 139.19 165.994C138.946 165.859 138.623 165.791 138.222 165.791H135.964L135.979 164.182H138.792L139.331 164.814C140.024 164.804 140.581 164.926 141.003 165.182C141.43 165.432 141.74 165.757 141.933 166.158C142.131 166.559 142.229 166.989 142.229 167.447C142.229 168.176 142.071 168.791 141.753 169.291C141.435 169.786 140.969 170.158 140.354 170.408C139.745 170.658 139 170.783 138.12 170.783ZM148.847 168.76V162.33H151.097V170.783H148.979L148.847 168.76ZM149.097 167.025L149.761 167.01C149.761 167.572 149.696 168.096 149.565 168.58C149.435 169.059 149.24 169.476 148.979 169.83C148.719 170.179 148.391 170.452 147.995 170.65C147.599 170.843 147.133 170.939 146.597 170.939C146.185 170.939 145.805 170.882 145.456 170.768C145.112 170.648 144.815 170.463 144.565 170.213C144.321 169.958 144.128 169.632 143.987 169.236C143.852 168.835 143.784 168.354 143.784 167.791V162.33H146.034V167.807C146.034 168.057 146.063 168.268 146.12 168.439C146.183 168.611 146.269 168.752 146.378 168.861C146.487 168.971 146.615 169.049 146.761 169.096C146.912 169.143 147.078 169.166 147.261 169.166C147.724 169.166 148.089 169.072 148.354 168.885C148.625 168.697 148.815 168.442 148.925 168.119C149.039 167.791 149.097 167.426 149.097 167.025ZM156.956 162.33V163.924H152.034V162.33H156.956ZM153.253 160.244H155.503V168.236C155.503 168.481 155.534 168.669 155.597 168.799C155.664 168.929 155.763 169.02 155.894 169.072C156.024 169.119 156.188 169.143 156.386 169.143C156.526 169.143 156.651 169.137 156.761 169.127C156.875 169.111 156.972 169.096 157.05 169.08L157.058 170.736C156.865 170.799 156.657 170.848 156.433 170.885C156.209 170.921 155.961 170.939 155.69 170.939C155.196 170.939 154.763 170.859 154.394 170.697C154.029 170.531 153.748 170.265 153.55 169.9C153.352 169.536 153.253 169.057 153.253 168.463V160.244ZM162.378 162.33V163.924H157.456V162.33H162.378ZM158.675 160.244H160.925V168.236C160.925 168.481 160.956 168.669 161.019 168.799C161.086 168.929 161.185 169.02 161.315 169.072C161.446 169.119 161.61 169.143 161.808 169.143C161.948 169.143 162.073 169.137 162.183 169.127C162.297 169.111 162.394 169.096 162.472 169.08L162.479 170.736C162.287 170.799 162.078 170.848 161.854 170.885C161.631 170.921 161.383 170.939 161.112 170.939C160.618 170.939 160.185 170.859 159.815 170.697C159.451 170.531 159.17 170.265 158.972 169.9C158.774 169.536 158.675 169.057 158.675 168.463V160.244ZM163.097 166.643V166.479C163.097 165.859 163.185 165.288 163.362 164.768C163.539 164.242 163.797 163.786 164.136 163.4C164.474 163.015 164.891 162.715 165.386 162.502C165.881 162.283 166.448 162.174 167.089 162.174C167.729 162.174 168.3 162.283 168.8 162.502C169.3 162.715 169.719 163.015 170.058 163.4C170.401 163.786 170.662 164.242 170.839 164.768C171.016 165.288 171.104 165.859 171.104 166.479V166.643C171.104 167.257 171.016 167.827 170.839 168.354C170.662 168.874 170.401 169.33 170.058 169.721C169.719 170.106 169.302 170.406 168.808 170.619C168.313 170.833 167.745 170.939 167.104 170.939C166.464 170.939 165.894 170.833 165.394 170.619C164.899 170.406 164.479 170.106 164.136 169.721C163.797 169.33 163.539 168.874 163.362 168.354C163.185 167.827 163.097 167.257 163.097 166.643ZM165.347 166.479V166.643C165.347 166.997 165.378 167.327 165.44 167.635C165.503 167.942 165.602 168.213 165.737 168.447C165.878 168.676 166.06 168.856 166.284 168.986C166.508 169.117 166.782 169.182 167.104 169.182C167.417 169.182 167.685 169.117 167.909 168.986C168.133 168.856 168.313 168.676 168.448 168.447C168.584 168.213 168.683 167.942 168.745 167.635C168.813 167.327 168.847 166.997 168.847 166.643V166.479C168.847 166.135 168.813 165.812 168.745 165.51C168.683 165.202 168.581 164.932 168.44 164.697C168.305 164.458 168.125 164.27 167.901 164.135C167.677 163.999 167.407 163.932 167.089 163.932C166.771 163.932 166.5 163.999 166.276 164.135C166.058 164.27 165.878 164.458 165.737 164.697C165.602 164.932 165.503 165.202 165.44 165.51C165.378 165.812 165.347 166.135 165.347 166.479ZM174.69 164.135V170.783H172.44V162.33H174.55L174.69 164.135ZM174.362 166.26H173.753C173.753 165.635 173.834 165.072 173.995 164.572C174.157 164.067 174.383 163.637 174.675 163.283C174.966 162.924 175.313 162.65 175.714 162.463C176.12 162.27 176.573 162.174 177.073 162.174C177.469 162.174 177.831 162.231 178.159 162.346C178.487 162.46 178.769 162.643 179.003 162.893C179.243 163.143 179.425 163.473 179.55 163.885C179.68 164.296 179.745 164.799 179.745 165.393V170.783H177.479V165.385C177.479 165.01 177.427 164.718 177.323 164.51C177.219 164.301 177.065 164.156 176.862 164.072C176.664 163.984 176.42 163.939 176.128 163.939C175.826 163.939 175.563 163.999 175.339 164.119C175.12 164.239 174.938 164.406 174.792 164.619C174.651 164.827 174.545 165.072 174.472 165.354C174.399 165.635 174.362 165.937 174.362 166.26Z" fill="black"/>
<rect x="1.66699" y="144.783" width="310" height="41" rx="11" stroke="#D9D9D9" stroke-width="2"/>
<path d="M138.222 232.791H135.3L135.284 231.182H137.737C138.17 231.182 138.524 231.127 138.8 231.018C139.076 230.903 139.282 230.739 139.417 230.525C139.558 230.307 139.628 230.041 139.628 229.729C139.628 229.374 139.56 229.088 139.425 228.869C139.295 228.65 139.089 228.492 138.808 228.393C138.532 228.294 138.175 228.244 137.737 228.244H136.112V237.783H133.769V226.408H137.737C138.399 226.408 138.99 226.471 139.511 226.596C140.037 226.721 140.482 226.911 140.847 227.166C141.211 227.421 141.49 227.744 141.683 228.135C141.875 228.52 141.972 228.979 141.972 229.51C141.972 229.979 141.865 230.411 141.651 230.807C141.443 231.202 141.112 231.525 140.659 231.775C140.211 232.025 139.625 232.163 138.901 232.189L138.222 232.791ZM138.12 237.783H134.659L135.573 235.955H138.12C138.532 235.955 138.868 235.89 139.128 235.76C139.388 235.624 139.581 235.442 139.706 235.213C139.831 234.984 139.894 234.721 139.894 234.424C139.894 234.09 139.836 233.801 139.722 233.557C139.612 233.312 139.435 233.124 139.19 232.994C138.946 232.859 138.623 232.791 138.222 232.791H135.964L135.979 231.182H138.792L139.331 231.814C140.024 231.804 140.581 231.926 141.003 232.182C141.43 232.432 141.74 232.757 141.933 233.158C142.131 233.559 142.229 233.989 142.229 234.447C142.229 235.176 142.071 235.791 141.753 236.291C141.435 236.786 140.969 237.158 140.354 237.408C139.745 237.658 139 237.783 138.12 237.783ZM148.847 235.76V229.33H151.097V237.783H148.979L148.847 235.76ZM149.097 234.025L149.761 234.01C149.761 234.572 149.696 235.096 149.565 235.58C149.435 236.059 149.24 236.476 148.979 236.83C148.719 237.179 148.391 237.452 147.995 237.65C147.599 237.843 147.133 237.939 146.597 237.939C146.185 237.939 145.805 237.882 145.456 237.768C145.112 237.648 144.815 237.463 144.565 237.213C144.321 236.958 144.128 236.632 143.987 236.236C143.852 235.835 143.784 235.354 143.784 234.791V229.33H146.034V234.807C146.034 235.057 146.063 235.268 146.12 235.439C146.183 235.611 146.269 235.752 146.378 235.861C146.487 235.971 146.615 236.049 146.761 236.096C146.912 236.143 147.078 236.166 147.261 236.166C147.724 236.166 148.089 236.072 148.354 235.885C148.625 235.697 148.815 235.442 148.925 235.119C149.039 234.791 149.097 234.426 149.097 234.025ZM156.956 229.33V230.924H152.034V229.33H156.956ZM153.253 227.244H155.503V235.236C155.503 235.481 155.534 235.669 155.597 235.799C155.664 235.929 155.763 236.02 155.894 236.072C156.024 236.119 156.188 236.143 156.386 236.143C156.526 236.143 156.651 236.137 156.761 236.127C156.875 236.111 156.972 236.096 157.05 236.08L157.058 237.736C156.865 237.799 156.657 237.848 156.433 237.885C156.209 237.921 155.961 237.939 155.69 237.939C155.196 237.939 154.763 237.859 154.394 237.697C154.029 237.531 153.748 237.265 153.55 236.9C153.352 236.536 153.253 236.057 153.253 235.463V227.244ZM162.378 229.33V230.924H157.456V229.33H162.378ZM158.675 227.244H160.925V235.236C160.925 235.481 160.956 235.669 161.019 235.799C161.086 235.929 161.185 236.02 161.315 236.072C161.446 236.119 161.61 236.143 161.808 236.143C161.948 236.143 162.073 236.137 162.183 236.127C162.297 236.111 162.394 236.096 162.472 236.08L162.479 237.736C162.287 237.799 162.078 237.848 161.854 237.885C161.631 237.921 161.383 237.939 161.112 237.939C160.618 237.939 160.185 237.859 159.815 237.697C159.451 237.531 159.17 237.265 158.972 236.9C158.774 236.536 158.675 236.057 158.675 235.463V227.244ZM163.097 233.643V233.479C163.097 232.859 163.185 232.288 163.362 231.768C163.539 231.242 163.797 230.786 164.136 230.4C164.474 230.015 164.891 229.715 165.386 229.502C165.881 229.283 166.448 229.174 167.089 229.174C167.729 229.174 168.3 229.283 168.8 229.502C169.3 229.715 169.719 230.015 170.058 230.4C170.401 230.786 170.662 231.242 170.839 231.768C171.016 232.288 171.104 232.859 171.104 233.479V233.643C171.104 234.257 171.016 234.827 170.839 235.354C170.662 235.874 170.401 236.33 170.058 236.721C169.719 237.106 169.302 237.406 168.808 237.619C168.313 237.833 167.745 237.939 167.104 237.939C166.464 237.939 165.894 237.833 165.394 237.619C164.899 237.406 164.479 237.106 164.136 236.721C163.797 236.33 163.539 235.874 163.362 235.354C163.185 234.827 163.097 234.257 163.097 233.643ZM165.347 233.479V233.643C165.347 233.997 165.378 234.327 165.44 234.635C165.503 234.942 165.602 235.213 165.737 235.447C165.878 235.676 166.06 235.856 166.284 235.986C166.508 236.117 166.782 236.182 167.104 236.182C167.417 236.182 167.685 236.117 167.909 235.986C168.133 235.856 168.313 235.676 168.448 235.447C168.584 235.213 168.683 234.942 168.745 234.635C168.813 234.327 168.847 233.997 168.847 233.643V233.479C168.847 233.135 168.813 232.812 168.745 232.51C168.683 232.202 168.581 231.932 168.44 231.697C168.305 231.458 168.125 231.27 167.901 231.135C167.677 230.999 167.407 230.932 167.089 230.932C166.771 230.932 166.5 230.999 166.276 231.135C166.058 231.27 165.878 231.458 165.737 231.697C165.602 231.932 165.503 232.202 165.44 232.51C165.378 232.812 165.347 233.135 165.347 233.479ZM174.69 231.135V237.783H172.44V229.33H174.55L174.69 231.135ZM174.362 233.26H173.753C173.753 232.635 173.834 232.072 173.995 231.572C174.157 231.067 174.383 230.637 174.675 230.283C174.966 229.924 175.313 229.65 175.714 229.463C176.12 229.27 176.573 229.174 177.073 229.174C177.469 229.174 177.831 229.231 178.159 229.346C178.487 229.46 178.769 229.643 179.003 229.893C179.243 230.143 179.425 230.473 179.55 230.885C179.68 231.296 179.745 231.799 179.745 232.393V237.783H177.479V232.385C177.479 232.01 177.427 231.718 177.323 231.51C177.219 231.301 177.065 231.156 176.862 231.072C176.664 230.984 176.42 230.939 176.128 230.939C175.826 230.939 175.563 230.999 175.339 231.119C175.12 231.239 174.938 231.406 174.792 231.619C174.651 231.827 174.545 232.072 174.472 232.354C174.399 232.635 174.362 232.937 174.362 233.26Z" fill="black"/>
<rect x="1.66699" y="211.783" width="310" height="41" rx="11" stroke="#1E8478" stroke-width="2"/>
<rect x="1.66699" y="278.783" width="310" height="41" rx="11" fill="#1E8478"/>
<path d="M138.222 299.791H135.3L135.284 298.182H137.737C138.17 298.182 138.524 298.127 138.8 298.018C139.076 297.903 139.282 297.739 139.417 297.525C139.558 297.307 139.628 297.041 139.628 296.729C139.628 296.374 139.56 296.088 139.425 295.869C139.295 295.65 139.089 295.492 138.808 295.393C138.532 295.294 138.175 295.244 137.737 295.244H136.112V304.783H133.769V293.408H137.737C138.399 293.408 138.99 293.471 139.511 293.596C140.037 293.721 140.482 293.911 140.847 294.166C141.211 294.421 141.49 294.744 141.683 295.135C141.875 295.52 141.972 295.979 141.972 296.51C141.972 296.979 141.865 297.411 141.651 297.807C141.443 298.202 141.112 298.525 140.659 298.775C140.211 299.025 139.625 299.163 138.901 299.189L138.222 299.791ZM138.12 304.783H134.659L135.573 302.955H138.12C138.532 302.955 138.868 302.89 139.128 302.76C139.388 302.624 139.581 302.442 139.706 302.213C139.831 301.984 139.894 301.721 139.894 301.424C139.894 301.09 139.836 300.801 139.722 300.557C139.612 300.312 139.435 300.124 139.19 299.994C138.946 299.859 138.623 299.791 138.222 299.791H135.964L135.979 298.182H138.792L139.331 298.814C140.024 298.804 140.581 298.926 141.003 299.182C141.43 299.432 141.74 299.757 141.933 300.158C142.131 300.559 142.229 300.989 142.229 301.447C142.229 302.176 142.071 302.791 141.753 303.291C141.435 303.786 140.969 304.158 140.354 304.408C139.745 304.658 139 304.783 138.12 304.783ZM148.847 302.76V296.33H151.097V304.783H148.979L148.847 302.76ZM149.097 301.025L149.761 301.01C149.761 301.572 149.696 302.096 149.565 302.58C149.435 303.059 149.24 303.476 148.979 303.83C148.719 304.179 148.391 304.452 147.995 304.65C147.599 304.843 147.133 304.939 146.597 304.939C146.185 304.939 145.805 304.882 145.456 304.768C145.112 304.648 144.815 304.463 144.565 304.213C144.321 303.958 144.128 303.632 143.987 303.236C143.852 302.835 143.784 302.354 143.784 301.791V296.33H146.034V301.807C146.034 302.057 146.063 302.268 146.12 302.439C146.183 302.611 146.269 302.752 146.378 302.861C146.487 302.971 146.615 303.049 146.761 303.096C146.912 303.143 147.078 303.166 147.261 303.166C147.724 303.166 148.089 303.072 148.354 302.885C148.625 302.697 148.815 302.442 148.925 302.119C149.039 301.791 149.097 301.426 149.097 301.025ZM156.956 296.33V297.924H152.034V296.33H156.956ZM153.253 294.244H155.503V302.236C155.503 302.481 155.534 302.669 155.597 302.799C155.664 302.929 155.763 303.02 155.894 303.072C156.024 303.119 156.188 303.143 156.386 303.143C156.526 303.143 156.651 303.137 156.761 303.127C156.875 303.111 156.972 303.096 157.05 303.08L157.058 304.736C156.865 304.799 156.657 304.848 156.433 304.885C156.209 304.921 155.961 304.939 155.69 304.939C155.196 304.939 154.763 304.859 154.394 304.697C154.029 304.531 153.748 304.265 153.55 303.9C153.352 303.536 153.253 303.057 153.253 302.463V294.244ZM162.378 296.33V297.924H157.456V296.33H162.378ZM158.675 294.244H160.925V302.236C160.925 302.481 160.956 302.669 161.019 302.799C161.086 302.929 161.185 303.02 161.315 303.072C161.446 303.119 161.61 303.143 161.808 303.143C161.948 303.143 162.073 303.137 162.183 303.127C162.297 303.111 162.394 303.096 162.472 303.08L162.479 304.736C162.287 304.799 162.078 304.848 161.854 304.885C161.631 304.921 161.383 304.939 161.112 304.939C160.618 304.939 160.185 304.859 159.815 304.697C159.451 304.531 159.17 304.265 158.972 303.9C158.774 303.536 158.675 303.057 158.675 302.463V294.244ZM163.097 300.643V300.479C163.097 299.859 163.185 299.288 163.362 298.768C163.539 298.242 163.797 297.786 164.136 297.4C164.474 297.015 164.891 296.715 165.386 296.502C165.881 296.283 166.448 296.174 167.089 296.174C167.729 296.174 168.3 296.283 168.8 296.502C169.3 296.715 169.719 297.015 170.058 297.4C170.401 297.786 170.662 298.242 170.839 298.768C171.016 299.288 171.104 299.859 171.104 300.479V300.643C171.104 301.257 171.016 301.827 170.839 302.354C170.662 302.874 170.401 303.33 170.058 303.721C169.719 304.106 169.302 304.406 168.808 304.619C168.313 304.833 167.745 304.939 167.104 304.939C166.464 304.939 165.894 304.833 165.394 304.619C164.899 304.406 164.479 304.106 164.136 303.721C163.797 303.33 163.539 302.874 163.362 302.354C163.185 301.827 163.097 301.257 163.097 300.643ZM165.347 300.479V300.643C165.347 300.997 165.378 301.327 165.44 301.635C165.503 301.942 165.602 302.213 165.737 302.447C165.878 302.676 166.06 302.856 166.284 302.986C166.508 303.117 166.782 303.182 167.104 303.182C167.417 303.182 167.685 303.117 167.909 302.986C168.133 302.856 168.313 302.676 168.448 302.447C168.584 302.213 168.683 301.942 168.745 301.635C168.813 301.327 168.847 300.997 168.847 300.643V300.479C168.847 300.135 168.813 299.812 168.745 299.51C168.683 299.202 168.581 298.932 168.44 298.697C168.305 298.458 168.125 298.27 167.901 298.135C167.677 297.999 167.407 297.932 167.089 297.932C166.771 297.932 166.5 297.999 166.276 298.135C166.058 298.27 165.878 298.458 165.737 298.697C165.602 298.932 165.503 299.202 165.44 299.51C165.378 299.812 165.347 300.135 165.347 300.479ZM174.69 298.135V304.783H172.44V296.33H174.55L174.69 298.135ZM174.362 300.26H173.753C173.753 299.635 173.834 299.072 173.995 298.572C174.157 298.067 174.383 297.637 174.675 297.283C174.966 296.924 175.313 296.65 175.714 296.463C176.12 296.27 176.573 296.174 177.073 296.174C177.469 296.174 177.831 296.231 178.159 296.346C178.487 296.46 178.769 296.643 179.003 296.893C179.243 297.143 179.425 297.473 179.55 297.885C179.68 298.296 179.745 298.799 179.745 299.393V304.783H177.479V299.385C177.479 299.01 177.427 298.718 177.323 298.51C177.219 298.301 177.065 298.156 176.862 298.072C176.664 297.984 176.42 297.939 176.128 297.939C175.826 297.939 175.563 297.999 175.339 298.119C175.12 298.239 174.938 298.406 174.792 298.619C174.651 298.827 174.545 299.072 174.472 299.354C174.399 299.635 174.362 299.937 174.362 300.26Z" fill="white"/>
<rect x="1.66699" y="278.783" width="310" height="41" rx="11" stroke="#1E8478" stroke-width="2"/>
<rect width="26.8" height="28" transform="translate(0.666992 344.783)" fill="#1E8478"/>
<path d="M24.467 352.466L10.2041 366.783L3.66699 360.221L5.34288 358.539L10.2041 363.407L22.7911 350.783L24.467 352.466Z" fill="white"/>
<rect x="52.4668" y="345.783" width="26" height="26" stroke="#1E8478" stroke-width="2"/>
</svg>
