<svg width="1920" height="1221" viewBox="0 0 1920 1221" fill="none" xmlns="http://www.w3.org/2000/svg">
<g clip-path="url(#clip0_621_396)">
<rect width="1920" height="1221" rx="12" fill="white"/>
<rect x="-40.5" y="139.5" width="1988" height="320" stroke="black" stroke-width="3"/>
<path d="M765.523 333.672C761.043 333.672 757.011 332.904 753.427 331.368C749.843 329.768 747.027 327.528 744.979 324.648C742.931 321.768 741.907 318.408 741.907 314.568H753.619C753.875 317.448 754.995 319.816 756.979 321.672C759.027 323.528 761.875 324.456 765.523 324.456C769.299 324.456 772.243 323.56 774.355 321.768C776.467 319.912 777.523 317.544 777.523 314.664C777.523 312.424 776.851 310.6 775.507 309.192C774.227 307.784 772.595 306.696 770.611 305.928C768.691 305.16 766.003 304.328 762.547 303.432C758.195 302.28 754.643 301.128 751.891 299.976C749.203 298.76 746.899 296.904 744.979 294.408C743.059 291.912 742.099 288.584 742.099 284.424C742.099 280.584 743.059 277.224 744.979 274.344C746.899 271.464 749.587 269.256 753.043 267.72C756.499 266.184 760.499 265.416 765.043 265.416C771.507 265.416 776.787 267.048 780.883 270.312C785.043 273.512 787.347 277.928 787.795 283.56H775.699C775.507 281.128 774.355 279.048 772.243 277.32C770.131 275.592 767.347 274.728 763.891 274.728C760.755 274.728 758.195 275.528 756.211 277.128C754.227 278.728 753.235 281.032 753.235 284.04C753.235 286.088 753.843 287.784 755.059 289.128C756.339 290.408 757.939 291.432 759.859 292.2C761.779 292.968 764.403 293.8 767.731 294.696C772.147 295.912 775.731 297.128 778.483 298.344C781.299 299.56 783.667 301.448 785.587 304.008C787.571 306.504 788.563 309.864 788.563 314.088C788.563 317.48 787.635 320.68 785.779 323.688C783.987 326.696 781.331 329.128 777.811 330.984C774.355 332.776 770.259 333.672 765.523 333.672ZM842.66 319.368H814.724L809.924 333H798.5L822.404 266.184H835.076L858.98 333H847.46L842.66 319.368ZM839.588 310.44L828.74 279.432L817.796 310.44H839.588ZM906.046 298.728C909.63 299.368 912.67 301.256 915.166 304.392C917.662 307.528 918.91 311.08 918.91 315.048C918.91 318.44 918.014 321.512 916.222 324.264C914.494 326.952 911.966 329.096 908.638 330.696C905.31 332.232 901.438 333 897.022 333H870.334V266.28H895.774C900.318 266.28 904.222 267.048 907.486 268.584C910.75 270.12 913.214 272.2 914.878 274.824C916.542 277.384 917.374 280.264 917.374 283.464C917.374 287.304 916.35 290.504 914.302 293.064C912.254 295.624 909.502 297.512 906.046 298.728ZM881.278 294.312H894.814C898.398 294.312 901.182 293.512 903.166 291.912C905.214 290.248 906.238 287.88 906.238 284.808C906.238 281.8 905.214 279.464 903.166 277.8C901.182 276.072 898.398 275.208 894.814 275.208H881.278V294.312ZM896.062 324.072C899.774 324.072 902.686 323.176 904.798 321.384C906.91 319.592 907.966 317.096 907.966 313.896C907.966 310.632 906.846 308.04 904.606 306.12C902.366 304.2 899.39 303.24 895.678 303.24H881.278V324.072H896.062ZM962.195 333.672C955.987 333.672 950.259 332.232 945.011 329.352C939.827 326.408 935.699 322.344 932.627 317.16C929.619 311.912 928.115 306.024 928.115 299.496C928.115 292.968 929.619 287.112 932.627 281.928C935.699 276.744 939.827 272.712 945.011 269.832C950.259 266.888 955.987 265.416 962.195 265.416C968.467 265.416 974.195 266.888 979.379 269.832C984.627 272.712 988.755 276.744 991.763 281.928C994.771 287.112 996.275 292.968 996.275 299.496C996.275 306.024 994.771 311.912 991.763 317.16C988.755 322.344 984.627 326.408 979.379 329.352C974.195 332.232 968.467 333.672 962.195 333.672ZM962.195 324.168C966.611 324.168 970.547 323.176 974.003 321.192C977.459 319.144 980.147 316.264 982.067 312.552C984.051 308.776 985.043 304.424 985.043 299.496C985.043 294.568 984.051 290.248 982.067 286.536C980.147 282.824 977.459 279.976 974.003 277.992C970.547 276.008 966.611 275.016 962.195 275.016C957.779 275.016 953.843 276.008 950.387 277.992C946.931 279.976 944.211 282.824 942.227 286.536C940.307 290.248 939.347 294.568 939.347 299.496C939.347 304.424 940.307 308.776 942.227 312.552C944.211 316.264 946.931 319.144 950.387 321.192C953.843 323.176 957.779 324.168 962.195 324.168ZM1042.66 333L1027.3 306.312H1018.95V333H1008V266.28H1031.04C1036.16 266.28 1040.48 267.176 1044 268.968C1047.59 270.76 1050.24 273.16 1051.97 276.168C1053.76 279.176 1054.66 282.536 1054.66 286.248C1054.66 290.6 1053.38 294.568 1050.82 298.152C1048.32 301.672 1044.45 304.072 1039.2 305.352L1055.72 333H1042.66ZM1018.95 297.576H1031.04C1035.14 297.576 1038.21 296.552 1040.26 294.504C1042.37 292.456 1043.43 289.704 1043.43 286.248C1043.43 282.792 1042.4 280.104 1040.36 278.184C1038.31 276.2 1035.2 275.208 1031.04 275.208H1018.95V297.576ZM1080.56 275.112V294.696H1103.6V303.624H1080.56V324.072H1106.48V333H1069.62V266.184H1106.48V275.112H1080.56ZM1142.91 333.672C1138.43 333.672 1134.4 332.904 1130.81 331.368C1127.23 329.768 1124.41 327.528 1122.36 324.648C1120.32 321.768 1119.29 318.408 1119.29 314.568H1131C1131.26 317.448 1132.38 319.816 1134.36 321.672C1136.41 323.528 1139.26 324.456 1142.91 324.456C1146.68 324.456 1149.63 323.56 1151.74 321.768C1153.85 319.912 1154.91 317.544 1154.91 314.664C1154.91 312.424 1154.24 310.6 1152.89 309.192C1151.61 307.784 1149.98 306.696 1148 305.928C1146.08 305.16 1143.39 304.328 1139.93 303.432C1135.58 302.28 1132.03 301.128 1129.28 299.976C1126.59 298.76 1124.28 296.904 1122.36 294.408C1120.44 291.912 1119.48 288.584 1119.48 284.424C1119.48 280.584 1120.44 277.224 1122.36 274.344C1124.28 271.464 1126.97 269.256 1130.43 267.72C1133.88 266.184 1137.88 265.416 1142.43 265.416C1148.89 265.416 1154.17 267.048 1158.27 270.312C1162.43 273.512 1164.73 277.928 1165.18 283.56H1153.08C1152.89 281.128 1151.74 279.048 1149.63 277.32C1147.52 275.592 1144.73 274.728 1141.28 274.728C1138.14 274.728 1135.58 275.528 1133.6 277.128C1131.61 278.728 1130.62 281.032 1130.62 284.04C1130.62 286.088 1131.23 287.784 1132.44 289.128C1133.72 290.408 1135.32 291.432 1137.24 292.2C1139.16 292.968 1141.79 293.8 1145.12 294.696C1149.53 295.912 1153.12 297.128 1155.87 298.344C1158.68 299.56 1161.05 301.448 1162.97 304.008C1164.96 306.504 1165.95 309.864 1165.95 314.088C1165.95 317.48 1165.02 320.68 1163.16 323.688C1161.37 326.696 1158.72 329.128 1155.2 330.984C1151.74 332.776 1147.64 333.672 1142.91 333.672Z" fill="black"/>
<rect x="-40.5" y="-27.5" width="1988" height="184" fill="white" stroke="black" stroke-width="3"/>
<rect x="132.5" y="42.5" width="97" height="77" fill="#D9D9D9" stroke="black" stroke-width="3"/>
<line x1="131.312" y1="40.6096" x2="231.312" y2="120.61" stroke="black"/>
<line x1="229.316" y1="41.3873" x2="131.316" y2="121.387" stroke="black"/>
<line x1="1068" y1="79.5" x2="1228" y2="79.5" stroke="black" stroke-width="3"/>
<line x1="1351" y1="79.5" x2="1511" y2="79.5" stroke="black" stroke-width="3"/>
<line x1="1634" y1="79.5" x2="1794" y2="79.5" stroke="black" stroke-width="3"/>
<rect x="2.5" y="460.5" width="478" height="759" fill="#D9D9D9" stroke="black" stroke-width="3"/>
<rect x="481.5" y="460.5" width="479" height="759" fill="#D9D9D9" stroke="black" stroke-width="3"/>
<rect x="960.5" y="460.5" width="479" height="759" fill="#D9D9D9" stroke="black" stroke-width="3"/>
<rect x="1440.5" y="460.5" width="478" height="759" fill="#D9D9D9" stroke="black" stroke-width="3"/>
<line y1="-1.5" x2="896.355" y2="-1.5" transform="matrix(0.53019 0.847879 -0.849119 0.528202 3.00513 461)" stroke="black" stroke-width="3"/>
<line y1="-1.5" x2="896.355" y2="-1.5" transform="matrix(0.53019 0.847879 -0.849119 0.528202 482.254 461)" stroke="black" stroke-width="3"/>
<line y1="-1.5" x2="896.355" y2="-1.5" transform="matrix(0.53019 0.847879 -0.849119 0.528202 961.503 461)" stroke="black" stroke-width="3"/>
<line y1="-1.5" x2="896.355" y2="-1.5" transform="matrix(0.53019 0.847879 -0.849119 0.528202 1440.75 461)" stroke="black" stroke-width="3"/>
<line y1="-1.5" x2="898.582" y2="-1.5" transform="matrix(-0.529992 0.848003 -0.849242 -0.528004 480.249 459)" stroke="black" stroke-width="3"/>
<line y1="-1.5" x2="898.582" y2="-1.5" transform="matrix(-0.529992 0.848003 -0.849242 -0.528004 959.497 459)" stroke="black" stroke-width="3"/>
<line y1="-1.5" x2="898.582" y2="-1.5" transform="matrix(-0.529992 0.848003 -0.849242 -0.528004 1438.75 459)" stroke="black" stroke-width="3"/>
<line y1="-1.5" x2="898.582" y2="-1.5" transform="matrix(-0.529992 0.848003 -0.849242 -0.528004 1917.99 459)" stroke="black" stroke-width="3"/>
</g>
<rect x="1.5" y="1.5" width="1917" height="1218" rx="10.5" stroke="black" stroke-width="3"/>
<defs>
<clipPath id="clip0_621_396">
<rect width="1920" height="1221" rx="12" fill="white"/>
</clipPath>
</defs>
</svg>
