<svg width="1920" height="1221" viewBox="0 0 1920 1221" fill="none" xmlns="http://www.w3.org/2000/svg">
<g clip-path="url(#clip0_621_289)">
<rect width="1920" height="1221" rx="12" fill="white"/>
<rect x="-40.5" y="-27.5" width="1988" height="184" stroke="black" stroke-width="3"/>
<rect x="132.5" y="42.5" width="97" height="77" fill="#D9D9D9" stroke="black" stroke-width="3"/>
<line x1="131.312" y1="40.6096" x2="231.312" y2="120.61" stroke="black"/>
<line x1="229.316" y1="41.3873" x2="131.316" y2="121.387" stroke="black"/>
<line x1="1068" y1="79.5" x2="1228" y2="79.5" stroke="black" stroke-width="3"/>
<line x1="1351" y1="79.5" x2="1511" y2="79.5" stroke="black" stroke-width="3"/>
<line x1="1634" y1="79.5" x2="1794" y2="79.5" stroke="black" stroke-width="3"/>
<rect x="1.5" y="155.5" width="951" height="1064" fill="#D9D9D9" stroke="black" stroke-width="3"/>
<line x1="1.11961" y1="150.002" x2="955.12" y2="1220" stroke="black" stroke-width="3"/>
<line x1="955.118" y1="155" x2="1.11822" y2="1222" stroke="black" stroke-width="3"/>
<line x1="1185" y1="378.5" x2="1756" y2="378.5" stroke="black" stroke-width="3"/>
<line x1="1185" y1="457.5" x2="1756" y2="457.5" stroke="black" stroke-width="3"/>
<line x1="1185" y1="536.5" x2="1756" y2="536.5" stroke="black" stroke-width="3"/>
<rect x="1185" y="640" width="571" height="91" rx="24" fill="#D9D9D9"/>
<line x1="1309" y1="684.5" x2="1647" y2="684.5" stroke="black" stroke-width="3"/>
</g>
<rect x="1.5" y="1.5" width="1917" height="1218" rx="10.5" stroke="black" stroke-width="3"/>
<defs>
<clipPath id="clip0_621_289">
<rect width="1920" height="1221" rx="12" fill="white"/>
</clipPath>
</defs>
</svg>
