<svg width="317" height="431" viewBox="0 0 317 431" fill="none" xmlns="http://www.w3.org/2000/svg">
<rect x="3.66699" y="1.7832" width="310" height="52" rx="11" fill="black"/>
<path d="M40.5781 36.7832V19.8632H47.9941C49.8341 19.8632 51.2501 20.2552 52.2421 21.0392C53.2341 21.8072 53.7301 22.8792 53.7301 24.2552C53.7301 25.2792 53.4261 26.1432 52.8181 26.8472C52.2101 27.5512 51.3701 28.0232 50.2981 28.2632V27.9032C51.5301 28.0792 52.4821 28.5272 53.1541 29.2472C53.8421 29.9512 54.1861 30.8872 54.1861 32.0552C54.1861 33.5592 53.6661 34.7272 52.6261 35.5592C51.5861 36.3752 50.1381 36.7832 48.2821 36.7832H40.5781ZM43.5541 34.4312H47.9221C48.9621 34.4312 49.7701 34.2392 50.3461 33.8552C50.9221 33.4552 51.2101 32.8072 51.2101 31.9112C51.2101 30.9992 50.9221 30.3512 50.3461 29.9672C49.7701 29.5672 48.9621 29.3672 47.9221 29.3672H43.5541V34.4312ZM43.5541 27.0392H47.4661C48.5701 27.0392 49.3861 26.8392 49.9141 26.4392C50.4581 26.0232 50.7301 25.4152 50.7301 24.6152C50.7301 23.8152 50.4581 23.2152 49.9141 22.8152C49.3861 22.3992 48.5701 22.1912 47.4661 22.1912H43.5541V27.0392ZM61.2764 37.0232C59.7884 37.0232 58.6764 36.6152 57.9404 35.7992C57.2044 34.9832 56.8364 33.7352 56.8364 32.0552V24.6632H59.8364V32.0312C59.8364 32.9272 60.0204 33.5912 60.3884 34.0232C60.7564 34.4392 61.3164 34.6472 62.0684 34.6472C62.9164 34.6472 63.6044 34.3592 64.1324 33.7832C64.6764 33.2072 64.9484 32.4472 64.9484 31.5032V24.6632H67.9484V36.7832H65.0204V34.3112H65.3564C65.0044 35.1752 64.4684 35.8472 63.7484 36.3272C63.0444 36.7912 62.2204 37.0232 61.2764 37.0232ZM76.3892 37.0232C74.9492 37.0232 73.8612 36.6472 73.1252 35.8952C72.3892 35.1432 72.0212 34.0152 72.0212 32.5112V26.9192H69.6932V24.6632H72.0212V21.5672L75.0212 20.7992V24.6632H78.2612V26.9192H75.0212V32.3192C75.0212 33.1512 75.1812 33.7352 75.5012 34.0712C75.8212 34.4072 76.2612 34.5752 76.8212 34.5752C77.1252 34.5752 77.3812 34.5512 77.5892 34.5032C77.8132 34.4552 78.0292 34.3912 78.2372 34.3112V36.6872C77.9652 36.7992 77.6612 36.8792 77.3252 36.9272C77.0052 36.9912 76.6932 37.0232 76.3892 37.0232ZM84.8033 37.0232C83.3633 37.0232 82.2753 36.6472 81.5393 35.8952C80.8033 35.1432 80.4353 34.0152 80.4353 32.5112V26.9192H78.1073V24.6632H80.4353V21.5672L83.4353 20.7992V24.6632H86.6753V26.9192H83.4353V32.3192C83.4353 33.1512 83.5953 33.7352 83.9153 34.0712C84.2353 34.4072 84.6753 34.5752 85.2353 34.5752C85.5393 34.5752 85.7953 34.5512 86.0033 34.5032C86.2273 34.4552 86.4433 34.3912 86.6513 34.3112V36.6872C86.3793 36.7992 86.0753 36.8792 85.7393 36.9272C85.4193 36.9912 85.1073 37.0232 84.8033 37.0232ZM94.0679 37.0232C92.8199 37.0232 91.7399 36.7672 90.8279 36.2552C89.9159 35.7432 89.2039 35.0152 88.6919 34.0712C88.1959 33.1272 87.9479 32.0072 87.9479 30.7112C87.9479 29.4152 88.1959 28.3032 88.6919 27.3752C89.2039 26.4312 89.9159 25.7032 90.8279 25.1912C91.7399 24.6792 92.8199 24.4232 94.0679 24.4232C95.3159 24.4232 96.3959 24.6792 97.3079 25.1912C98.2359 25.7032 98.9479 26.4312 99.4439 27.3752C99.9559 28.3032 100.212 29.4152 100.212 30.7112C100.212 32.0072 99.9559 33.1272 99.4439 34.0712C98.9479 35.0152 98.2359 35.7432 97.3079 36.2552C96.3959 36.7672 95.3159 37.0232 94.0679 37.0232ZM94.0679 34.7192C95.0119 34.7192 95.7639 34.3912 96.3239 33.7352C96.8839 33.0632 97.1639 32.0552 97.1639 30.7112C97.1639 29.3672 96.8839 28.3672 96.3239 27.7112C95.7639 27.0552 95.0119 26.7272 94.0679 26.7272C93.1239 26.7272 92.3719 27.0552 91.8119 27.7112C91.2519 28.3672 90.9719 29.3672 90.9719 30.7112C90.9719 32.0552 91.2519 33.0632 91.8119 33.7352C92.3719 34.3912 93.1239 34.7192 94.0679 34.7192ZM102.799 36.7832V27.6872C102.799 27.1912 102.783 26.6872 102.751 26.1752C102.719 25.6632 102.671 25.1592 102.607 24.6632H105.511L105.751 27.0632H105.463C105.847 26.2152 106.415 25.5672 107.167 25.1192C107.919 24.6552 108.791 24.4232 109.783 24.4232C111.207 24.4232 112.279 24.8232 112.999 25.6232C113.719 26.4232 114.079 27.6712 114.079 29.3672V36.7832H111.079V29.5112C111.079 28.5352 110.887 27.8392 110.503 27.4232C110.135 26.9912 109.575 26.7752 108.823 26.7752C107.895 26.7752 107.159 27.0632 106.615 27.6392C106.071 28.2152 105.799 28.9832 105.799 29.9432V36.7832H102.799Z" fill="white"/>
<path d="M279.728 28.8439C280.313 28.2581 280.313 27.3083 279.728 26.7225L270.182 17.1766C269.596 16.5908 268.646 16.5908 268.06 17.1766C267.475 17.7624 267.475 18.7121 268.06 19.2979L276.546 27.7832L268.06 36.2685C267.475 36.8543 267.475 37.804 268.06 38.3898C268.646 38.9756 269.596 38.9756 270.182 38.3898L279.728 28.8439ZM212.667 29.2832H278.667V26.2832H212.667V29.2832Z" fill="white"/>
<rect x="3.66699" y="1.7832" width="310" height="52" rx="11" stroke="black" stroke-width="2"/>
<rect x="3.66699" y="79.7832" width="310" height="52" rx="11" fill="#9E0044"/>
<path d="M40.5781 114.783V97.8632H47.9941C49.8341 97.8632 51.2501 98.2552 52.2421 99.0392C53.2341 99.8072 53.7301 100.879 53.7301 102.255C53.7301 103.279 53.4261 104.143 52.8181 104.847C52.2101 105.551 51.3701 106.023 50.2981 106.263V105.903C51.5301 106.079 52.4821 106.527 53.1541 107.247C53.8421 107.951 54.1861 108.887 54.1861 110.055C54.1861 111.559 53.6661 112.727 52.6261 113.559C51.5861 114.375 50.1381 114.783 48.2821 114.783H40.5781ZM43.5541 112.431H47.9221C48.9621 112.431 49.7701 112.239 50.3461 111.855C50.9221 111.455 51.2101 110.807 51.2101 109.911C51.2101 108.999 50.9221 108.351 50.3461 107.967C49.7701 107.567 48.9621 107.367 47.9221 107.367H43.5541V112.431ZM43.5541 105.039H47.4661C48.5701 105.039 49.3861 104.839 49.9141 104.439C50.4581 104.023 50.7301 103.415 50.7301 102.615C50.7301 101.815 50.4581 101.215 49.9141 100.815C49.3861 100.399 48.5701 100.191 47.4661 100.191H43.5541V105.039ZM61.2764 115.023C59.7884 115.023 58.6764 114.615 57.9404 113.799C57.2044 112.983 56.8364 111.735 56.8364 110.055V102.663H59.8364V110.031C59.8364 110.927 60.0204 111.591 60.3884 112.023C60.7564 112.439 61.3164 112.647 62.0684 112.647C62.9164 112.647 63.6044 112.359 64.1324 111.783C64.6764 111.207 64.9484 110.447 64.9484 109.503V102.663H67.9484V114.783H65.0204V112.311H65.3564C65.0044 113.175 64.4684 113.847 63.7484 114.327C63.0444 114.791 62.2204 115.023 61.2764 115.023ZM76.3892 115.023C74.9492 115.023 73.8612 114.647 73.1252 113.895C72.3892 113.143 72.0212 112.015 72.0212 110.511V104.919H69.6932V102.663H72.0212V99.5672L75.0212 98.7992V102.663H78.2612V104.919H75.0212V110.319C75.0212 111.151 75.1812 111.735 75.5012 112.071C75.8212 112.407 76.2612 112.575 76.8212 112.575C77.1252 112.575 77.3812 112.551 77.5892 112.503C77.8132 112.455 78.0292 112.391 78.2372 112.311V114.687C77.9652 114.799 77.6612 114.879 77.3252 114.927C77.0052 114.991 76.6932 115.023 76.3892 115.023ZM84.8033 115.023C83.3633 115.023 82.2753 114.647 81.5393 113.895C80.8033 113.143 80.4353 112.015 80.4353 110.511V104.919H78.1073V102.663H80.4353V99.5672L83.4353 98.7992V102.663H86.6753V104.919H83.4353V110.319C83.4353 111.151 83.5953 111.735 83.9153 112.071C84.2353 112.407 84.6753 112.575 85.2353 112.575C85.5393 112.575 85.7953 112.551 86.0033 112.503C86.2273 112.455 86.4433 112.391 86.6513 112.311V114.687C86.3793 114.799 86.0753 114.879 85.7393 114.927C85.4193 114.991 85.1073 115.023 84.8033 115.023ZM94.0679 115.023C92.8199 115.023 91.7399 114.767 90.8279 114.255C89.9159 113.743 89.2039 113.015 88.6919 112.071C88.1959 111.127 87.9479 110.007 87.9479 108.711C87.9479 107.415 88.1959 106.303 88.6919 105.375C89.2039 104.431 89.9159 103.703 90.8279 103.191C91.7399 102.679 92.8199 102.423 94.0679 102.423C95.3159 102.423 96.3959 102.679 97.3079 103.191C98.2359 103.703 98.9479 104.431 99.4439 105.375C99.9559 106.303 100.212 107.415 100.212 108.711C100.212 110.007 99.9559 111.127 99.4439 112.071C98.9479 113.015 98.2359 113.743 97.3079 114.255C96.3959 114.767 95.3159 115.023 94.0679 115.023ZM94.0679 112.719C95.0119 112.719 95.7639 112.391 96.3239 111.735C96.8839 111.063 97.1639 110.055 97.1639 108.711C97.1639 107.367 96.8839 106.367 96.3239 105.711C95.7639 105.055 95.0119 104.727 94.0679 104.727C93.1239 104.727 92.3719 105.055 91.8119 105.711C91.2519 106.367 90.9719 107.367 90.9719 108.711C90.9719 110.055 91.2519 111.063 91.8119 111.735C92.3719 112.391 93.1239 112.719 94.0679 112.719ZM102.799 114.783V105.687C102.799 105.191 102.783 104.687 102.751 104.175C102.719 103.663 102.671 103.159 102.607 102.663H105.511L105.751 105.063H105.463C105.847 104.215 106.415 103.567 107.167 103.119C107.919 102.655 108.791 102.423 109.783 102.423C111.207 102.423 112.279 102.823 112.999 103.623C113.719 104.423 114.079 105.671 114.079 107.367V114.783H111.079V107.511C111.079 106.535 110.887 105.839 110.503 105.423C110.135 104.991 109.575 104.775 108.823 104.775C107.895 104.775 107.159 105.063 106.615 105.639C106.071 106.215 105.799 106.983 105.799 107.943V114.783H102.799Z" fill="white"/>
<path d="M279.728 106.844C280.313 106.258 280.313 105.308 279.728 104.723L270.182 95.1766C269.596 94.5908 268.646 94.5908 268.06 95.1766C267.475 95.7624 267.475 96.7121 268.06 97.2979L276.546 105.783L268.06 114.268C267.475 114.854 267.475 115.804 268.06 116.39C268.646 116.976 269.596 116.976 270.182 116.39L279.728 106.844ZM212.667 107.283H278.667V104.283H212.667V107.283Z" fill="white"/>
<rect x="3.66699" y="79.7832" width="310" height="52" rx="11" stroke="#9E0044" stroke-width="2"/>
<rect x="3.66699" y="157.783" width="310" height="52" rx="11" fill="#211BC6"/>
<path d="M40.5781 192.783V175.863H47.9941C49.8341 175.863 51.2501 176.255 52.2421 177.039C53.2341 177.807 53.7301 178.879 53.7301 180.255C53.7301 181.279 53.4261 182.143 52.8181 182.847C52.2101 183.551 51.3701 184.023 50.2981 184.263V183.903C51.5301 184.079 52.4821 184.527 53.1541 185.247C53.8421 185.951 54.1861 186.887 54.1861 188.055C54.1861 189.559 53.6661 190.727 52.6261 191.559C51.5861 192.375 50.1381 192.783 48.2821 192.783H40.5781ZM43.5541 190.431H47.9221C48.9621 190.431 49.7701 190.239 50.3461 189.855C50.9221 189.455 51.2101 188.807 51.2101 187.911C51.2101 186.999 50.9221 186.351 50.3461 185.967C49.7701 185.567 48.9621 185.367 47.9221 185.367H43.5541V190.431ZM43.5541 183.039H47.4661C48.5701 183.039 49.3861 182.839 49.9141 182.439C50.4581 182.023 50.7301 181.415 50.7301 180.615C50.7301 179.815 50.4581 179.215 49.9141 178.815C49.3861 178.399 48.5701 178.191 47.4661 178.191H43.5541V183.039ZM61.2764 193.023C59.7884 193.023 58.6764 192.615 57.9404 191.799C57.2044 190.983 56.8364 189.735 56.8364 188.055V180.663H59.8364V188.031C59.8364 188.927 60.0204 189.591 60.3884 190.023C60.7564 190.439 61.3164 190.647 62.0684 190.647C62.9164 190.647 63.6044 190.359 64.1324 189.783C64.6764 189.207 64.9484 188.447 64.9484 187.503V180.663H67.9484V192.783H65.0204V190.311H65.3564C65.0044 191.175 64.4684 191.847 63.7484 192.327C63.0444 192.791 62.2204 193.023 61.2764 193.023ZM76.3892 193.023C74.9492 193.023 73.8612 192.647 73.1252 191.895C72.3892 191.143 72.0212 190.015 72.0212 188.511V182.919H69.6932V180.663H72.0212V177.567L75.0212 176.799V180.663H78.2612V182.919H75.0212V188.319C75.0212 189.151 75.1812 189.735 75.5012 190.071C75.8212 190.407 76.2612 190.575 76.8212 190.575C77.1252 190.575 77.3812 190.551 77.5892 190.503C77.8132 190.455 78.0292 190.391 78.2372 190.311V192.687C77.9652 192.799 77.6612 192.879 77.3252 192.927C77.0052 192.991 76.6932 193.023 76.3892 193.023ZM84.8033 193.023C83.3633 193.023 82.2753 192.647 81.5393 191.895C80.8033 191.143 80.4353 190.015 80.4353 188.511V182.919H78.1073V180.663H80.4353V177.567L83.4353 176.799V180.663H86.6753V182.919H83.4353V188.319C83.4353 189.151 83.5953 189.735 83.9153 190.071C84.2353 190.407 84.6753 190.575 85.2353 190.575C85.5393 190.575 85.7953 190.551 86.0033 190.503C86.2273 190.455 86.4433 190.391 86.6513 190.311V192.687C86.3793 192.799 86.0753 192.879 85.7393 192.927C85.4193 192.991 85.1073 193.023 84.8033 193.023ZM94.0679 193.023C92.8199 193.023 91.7399 192.767 90.8279 192.255C89.9159 191.743 89.2039 191.015 88.6919 190.071C88.1959 189.127 87.9479 188.007 87.9479 186.711C87.9479 185.415 88.1959 184.303 88.6919 183.375C89.2039 182.431 89.9159 181.703 90.8279 181.191C91.7399 180.679 92.8199 180.423 94.0679 180.423C95.3159 180.423 96.3959 180.679 97.3079 181.191C98.2359 181.703 98.9479 182.431 99.4439 183.375C99.9559 184.303 100.212 185.415 100.212 186.711C100.212 188.007 99.9559 189.127 99.4439 190.071C98.9479 191.015 98.2359 191.743 97.3079 192.255C96.3959 192.767 95.3159 193.023 94.0679 193.023ZM94.0679 190.719C95.0119 190.719 95.7639 190.391 96.3239 189.735C96.8839 189.063 97.1639 188.055 97.1639 186.711C97.1639 185.367 96.8839 184.367 96.3239 183.711C95.7639 183.055 95.0119 182.727 94.0679 182.727C93.1239 182.727 92.3719 183.055 91.8119 183.711C91.2519 184.367 90.9719 185.367 90.9719 186.711C90.9719 188.055 91.2519 189.063 91.8119 189.735C92.3719 190.391 93.1239 190.719 94.0679 190.719ZM102.799 192.783V183.687C102.799 183.191 102.783 182.687 102.751 182.175C102.719 181.663 102.671 181.159 102.607 180.663H105.511L105.751 183.063H105.463C105.847 182.215 106.415 181.567 107.167 181.119C107.919 180.655 108.791 180.423 109.783 180.423C111.207 180.423 112.279 180.823 112.999 181.623C113.719 182.423 114.079 183.671 114.079 185.367V192.783H111.079V185.511C111.079 184.535 110.887 183.839 110.503 183.423C110.135 182.991 109.575 182.775 108.823 182.775C107.895 182.775 107.159 183.063 106.615 183.639C106.071 184.215 105.799 184.983 105.799 185.943V192.783H102.799Z" fill="white"/>
<path d="M279.728 184.844C280.313 184.258 280.313 183.308 279.728 182.723L270.182 173.177C269.596 172.591 268.646 172.591 268.06 173.177C267.475 173.762 267.475 174.712 268.06 175.298L276.546 183.783L268.06 192.268C267.475 192.854 267.475 193.804 268.06 194.39C268.646 194.976 269.596 194.976 270.182 194.39L279.728 184.844ZM212.667 185.283H278.667V182.283H212.667V185.283Z" fill="white"/>
<rect x="3.66699" y="157.783" width="310" height="52" rx="11" stroke="#211BC6" stroke-width="2"/>
<rect x="3.66699" y="235.783" width="310" height="52" rx="11" fill="#004845"/>
<path d="M40.5781 270.783V253.863H47.9941C49.8341 253.863 51.2501 254.255 52.2421 255.039C53.2341 255.807 53.7301 256.879 53.7301 258.255C53.7301 259.279 53.4261 260.143 52.8181 260.847C52.2101 261.551 51.3701 262.023 50.2981 262.263V261.903C51.5301 262.079 52.4821 262.527 53.1541 263.247C53.8421 263.951 54.1861 264.887 54.1861 266.055C54.1861 267.559 53.6661 268.727 52.6261 269.559C51.5861 270.375 50.1381 270.783 48.2821 270.783H40.5781ZM43.5541 268.431H47.9221C48.9621 268.431 49.7701 268.239 50.3461 267.855C50.9221 267.455 51.2101 266.807 51.2101 265.911C51.2101 264.999 50.9221 264.351 50.3461 263.967C49.7701 263.567 48.9621 263.367 47.9221 263.367H43.5541V268.431ZM43.5541 261.039H47.4661C48.5701 261.039 49.3861 260.839 49.9141 260.439C50.4581 260.023 50.7301 259.415 50.7301 258.615C50.7301 257.815 50.4581 257.215 49.9141 256.815C49.3861 256.399 48.5701 256.191 47.4661 256.191H43.5541V261.039ZM61.2764 271.023C59.7884 271.023 58.6764 270.615 57.9404 269.799C57.2044 268.983 56.8364 267.735 56.8364 266.055V258.663H59.8364V266.031C59.8364 266.927 60.0204 267.591 60.3884 268.023C60.7564 268.439 61.3164 268.647 62.0684 268.647C62.9164 268.647 63.6044 268.359 64.1324 267.783C64.6764 267.207 64.9484 266.447 64.9484 265.503V258.663H67.9484V270.783H65.0204V268.311H65.3564C65.0044 269.175 64.4684 269.847 63.7484 270.327C63.0444 270.791 62.2204 271.023 61.2764 271.023ZM76.3892 271.023C74.9492 271.023 73.8612 270.647 73.1252 269.895C72.3892 269.143 72.0212 268.015 72.0212 266.511V260.919H69.6932V258.663H72.0212V255.567L75.0212 254.799V258.663H78.2612V260.919H75.0212V266.319C75.0212 267.151 75.1812 267.735 75.5012 268.071C75.8212 268.407 76.2612 268.575 76.8212 268.575C77.1252 268.575 77.3812 268.551 77.5892 268.503C77.8132 268.455 78.0292 268.391 78.2372 268.311V270.687C77.9652 270.799 77.6612 270.879 77.3252 270.927C77.0052 270.991 76.6932 271.023 76.3892 271.023ZM84.8033 271.023C83.3633 271.023 82.2753 270.647 81.5393 269.895C80.8033 269.143 80.4353 268.015 80.4353 266.511V260.919H78.1073V258.663H80.4353V255.567L83.4353 254.799V258.663H86.6753V260.919H83.4353V266.319C83.4353 267.151 83.5953 267.735 83.9153 268.071C84.2353 268.407 84.6753 268.575 85.2353 268.575C85.5393 268.575 85.7953 268.551 86.0033 268.503C86.2273 268.455 86.4433 268.391 86.6513 268.311V270.687C86.3793 270.799 86.0753 270.879 85.7393 270.927C85.4193 270.991 85.1073 271.023 84.8033 271.023ZM94.0679 271.023C92.8199 271.023 91.7399 270.767 90.8279 270.255C89.9159 269.743 89.2039 269.015 88.6919 268.071C88.1959 267.127 87.9479 266.007 87.9479 264.711C87.9479 263.415 88.1959 262.303 88.6919 261.375C89.2039 260.431 89.9159 259.703 90.8279 259.191C91.7399 258.679 92.8199 258.423 94.0679 258.423C95.3159 258.423 96.3959 258.679 97.3079 259.191C98.2359 259.703 98.9479 260.431 99.4439 261.375C99.9559 262.303 100.212 263.415 100.212 264.711C100.212 266.007 99.9559 267.127 99.4439 268.071C98.9479 269.015 98.2359 269.743 97.3079 270.255C96.3959 270.767 95.3159 271.023 94.0679 271.023ZM94.0679 268.719C95.0119 268.719 95.7639 268.391 96.3239 267.735C96.8839 267.063 97.1639 266.055 97.1639 264.711C97.1639 263.367 96.8839 262.367 96.3239 261.711C95.7639 261.055 95.0119 260.727 94.0679 260.727C93.1239 260.727 92.3719 261.055 91.8119 261.711C91.2519 262.367 90.9719 263.367 90.9719 264.711C90.9719 266.055 91.2519 267.063 91.8119 267.735C92.3719 268.391 93.1239 268.719 94.0679 268.719ZM102.799 270.783V261.687C102.799 261.191 102.783 260.687 102.751 260.175C102.719 259.663 102.671 259.159 102.607 258.663H105.511L105.751 261.063H105.463C105.847 260.215 106.415 259.567 107.167 259.119C107.919 258.655 108.791 258.423 109.783 258.423C111.207 258.423 112.279 258.823 112.999 259.623C113.719 260.423 114.079 261.671 114.079 263.367V270.783H111.079V263.511C111.079 262.535 110.887 261.839 110.503 261.423C110.135 260.991 109.575 260.775 108.823 260.775C107.895 260.775 107.159 261.063 106.615 261.639C106.071 262.215 105.799 262.983 105.799 263.943V270.783H102.799Z" fill="white"/>
<path d="M279.728 262.844C280.313 262.258 280.313 261.308 279.728 260.723L270.182 251.177C269.596 250.591 268.646 250.591 268.06 251.177C267.475 251.762 267.475 252.712 268.06 253.298L276.546 261.783L268.06 270.268C267.475 270.854 267.475 271.804 268.06 272.39C268.646 272.976 269.596 272.976 270.182 272.39L279.728 262.844ZM212.667 263.283H278.667V260.283H212.667V263.283Z" fill="white"/>
<rect x="3.66699" y="235.783" width="310" height="52" rx="11" stroke="#004845" stroke-width="2"/>
<rect x="3.66699" y="313.783" width="310" height="52" rx="11" fill="#7F0BA0"/>
<path d="M40.5781 348.783V331.863H47.9941C49.8341 331.863 51.2501 332.255 52.2421 333.039C53.2341 333.807 53.7301 334.879 53.7301 336.255C53.7301 337.279 53.4261 338.143 52.8181 338.847C52.2101 339.551 51.3701 340.023 50.2981 340.263V339.903C51.5301 340.079 52.4821 340.527 53.1541 341.247C53.8421 341.951 54.1861 342.887 54.1861 344.055C54.1861 345.559 53.6661 346.727 52.6261 347.559C51.5861 348.375 50.1381 348.783 48.2821 348.783H40.5781ZM43.5541 346.431H47.9221C48.9621 346.431 49.7701 346.239 50.3461 345.855C50.9221 345.455 51.2101 344.807 51.2101 343.911C51.2101 342.999 50.9221 342.351 50.3461 341.967C49.7701 341.567 48.9621 341.367 47.9221 341.367H43.5541V346.431ZM43.5541 339.039H47.4661C48.5701 339.039 49.3861 338.839 49.9141 338.439C50.4581 338.023 50.7301 337.415 50.7301 336.615C50.7301 335.815 50.4581 335.215 49.9141 334.815C49.3861 334.399 48.5701 334.191 47.4661 334.191H43.5541V339.039ZM61.2764 349.023C59.7884 349.023 58.6764 348.615 57.9404 347.799C57.2044 346.983 56.8364 345.735 56.8364 344.055V336.663H59.8364V344.031C59.8364 344.927 60.0204 345.591 60.3884 346.023C60.7564 346.439 61.3164 346.647 62.0684 346.647C62.9164 346.647 63.6044 346.359 64.1324 345.783C64.6764 345.207 64.9484 344.447 64.9484 343.503V336.663H67.9484V348.783H65.0204V346.311H65.3564C65.0044 347.175 64.4684 347.847 63.7484 348.327C63.0444 348.791 62.2204 349.023 61.2764 349.023ZM76.3892 349.023C74.9492 349.023 73.8612 348.647 73.1252 347.895C72.3892 347.143 72.0212 346.015 72.0212 344.511V338.919H69.6932V336.663H72.0212V333.567L75.0212 332.799V336.663H78.2612V338.919H75.0212V344.319C75.0212 345.151 75.1812 345.735 75.5012 346.071C75.8212 346.407 76.2612 346.575 76.8212 346.575C77.1252 346.575 77.3812 346.551 77.5892 346.503C77.8132 346.455 78.0292 346.391 78.2372 346.311V348.687C77.9652 348.799 77.6612 348.879 77.3252 348.927C77.0052 348.991 76.6932 349.023 76.3892 349.023ZM84.8033 349.023C83.3633 349.023 82.2753 348.647 81.5393 347.895C80.8033 347.143 80.4353 346.015 80.4353 344.511V338.919H78.1073V336.663H80.4353V333.567L83.4353 332.799V336.663H86.6753V338.919H83.4353V344.319C83.4353 345.151 83.5953 345.735 83.9153 346.071C84.2353 346.407 84.6753 346.575 85.2353 346.575C85.5393 346.575 85.7953 346.551 86.0033 346.503C86.2273 346.455 86.4433 346.391 86.6513 346.311V348.687C86.3793 348.799 86.0753 348.879 85.7393 348.927C85.4193 348.991 85.1073 349.023 84.8033 349.023ZM94.0679 349.023C92.8199 349.023 91.7399 348.767 90.8279 348.255C89.9159 347.743 89.2039 347.015 88.6919 346.071C88.1959 345.127 87.9479 344.007 87.9479 342.711C87.9479 341.415 88.1959 340.303 88.6919 339.375C89.2039 338.431 89.9159 337.703 90.8279 337.191C91.7399 336.679 92.8199 336.423 94.0679 336.423C95.3159 336.423 96.3959 336.679 97.3079 337.191C98.2359 337.703 98.9479 338.431 99.4439 339.375C99.9559 340.303 100.212 341.415 100.212 342.711C100.212 344.007 99.9559 345.127 99.4439 346.071C98.9479 347.015 98.2359 347.743 97.3079 348.255C96.3959 348.767 95.3159 349.023 94.0679 349.023ZM94.0679 346.719C95.0119 346.719 95.7639 346.391 96.3239 345.735C96.8839 345.063 97.1639 344.055 97.1639 342.711C97.1639 341.367 96.8839 340.367 96.3239 339.711C95.7639 339.055 95.0119 338.727 94.0679 338.727C93.1239 338.727 92.3719 339.055 91.8119 339.711C91.2519 340.367 90.9719 341.367 90.9719 342.711C90.9719 344.055 91.2519 345.063 91.8119 345.735C92.3719 346.391 93.1239 346.719 94.0679 346.719ZM102.799 348.783V339.687C102.799 339.191 102.783 338.687 102.751 338.175C102.719 337.663 102.671 337.159 102.607 336.663H105.511L105.751 339.063H105.463C105.847 338.215 106.415 337.567 107.167 337.119C107.919 336.655 108.791 336.423 109.783 336.423C111.207 336.423 112.279 336.823 112.999 337.623C113.719 338.423 114.079 339.671 114.079 341.367V348.783H111.079V341.511C111.079 340.535 110.887 339.839 110.503 339.423C110.135 338.991 109.575 338.775 108.823 338.775C107.895 338.775 107.159 339.063 106.615 339.639C106.071 340.215 105.799 340.983 105.799 341.943V348.783H102.799Z" fill="white"/>
<path d="M279.728 340.844C280.313 340.258 280.313 339.308 279.728 338.723L270.182 329.177C269.596 328.591 268.646 328.591 268.06 329.177C267.475 329.762 267.475 330.712 268.06 331.298L276.546 339.783L268.06 348.268C267.475 348.854 267.475 349.804 268.06 350.39C268.646 350.976 269.596 350.976 270.182 350.39L279.728 340.844ZM212.667 341.283H278.667V338.283H212.667V341.283Z" fill="white"/>
<rect x="3.66699" y="313.783" width="310" height="52" rx="11" stroke="#7F0BA0" stroke-width="2"/>
<path d="M316.101 416.179C316.871 415.388 316.853 414.122 316.06 413.351L303.15 400.79C302.357 400.019 301.091 400.035 300.322 400.826C299.552 401.617 299.57 402.884 300.362 403.654L311.838 414.82L300.689 426.28C299.919 427.071 299.938 428.337 300.73 429.108C301.522 429.878 302.788 429.862 303.558 429.071L316.101 416.179ZM237.75 417.783L314.696 416.783L314.638 412.783L237.692 413.783L237.75 417.783Z" fill="black"/>
<path d="M1.25312 414.369C0.472073 415.15 0.472073 416.416 1.25312 417.197L13.981 429.925C14.7621 430.706 16.0284 430.706 16.8095 429.925C17.5905 429.144 17.5905 427.878 16.8095 427.097L5.49576 415.783L16.8095 404.469C17.5905 403.688 17.5905 402.422 16.8095 401.641C16.0284 400.86 14.7621 400.86 13.981 401.641L1.25312 414.369ZM79.6133 413.783H2.66734V417.783H79.6133V413.783Z" fill="black"/>
</svg>
