<svg width="326" height="602" viewBox="0 0 326 602" fill="none" xmlns="http://www.w3.org/2000/svg">
<path d="M62.875 64.3192C62.875 66.9219 62.2777 69.3112 61.083 71.4872C59.8883 73.6205 58.0537 75.3485 55.579 76.6712C53.1043 77.9939 50.0323 78.6552 46.363 78.6552H39.579V94.7832H28.635V49.8552H46.363C49.947 49.8552 52.9763 50.4739 55.451 51.7112C57.9257 52.9485 59.7817 54.6552 61.019 56.8312C62.2563 59.0072 62.875 61.5032 62.875 64.3192ZM45.531 69.9512C47.6217 69.9512 49.179 69.4605 50.203 68.4792C51.227 67.4979 51.739 66.1112 51.739 64.3192C51.739 62.5272 51.227 61.1405 50.203 60.1592C49.179 59.1779 47.6217 58.6872 45.531 58.6872H39.579V69.9512H45.531ZM84.8285 95.2952C81.3298 95.2952 78.1725 94.5485 75.3565 93.0552C72.5832 91.5619 70.3858 89.4285 68.7645 86.6552C67.1858 83.8819 66.3965 80.6392 66.3965 76.9272C66.3965 73.2579 67.2072 70.0365 68.8285 67.2632C70.4498 64.4472 72.6685 62.2925 75.4845 60.7992C78.3005 59.3059 81.4578 58.5592 84.9565 58.5592C88.4552 58.5592 91.6125 59.3059 94.4285 60.7992C97.2445 62.2925 99.4632 64.4472 101.084 67.2632C102.706 70.0365 103.516 73.2579 103.516 76.9272C103.516 80.5965 102.684 83.8392 101.02 86.6552C99.3992 89.4285 97.1592 91.5619 94.3005 93.0552C91.4845 94.5485 88.3272 95.2952 84.8285 95.2952ZM84.8285 85.8232C86.9192 85.8232 88.6898 85.0552 90.1405 83.5192C91.6338 81.9832 92.3805 79.7859 92.3805 76.9272C92.3805 74.0685 91.6552 71.8712 90.2045 70.3352C88.7965 68.7992 87.0472 68.0312 84.9565 68.0312C82.8232 68.0312 81.0525 68.7992 79.6445 70.3352C78.2365 71.8285 77.5325 74.0259 77.5325 76.9272C77.5325 79.7859 78.2152 81.9832 79.5805 83.5192C80.9885 85.0552 82.7378 85.8232 84.8285 85.8232ZM120.266 64.1272C121.333 62.4632 122.805 61.1192 124.682 60.0952C126.56 59.0712 128.757 58.5592 131.274 58.5592C134.218 58.5592 136.885 59.3059 139.274 60.7992C141.664 62.2925 143.541 64.4259 144.906 67.1992C146.314 69.9725 147.018 73.1939 147.018 76.8632C147.018 80.5325 146.314 83.7752 144.906 86.5912C143.541 89.3645 141.664 91.5192 139.274 93.0552C136.885 94.5485 134.218 95.2952 131.274 95.2952C128.8 95.2952 126.602 94.7832 124.682 93.7592C122.805 92.7352 121.333 91.4125 120.266 89.7912V111.807H109.322V59.0712H120.266V64.1272ZM135.882 76.8632C135.882 74.1325 135.114 71.9992 133.578 70.4632C132.085 68.8845 130.229 68.0952 128.01 68.0952C125.834 68.0952 123.978 68.8845 122.442 70.4632C120.949 72.0419 120.202 74.1965 120.202 76.9272C120.202 79.6579 120.949 81.8125 122.442 83.3912C123.978 84.9699 125.834 85.7592 128.01 85.7592C130.186 85.7592 132.042 84.9699 133.578 83.3912C135.114 81.7699 135.882 79.5939 135.882 76.8632ZM163.704 64.1272C164.771 62.4632 166.243 61.1192 168.12 60.0952C169.997 59.0712 172.195 58.5592 174.712 58.5592C177.656 58.5592 180.323 59.3059 182.712 60.7992C185.101 62.2925 186.979 64.4259 188.344 67.1992C189.752 69.9725 190.456 73.1939 190.456 76.8632C190.456 80.5325 189.752 83.7752 188.344 86.5912C186.979 89.3645 185.101 91.5192 182.712 93.0552C180.323 94.5485 177.656 95.2952 174.712 95.2952C172.237 95.2952 170.04 94.7832 168.12 93.7592C166.243 92.7352 164.771 91.4125 163.704 89.7912V111.807H152.76V59.0712H163.704V64.1272ZM179.32 76.8632C179.32 74.1325 178.552 71.9992 177.016 70.4632C175.523 68.8845 173.667 68.0952 171.448 68.0952C169.272 68.0952 167.416 68.8845 165.88 70.4632C164.387 72.0419 163.64 74.1965 163.64 76.9272C163.64 79.6579 164.387 81.8125 165.88 83.3912C167.416 84.9699 169.272 85.7592 171.448 85.7592C173.624 85.7592 175.48 84.9699 177.016 83.3912C178.552 81.7699 179.32 79.5939 179.32 76.8632ZM201.701 55.3592C199.781 55.3592 198.203 54.8045 196.965 53.6952C195.771 52.5432 195.173 51.1352 195.173 49.4712C195.173 47.7645 195.771 46.3565 196.965 45.2472C198.203 44.0952 199.781 43.5192 201.701 43.5192C203.579 43.5192 205.115 44.0952 206.309 45.2472C207.547 46.3565 208.165 47.7645 208.165 49.4712C208.165 51.1352 207.547 52.5432 206.309 53.6952C205.115 54.8045 203.579 55.3592 201.701 55.3592ZM207.141 59.0712V94.7832H196.197V59.0712H207.141ZM236.832 58.6872C241.014 58.6872 244.342 60.0525 246.816 62.7832C249.334 65.4712 250.592 69.1832 250.592 73.9192V94.7832H239.712V75.3912C239.712 73.0019 239.094 71.1459 237.856 69.8232C236.619 68.5005 234.955 67.8392 232.864 67.8392C230.774 67.8392 229.11 68.5005 227.872 69.8232C226.635 71.1459 226.016 73.0019 226.016 75.3912V94.7832H215.072V59.0712H226.016V63.8072C227.126 62.2285 228.619 60.9912 230.496 60.0952C232.374 59.1565 234.486 58.6872 236.832 58.6872ZM272.725 95.2952C269.611 95.2952 266.837 94.7619 264.405 93.6952C261.973 92.6285 260.053 91.1779 258.645 89.3432C257.237 87.4659 256.448 85.3752 256.277 83.0712H267.093C267.221 84.3085 267.797 85.3112 268.821 86.0792C269.845 86.8472 271.104 87.2312 272.597 87.2312C273.963 87.2312 275.008 86.9752 275.733 86.4632C276.501 85.9085 276.885 85.2045 276.885 84.3512C276.885 83.3272 276.352 82.5805 275.285 82.1112C274.219 81.5992 272.491 81.0445 270.101 80.4472C267.541 79.8499 265.408 79.2312 263.701 78.5912C261.995 77.9085 260.523 76.8632 259.285 75.4552C258.048 74.0045 257.429 72.0632 257.429 69.6312C257.429 67.5832 257.984 65.7272 259.093 64.0632C260.245 62.3565 261.909 61.0125 264.085 60.0312C266.304 59.0499 268.928 58.5592 271.957 58.5592C276.437 58.5592 279.957 59.6685 282.517 61.8872C285.12 64.1059 286.613 67.0499 286.997 70.7192H276.885C276.715 69.4819 276.16 68.5005 275.221 67.7752C274.325 67.0499 273.131 66.6872 271.637 66.6872C270.357 66.6872 269.376 66.9432 268.693 67.4552C268.011 67.9245 267.669 68.5859 267.669 69.4392C267.669 70.4632 268.203 71.2312 269.269 71.7432C270.379 72.2552 272.085 72.7672 274.389 73.2792C277.035 73.9619 279.189 74.6445 280.853 75.3272C282.517 75.9672 283.968 77.0339 285.205 78.5272C286.485 79.9779 287.147 81.9405 287.189 84.4152C287.189 86.5059 286.592 88.3832 285.397 90.0472C284.245 91.6685 282.56 92.9485 280.341 93.8872C278.165 94.8259 275.627 95.2952 272.725 95.2952Z" fill="black"/>
<path d="M38.875 167.783L33.563 158.663H30.043V167.783H27.131V145.479H34.331C36.0163 145.479 37.435 145.767 38.587 146.343C39.7603 146.919 40.635 147.698 41.211 148.679C41.787 149.661 42.075 150.781 42.075 152.039C42.075 153.575 41.627 154.93 40.731 156.103C39.8563 157.277 38.5337 158.055 36.763 158.439L42.363 167.783H38.875ZM30.043 156.327H34.331C35.9097 156.327 37.0937 155.943 37.883 155.175C38.6723 154.386 39.067 153.341 39.067 152.039C39.067 150.717 38.6723 149.693 37.883 148.967C37.115 148.242 35.931 147.879 34.331 147.879H30.043V156.327ZM62.5997 158.343C62.5997 158.898 62.5677 159.485 62.5037 160.103H48.4877C48.5944 161.831 49.1811 163.186 50.2477 164.167C51.3357 165.127 52.6477 165.607 54.1837 165.607C55.4424 165.607 56.4877 165.319 57.3197 164.743C58.1731 164.146 58.7704 163.357 59.1117 162.375H62.2477C61.7784 164.061 60.8397 165.437 59.4317 166.503C58.0237 167.549 56.2744 168.071 54.1837 168.071C52.5197 168.071 51.0264 167.698 49.7037 166.951C48.4024 166.205 47.3784 165.149 46.6317 163.783C45.8851 162.397 45.5117 160.797 45.5117 158.983C45.5117 157.17 45.8744 155.581 46.5997 154.215C47.3251 152.85 48.3384 151.805 49.6397 151.079C50.9624 150.333 52.4771 149.959 54.1837 149.959C55.8477 149.959 57.3197 150.322 58.5997 151.047C59.8797 151.773 60.8611 152.775 61.5437 154.055C62.2477 155.314 62.5997 156.743 62.5997 158.343ZM59.5917 157.735C59.5917 156.626 59.3464 155.677 58.8557 154.887C58.3651 154.077 57.6931 153.469 56.8397 153.063C56.0077 152.637 55.0797 152.423 54.0557 152.423C52.5837 152.423 51.3251 152.893 50.2797 153.831C49.2557 154.77 48.6691 156.071 48.5197 157.735H59.5917ZM73.6755 149.959C75.1902 149.959 76.5128 150.29 77.6435 150.951C78.7955 151.613 79.6488 152.445 80.2035 153.447V150.247H83.1475V168.167C83.1475 169.767 82.8062 171.186 82.1235 172.423C81.4408 173.682 80.4595 174.663 79.1795 175.367C77.9208 176.071 76.4488 176.423 74.7635 176.423C72.4595 176.423 70.5395 175.879 69.0035 174.791C67.4675 173.703 66.5608 172.221 66.2835 170.343H69.1635C69.4835 171.41 70.1448 172.263 71.1475 172.903C72.1502 173.565 73.3555 173.895 74.7635 173.895C76.3635 173.895 77.6648 173.394 78.6675 172.391C79.6915 171.389 80.2035 169.981 80.2035 168.167V164.487C79.6275 165.511 78.7742 166.365 77.6435 167.047C76.5128 167.73 75.1902 168.071 73.6755 168.071C72.1182 168.071 70.6995 167.687 69.4195 166.919C68.1608 166.151 67.1688 165.074 66.4435 163.687C65.7182 162.301 65.3555 160.722 65.3555 158.951C65.3555 157.159 65.7182 155.591 66.4435 154.247C67.1688 152.882 68.1608 151.826 69.4195 151.079C70.6995 150.333 72.1182 149.959 73.6755 149.959ZM80.2035 158.983C80.2035 157.661 79.9368 156.509 79.4035 155.527C78.8702 154.546 78.1448 153.799 77.2275 153.287C76.3315 152.754 75.3395 152.487 74.2515 152.487C73.1635 152.487 72.1715 152.743 71.2755 153.255C70.3795 153.767 69.6648 154.514 69.1315 155.495C68.5982 156.477 68.3315 157.629 68.3315 158.951C68.3315 160.295 68.5982 161.469 69.1315 162.471C69.6648 163.453 70.3795 164.21 71.2755 164.743C72.1715 165.255 73.1635 165.511 74.2515 165.511C75.3395 165.511 76.3315 165.255 77.2275 164.743C78.1448 164.21 78.8702 163.453 79.4035 162.471C79.9368 161.469 80.2035 160.306 80.2035 158.983ZM103.62 150.247V167.783H100.708V165.191C100.154 166.087 99.3752 166.791 98.3725 167.303C97.3912 167.794 96.3032 168.039 95.1085 168.039C93.7432 168.039 92.5165 167.762 91.4285 167.207C90.3405 166.631 89.4765 165.778 88.8365 164.647C88.2178 163.517 87.9085 162.141 87.9085 160.519V150.247H90.7885V160.135C90.7885 161.863 91.2258 163.197 92.1005 164.135C92.9752 165.053 94.1698 165.511 95.6845 165.511C97.2418 165.511 98.4685 165.031 99.3645 164.071C100.26 163.111 100.708 161.714 100.708 159.879V150.247H103.62ZM111.449 144.103V167.783H108.537V144.103H111.449ZM115.324 158.951C115.324 157.159 115.687 155.591 116.412 154.247C117.138 152.882 118.13 151.826 119.388 151.079C120.668 150.333 122.087 149.959 123.644 149.959C125.18 149.959 126.514 150.29 127.644 150.951C128.775 151.613 129.618 152.445 130.172 153.447V150.247H133.116V167.783H130.172V164.519C129.596 165.543 128.732 166.397 127.58 167.079C126.45 167.741 125.127 168.071 123.612 168.071C122.055 168.071 120.647 167.687 119.388 166.919C118.13 166.151 117.138 165.074 116.412 163.687C115.687 162.301 115.324 160.722 115.324 158.951ZM130.172 158.983C130.172 157.661 129.906 156.509 129.372 155.527C128.839 154.546 128.114 153.799 127.196 153.287C126.3 152.754 125.308 152.487 124.22 152.487C123.132 152.487 122.14 152.743 121.244 153.255C120.348 153.767 119.634 154.514 119.1 155.495C118.567 156.477 118.3 157.629 118.3 158.951C118.3 160.295 118.567 161.469 119.1 162.471C119.634 163.453 120.348 164.21 121.244 164.743C122.14 165.255 123.132 165.511 124.22 165.511C125.308 165.511 126.3 165.255 127.196 164.743C128.114 164.21 128.839 163.453 129.372 162.471C129.906 161.469 130.172 160.306 130.172 158.983ZM140.949 153.095C141.461 152.093 142.187 151.314 143.125 150.759C144.085 150.205 145.248 149.927 146.613 149.927V152.935H145.845C142.581 152.935 140.949 154.706 140.949 158.247V167.783H138.037V150.247H140.949V153.095Z" fill="#767676"/>
<path d="M40.251 216.263C41.5523 216.541 42.5977 217.191 43.387 218.215C44.1763 219.218 44.571 220.37 44.571 221.671C44.571 223.549 43.9097 225.042 42.587 226.151C41.2857 227.239 39.4617 227.783 37.115 227.783H26.651V205.319H36.763C39.0457 205.319 40.827 205.842 42.107 206.887C43.4083 207.933 44.059 209.351 44.059 211.143C44.059 212.466 43.707 213.565 43.003 214.439C42.3203 215.314 41.403 215.922 40.251 216.263ZM32.123 214.407H35.707C36.603 214.407 37.2857 214.215 37.755 213.831C38.2457 213.426 38.491 212.839 38.491 212.071C38.491 211.303 38.2457 210.717 37.755 210.311C37.2857 209.906 36.603 209.703 35.707 209.703H32.123V214.407ZM36.155 223.367C37.0723 223.367 37.7763 223.165 38.267 222.759C38.779 222.333 39.035 221.725 39.035 220.935C39.035 220.146 38.7683 219.527 38.235 219.079C37.723 218.631 37.0083 218.407 36.091 218.407H32.123V223.367H36.155ZM55.8727 228.039C54.1234 228.039 52.5447 227.666 51.1367 226.919C49.7501 226.173 48.6514 225.106 47.8407 223.719C47.0514 222.333 46.6567 220.711 46.6567 218.855C46.6567 217.021 47.0621 215.41 47.8727 214.023C48.6834 212.615 49.7927 211.538 51.2007 210.791C52.6087 210.045 54.1874 209.671 55.9367 209.671C57.6861 209.671 59.2647 210.045 60.6727 210.791C62.0807 211.538 63.1901 212.615 64.0007 214.023C64.8114 215.41 65.2167 217.021 65.2167 218.855C65.2167 220.69 64.8007 222.311 63.9687 223.719C63.1581 225.106 62.0381 226.173 60.6087 226.919C59.2007 227.666 57.6221 228.039 55.8727 228.039ZM55.8727 223.303C56.9181 223.303 57.8034 222.919 58.5287 222.151C59.2754 221.383 59.6487 220.285 59.6487 218.855C59.6487 217.426 59.2861 216.327 58.5607 215.559C57.8567 214.791 56.9821 214.407 55.9367 214.407C54.8701 214.407 53.9847 214.791 53.2807 215.559C52.5767 216.306 52.2247 217.405 52.2247 218.855C52.2247 220.285 52.5661 221.383 53.2487 222.151C53.9527 222.919 54.8274 223.303 55.8727 223.303ZM73.5917 204.103V227.783H68.1197V204.103H73.5917ZM76.4692 218.823C76.4692 216.989 76.8106 215.378 77.4932 213.991C78.1972 212.605 79.1466 211.538 80.3412 210.791C81.5359 210.045 82.8692 209.671 84.3412 209.671C85.5146 209.671 86.5812 209.917 87.5412 210.407C88.5226 210.898 89.2906 211.559 89.8452 212.391V204.103H95.3172V227.783H89.8452V225.223C89.3332 226.077 88.5972 226.759 87.6372 227.271C86.6986 227.783 85.5999 228.039 84.3412 228.039C82.8692 228.039 81.5359 227.666 80.3412 226.919C79.1466 226.151 78.1972 225.074 77.4932 223.687C76.8106 222.279 76.4692 220.658 76.4692 218.823ZM89.8452 218.855C89.8452 217.49 89.4612 216.413 88.6932 215.623C87.9466 214.834 87.0292 214.439 85.9412 214.439C84.8532 214.439 83.9252 214.834 83.1572 215.623C82.4106 216.391 82.0372 217.458 82.0372 218.823C82.0372 220.189 82.4106 221.277 83.1572 222.087C83.9252 222.877 84.8532 223.271 85.9412 223.271C87.0292 223.271 87.9466 222.877 88.6932 222.087C89.4612 221.298 89.8452 220.221 89.8452 218.855Z" fill="#767676"/>
<path d="M41.435 276.167C42.8003 276.487 43.8563 277.149 44.603 278.151C45.371 279.133 45.755 280.274 45.755 281.575C45.755 283.559 45.0937 285.095 43.771 286.183C42.4697 287.25 40.5923 287.783 38.139 287.783H26.267V265.127H37.819C40.123 265.127 41.9363 265.629 43.259 266.631C44.5817 267.634 45.243 269.095 45.243 271.015C45.243 272.338 44.891 273.458 44.187 274.375C43.5043 275.271 42.587 275.869 41.435 276.167ZM33.371 273.959H36.123C36.763 273.959 37.2323 273.831 37.531 273.575C37.851 273.319 38.011 272.925 38.011 272.391C38.011 271.837 37.851 271.431 37.531 271.175C37.2323 270.898 36.763 270.759 36.123 270.759H33.371V273.959ZM36.603 282.087C37.243 282.087 37.7123 281.97 38.011 281.735C38.331 281.479 38.491 281.074 38.491 280.519C38.491 279.431 37.8617 278.887 36.603 278.887H33.371V282.087H36.603ZM55.246 264.103V287.783H48.142V264.103H55.246ZM57.4945 278.759C57.4945 276.861 57.8145 275.218 58.4545 273.831C59.1158 272.423 60.0118 271.357 61.1425 270.631C62.2732 269.885 63.5425 269.511 64.9505 269.511C66.1238 269.511 67.1372 269.757 67.9905 270.247C68.8438 270.717 69.4945 271.367 69.9425 272.199V269.735H77.0145V287.783H69.9425V285.319C69.4945 286.151 68.8438 286.813 67.9905 287.303C67.1372 287.773 66.1238 288.007 64.9505 288.007C63.5425 288.007 62.2732 287.645 61.1425 286.919C60.0118 286.173 59.1158 285.106 58.4545 283.719C57.8145 282.311 57.4945 280.658 57.4945 278.759ZM69.9425 278.759C69.9425 277.799 69.6972 277.053 69.2065 276.519C68.7158 275.986 68.0865 275.719 67.3185 275.719C66.5505 275.719 65.9212 275.986 65.4305 276.519C64.9398 277.053 64.6945 277.799 64.6945 278.759C64.6945 279.719 64.9398 280.466 65.4305 280.999C65.9212 281.533 66.5505 281.799 67.3185 281.799C68.0865 281.799 68.7158 281.533 69.2065 280.999C69.6972 280.466 69.9425 279.719 69.9425 278.759ZM79.2445 278.759C79.2445 276.882 79.6285 275.25 80.3965 273.863C81.1858 272.455 82.2738 271.378 83.6605 270.631C85.0685 269.885 86.6685 269.511 88.4605 269.511C90.8072 269.511 92.7805 270.173 94.3805 271.495C96.0018 272.818 97.0258 274.653 97.4525 276.999H89.9325C89.6552 276.061 89.1112 275.591 88.3005 275.591C87.7245 275.591 87.2658 275.858 86.9245 276.391C86.6045 276.925 86.4445 277.714 86.4445 278.759C86.4445 279.805 86.6045 280.594 86.9245 281.127C87.2658 281.661 87.7245 281.927 88.3005 281.927C89.1112 281.927 89.6552 281.458 89.9325 280.519H97.4525C97.0258 282.866 96.0018 284.701 94.3805 286.023C92.7805 287.346 90.8072 288.007 88.4605 288.007C86.6685 288.007 85.0685 287.634 83.6605 286.887C82.2738 286.141 81.1858 285.074 80.3965 283.687C79.6285 282.279 79.2445 280.637 79.2445 278.759ZM111.256 287.783L106.808 280.583V287.783H99.7045V264.103H106.808V276.487L111.32 269.735H119.576L112.824 278.823L119.736 287.783H111.256Z" fill="#767676"/>
<rect x="1.16699" y="1.2832" width="324.333" height="323" rx="11.5" stroke="black"/>
<path d="M29.723 457.783V412.663H36.955L53.531 449.975H51.547L68.123 412.663H75.291V457.783H67.803V424.311H70.107L54.939 457.783H50.011L34.843 424.311H37.211V457.783H29.723ZM96.3545 458.423C92.3865 458.423 89.4212 457.335 87.4585 455.159C85.4958 452.983 84.5145 449.655 84.5145 445.175V425.463H92.5145V445.111C92.5145 447.501 93.0052 449.271 93.9865 450.423C94.9678 451.533 96.4612 452.087 98.4665 452.087C100.728 452.087 102.562 451.319 103.97 449.783C105.421 448.247 106.146 446.221 106.146 443.703V425.463H114.146V457.783H106.338V451.191H107.234C106.296 453.495 104.866 455.287 102.946 456.567C101.069 457.805 98.8718 458.423 96.3545 458.423ZM122.831 457.783V410.679H130.831V457.783H122.831ZM139.519 457.783V425.463H147.519V457.783H139.519ZM139.071 419.383V411.575H147.967V419.383H139.071ZM167.726 458.423C164.953 458.423 162.393 458.103 160.046 457.463C157.742 456.781 155.801 455.842 154.222 454.647L156.462 449.271C158.084 450.381 159.876 451.234 161.838 451.831C163.801 452.429 165.785 452.727 167.79 452.727C169.924 452.727 171.502 452.365 172.526 451.639C173.593 450.914 174.126 449.933 174.126 448.695C174.126 447.714 173.785 446.946 173.102 446.391C172.462 445.794 171.417 445.346 169.966 445.047L163.566 443.831C160.836 443.234 158.745 442.21 157.294 440.759C155.886 439.309 155.182 437.41 155.182 435.063C155.182 433.058 155.716 431.287 156.782 429.751C157.892 428.215 159.449 427.021 161.454 426.167C163.502 425.271 165.892 424.823 168.622 424.823C171.012 424.823 173.252 425.143 175.342 425.783C177.476 426.423 179.268 427.383 180.718 428.663L178.414 433.847C177.092 432.781 175.577 431.949 173.87 431.351C172.164 430.754 170.5 430.455 168.878 430.455C166.66 430.455 165.038 430.861 164.014 431.671C162.99 432.439 162.478 433.442 162.478 434.679C162.478 435.618 162.777 436.407 163.374 437.047C164.014 437.645 164.996 438.093 166.318 438.391L172.718 439.607C175.577 440.162 177.732 441.143 179.182 442.551C180.676 443.917 181.422 445.794 181.422 448.183C181.422 450.317 180.846 452.151 179.694 453.687C178.542 455.223 176.942 456.397 174.894 457.207C172.846 458.018 170.457 458.423 167.726 458.423ZM188.269 457.783V410.679H196.269V431.927H195.373C196.354 429.623 197.869 427.874 199.917 426.679C201.965 425.442 204.312 424.823 206.957 424.823C210.797 424.823 213.656 425.911 215.533 428.087C217.41 430.221 218.349 433.485 218.349 437.879V457.783H210.349V438.263C210.349 435.746 209.858 433.933 208.877 432.823C207.938 431.671 206.424 431.095 204.333 431.095C201.901 431.095 199.938 431.863 198.445 433.399C196.994 434.893 196.269 436.898 196.269 439.415V457.783H188.269Z" fill="black"/>
<path d="M27.483 517.783V495.223H36.699C39.067 495.223 40.9017 495.789 42.203 496.919C43.5043 498.029 44.155 499.586 44.155 501.591C44.155 502.914 43.8563 504.045 43.259 504.983C42.683 505.901 41.8617 506.605 40.795 507.095C39.7497 507.586 38.523 507.831 37.115 507.831L37.691 507.415H38.331C39.2057 507.415 39.9843 507.629 40.667 508.055C41.371 508.482 41.9257 509.197 42.331 510.199L45.531 517.783H42.619L39.547 510.327C39.1843 509.367 38.6403 508.749 37.915 508.471C37.1897 508.173 36.283 508.023 35.195 508.023H30.139V517.783H27.483ZM30.139 505.943H36.315C38.0217 505.943 39.3123 505.581 40.187 504.855C41.083 504.109 41.531 503.042 41.531 501.655C41.531 500.269 41.083 499.213 40.187 498.487C39.3123 497.762 38.0217 497.399 36.315 497.399H30.139V505.943ZM56.1435 518.071C53.6262 518.071 51.6422 517.346 50.1915 515.895C48.7408 514.423 48.0155 512.386 48.0155 509.783C48.0155 508.098 48.3355 506.637 48.9755 505.399C49.6155 504.141 50.5115 503.17 51.6635 502.487C52.8155 501.783 54.1382 501.431 55.6315 501.431C57.1035 501.431 58.3408 501.741 59.3435 502.359C60.3462 502.978 61.1142 503.863 61.6475 505.015C62.1808 506.146 62.4475 507.49 62.4475 509.047V510.007H49.9995V508.375H60.7515L60.2075 508.791C60.2075 507.085 59.8235 505.751 59.0555 504.791C58.2875 503.831 57.1462 503.351 55.6315 503.351C54.0315 503.351 52.7835 503.917 51.8875 505.047C50.9915 506.157 50.5435 507.661 50.5435 509.559V509.847C50.5435 511.853 51.0342 513.378 52.0155 514.423C53.0182 515.447 54.4155 515.959 56.2075 515.959C57.1675 515.959 58.0635 515.821 58.8955 515.543C59.7488 515.245 60.5595 514.765 61.3275 514.103L62.2235 515.927C61.5195 516.61 60.6235 517.143 59.5355 517.527C58.4688 517.89 57.3382 518.071 56.1435 518.071ZM73.4857 524.919C72.0991 524.919 70.8191 524.749 69.6457 524.407C68.4724 524.066 67.4164 523.543 66.4777 522.839L67.2457 520.887C67.9071 521.357 68.5577 521.73 69.1977 522.007C69.8377 522.285 70.4991 522.487 71.1817 522.615C71.8644 522.765 72.5897 522.839 73.3577 522.839C74.9364 522.839 76.1311 522.423 76.9417 521.591C77.7524 520.759 78.1577 519.575 78.1577 518.039V513.335H78.4777C78.1364 514.594 77.4324 515.597 76.3657 516.343C75.2991 517.069 74.0511 517.431 72.6217 517.431C71.1497 517.431 69.8697 517.111 68.7817 516.471C67.7151 515.81 66.8831 514.882 66.2857 513.687C65.7097 512.471 65.4217 511.042 65.4217 509.399C65.4217 507.778 65.7097 506.37 66.2857 505.175C66.8831 503.981 67.7151 503.063 68.7817 502.423C69.8697 501.762 71.1497 501.431 72.6217 501.431C74.0724 501.431 75.3204 501.794 76.3657 502.519C77.4324 503.245 78.1364 504.247 78.4777 505.527L78.1577 505.207L78.4457 501.719H80.9737C80.8884 502.338 80.8244 502.967 80.7817 503.607C80.7391 504.226 80.7177 504.834 80.7177 505.431V517.687C80.7177 520.077 80.0991 521.879 78.8617 523.095C77.6457 524.311 75.8537 524.919 73.4857 524.919ZM73.1017 515.319C74.6591 515.319 75.8857 514.807 76.7817 513.783C77.6777 512.738 78.1257 511.277 78.1257 509.399C78.1257 507.522 77.6777 506.071 76.7817 505.047C75.8857 504.023 74.6591 503.511 73.1017 503.511C71.5657 503.511 70.3391 504.023 69.4217 505.047C68.5044 506.071 68.0457 507.522 68.0457 509.399C68.0457 511.277 68.5044 512.738 69.4217 513.783C70.3391 514.807 71.5657 515.319 73.1017 515.319ZM91.359 518.071C89.4603 518.071 88.0203 517.549 87.039 516.503C86.079 515.458 85.599 513.858 85.599 511.703V501.719H88.191V511.639C88.191 513.111 88.4897 514.199 89.087 514.903C89.6843 515.586 90.6123 515.927 91.871 515.927C93.279 515.927 94.4097 515.469 95.263 514.551C96.1163 513.634 96.543 512.407 96.543 510.871V501.719H99.135V517.783H96.607V514.167H97.023C96.575 515.405 95.8497 516.365 94.847 517.047C93.8657 517.73 92.703 518.071 91.359 518.071ZM104.164 517.783V494.231H106.756V517.783H104.164ZM117.901 518.071C116.471 518.071 115.223 517.741 114.157 517.079C113.09 516.397 112.258 515.437 111.661 514.199C111.085 512.962 110.797 511.479 110.797 509.751C110.797 508.002 111.085 506.509 111.661 505.271C112.258 504.034 113.09 503.085 114.157 502.423C115.223 501.762 116.471 501.431 117.901 501.431C119.351 501.431 120.599 501.805 121.645 502.551C122.711 503.277 123.415 504.269 123.757 505.527H123.373L123.725 501.719H126.221C126.157 502.338 126.093 502.967 126.029 503.607C125.986 504.226 125.965 504.834 125.965 505.431V517.783H123.373V514.007H123.725C123.383 515.266 122.679 516.258 121.613 516.983C120.546 517.709 119.309 518.071 117.901 518.071ZM118.413 515.959C119.949 515.959 121.165 515.437 122.061 514.391C122.957 513.325 123.405 511.778 123.405 509.751C123.405 507.703 122.957 506.157 122.061 505.111C121.165 504.045 119.949 503.511 118.413 503.511C116.898 503.511 115.682 504.045 114.765 505.111C113.869 506.157 113.421 507.703 113.421 509.751C113.421 511.778 113.869 513.325 114.765 514.391C115.682 515.437 116.898 515.959 118.413 515.959ZM130.912 517.783V505.591C130.912 504.951 130.891 504.301 130.848 503.639C130.827 502.978 130.784 502.338 130.72 501.719H133.216L133.536 505.623L133.088 505.655C133.302 504.695 133.675 503.906 134.208 503.287C134.742 502.669 135.371 502.21 136.096 501.911C136.822 501.591 137.579 501.431 138.368 501.431C138.688 501.431 138.966 501.442 139.2 501.463C139.456 501.485 139.691 501.538 139.904 501.623L139.872 503.927C139.552 503.821 139.254 503.757 138.976 503.735C138.72 503.693 138.422 503.671 138.08 503.671C137.142 503.671 136.32 503.895 135.616 504.343C134.934 504.791 134.411 505.367 134.048 506.071C133.707 506.775 133.536 507.522 133.536 508.311V517.783H130.912Z" fill="#767676"/>
<path d="M27.163 569.783V547.223H37.051C39.5043 547.223 41.3923 547.746 42.715 548.791C44.0377 549.815 44.699 551.245 44.699 553.079C44.699 554.445 44.2937 555.597 43.483 556.535C42.6723 557.474 41.5523 558.103 40.123 558.423V557.943C41.7657 558.178 43.035 558.775 43.931 559.735C44.8483 560.674 45.307 561.922 45.307 563.479C45.307 565.485 44.6137 567.042 43.227 568.151C41.8403 569.239 39.9097 569.783 37.435 569.783H27.163ZM31.131 566.647H36.955C38.3417 566.647 39.419 566.391 40.187 565.879C40.955 565.346 41.339 564.482 41.339 563.287C41.339 562.071 40.955 561.207 40.187 560.695C39.419 560.162 38.3417 559.895 36.955 559.895H31.131V566.647ZM31.131 556.791H36.347C37.819 556.791 38.907 556.525 39.611 555.991C40.3363 555.437 40.699 554.626 40.699 553.559C40.699 552.493 40.3363 551.693 39.611 551.159C38.907 550.605 37.819 550.327 36.347 550.327H31.131V556.791ZM56.2327 570.103C54.5687 570.103 53.1287 569.762 51.9127 569.079C50.6967 568.397 49.7474 567.426 49.0647 566.167C48.4034 564.909 48.0727 563.415 48.0727 561.687C48.0727 559.959 48.4034 558.477 49.0647 557.239C49.7474 555.981 50.6967 555.01 51.9127 554.327C53.1287 553.645 54.5687 553.303 56.2327 553.303C57.8967 553.303 59.3367 553.645 60.5527 554.327C61.7901 555.01 62.7394 555.981 63.4007 557.239C64.0834 558.477 64.4247 559.959 64.4247 561.687C64.4247 563.415 64.0834 564.909 63.4007 566.167C62.7394 567.426 61.7901 568.397 60.5527 569.079C59.3367 569.762 57.8967 570.103 56.2327 570.103ZM56.2327 567.031C57.4914 567.031 58.4941 566.594 59.2407 565.719C59.9874 564.823 60.3607 563.479 60.3607 561.687C60.3607 559.895 59.9874 558.562 59.2407 557.687C58.4941 556.813 57.4914 556.375 56.2327 556.375C54.9741 556.375 53.9714 556.813 53.2247 557.687C52.4781 558.562 52.1047 559.895 52.1047 561.687C52.1047 563.479 52.4781 564.823 53.2247 565.719C53.9714 566.594 54.9741 567.031 56.2327 567.031ZM67.8742 569.783V546.231H71.8742V569.783H67.8742ZM82.49 570.103C81.082 570.103 79.834 569.773 78.746 569.111C77.6793 568.429 76.8473 567.458 76.25 566.199C75.6527 564.941 75.354 563.437 75.354 561.687C75.354 559.938 75.6527 558.445 76.25 557.207C76.8473 555.949 77.6793 554.989 78.746 554.327C79.834 553.645 81.082 553.303 82.49 553.303C83.834 553.303 85.018 553.634 86.042 554.295C87.0873 554.935 87.7807 555.81 88.122 556.919H87.706V546.231H91.706V569.783H87.77V566.359H88.154C87.8127 567.511 87.1193 568.429 86.074 569.111C85.05 569.773 83.8553 570.103 82.49 570.103ZM83.61 567.031C84.8687 567.031 85.882 566.594 86.65 565.719C87.418 564.823 87.802 563.479 87.802 561.687C87.802 559.895 87.418 558.562 86.65 557.687C85.882 556.813 84.8687 556.375 83.61 556.375C82.3513 556.375 81.3273 556.813 80.538 557.687C79.77 558.562 79.386 559.895 79.386 561.687C79.386 563.479 79.77 564.823 80.538 565.719C81.3273 566.594 82.3513 567.031 83.61 567.031Z" fill="#767676"/>
<rect x="1.16699" y="370.283" width="324.333" height="231" rx="11.5" stroke="black"/>
</svg>
