<svg width="296" height="509" viewBox="0 0 296 509" fill="none" xmlns="http://www.w3.org/2000/svg">
<path d="M266.618 392.276H195.818L182.618 377.076C162.618 389.876 138.218 397.876 108.618 397.876C51.0177 397.876 19.4177 366.276 19.4177 323.076C19.4177 285.876 41.8177 261.076 66.6177 243.076C52.6177 226.276 39.4177 206.676 39.4177 181.476C39.4177 141.076 71.4177 106.676 125.418 106.676C171.018 106.676 203.018 135.476 203.018 177.076C203.018 214.276 176.218 239.076 149.418 256.676L181.818 294.276C187.018 281.876 189.418 267.876 189.418 255.076H252.618C252.618 283.076 242.618 315.076 223.018 341.876L266.618 392.276ZM123.018 162.276C107.818 162.276 102.218 173.476 102.218 183.476C102.218 195.876 108.218 205.876 115.418 215.476C131.418 204.676 139.818 192.676 139.818 181.476C139.818 169.476 133.418 162.276 123.018 162.276ZM116.218 341.076C127.018 341.076 136.218 337.876 143.818 332.276L103.018 285.476C93.0177 294.276 85.8177 303.076 85.8177 315.876C85.8177 331.476 97.0177 341.076 116.218 341.076Z" fill="#DDF29F"/>
<path d="M266.618 392.276V393.276H268.805L267.374 391.622L266.618 392.276ZM195.818 392.276L195.063 392.932L195.362 393.276H195.818V392.276ZM182.618 377.076L183.373 376.42L182.806 375.768L182.079 376.234L182.618 377.076ZM66.6177 243.076L67.205 243.885L68.0704 243.257L67.3859 242.436L66.6177 243.076ZM149.418 256.676L148.869 255.84L147.916 256.465L148.66 257.329L149.418 256.676ZM181.818 294.276L181.06 294.929L182.115 296.153L182.74 294.663L181.818 294.276ZM189.418 255.076V254.076H188.418V255.076H189.418ZM252.618 255.076H253.618V254.076H252.618V255.076ZM223.018 341.876L222.21 341.286L221.741 341.928L222.261 342.53L223.018 341.876ZM115.418 215.476L114.618 216.076L115.189 216.837L115.977 216.305L115.418 215.476ZM143.818 332.276L144.411 333.081L145.285 332.437L144.571 331.619L143.818 332.276ZM103.018 285.476L103.771 284.819L103.111 284.061L102.357 284.725L103.018 285.476ZM266.618 391.276H195.818V393.276H266.618V391.276ZM196.573 391.62L183.373 376.42L181.863 377.732L195.063 392.932L196.573 391.62ZM182.079 376.234C162.239 388.931 138.026 396.876 108.618 396.876V398.876C138.409 398.876 162.996 390.821 183.157 377.918L182.079 376.234ZM108.618 396.876C79.9957 396.876 57.9523 389.026 43.0786 375.925C28.2161 362.835 20.4177 344.419 20.4177 323.076H18.4177C18.4177 344.932 26.4192 363.917 41.7567 377.426C57.083 390.926 79.6397 398.876 108.618 398.876V396.876ZM20.4177 323.076C20.4177 286.348 42.5099 261.809 67.205 243.885L66.0303 242.267C41.1254 260.343 18.4177 285.404 18.4177 323.076H20.4177ZM67.3859 242.436C53.4157 225.672 40.4177 206.306 40.4177 181.476H38.4177C38.4177 207.046 51.8196 226.88 65.8494 243.716L67.3859 242.436ZM40.4177 181.476C40.4177 141.7 71.8955 107.676 125.418 107.676V105.676C70.9398 105.676 38.4177 140.452 38.4177 181.476H40.4177ZM125.418 107.676C148.008 107.676 167.157 114.808 180.647 127.017C194.129 139.22 202.018 156.547 202.018 177.076H204.018C204.018 156.005 195.907 138.132 181.989 125.534C168.078 112.944 148.427 105.676 125.418 105.676V107.676ZM202.018 177.076C202.018 213.732 175.621 238.271 148.869 255.84L149.967 257.512C176.814 239.881 204.018 214.82 204.018 177.076H202.018ZM148.66 257.329L181.06 294.929L182.575 293.623L150.175 256.023L148.66 257.329ZM182.74 294.663C187.998 282.125 190.418 267.991 190.418 255.076H188.418C188.418 267.761 186.038 281.627 180.895 293.889L182.74 294.663ZM189.418 256.076H252.618V254.076H189.418V256.076ZM251.618 255.076C251.618 282.855 241.69 314.65 222.21 341.286L223.825 342.466C243.545 315.502 253.618 283.296 253.618 255.076H251.618ZM222.261 342.53L265.861 392.93L267.374 391.622L223.774 341.222L222.261 342.53ZM123.018 161.276C115.144 161.276 109.649 164.191 106.142 168.494C102.663 172.765 101.218 178.307 101.218 183.476H103.218C103.218 178.645 104.573 173.587 107.693 169.758C110.786 165.961 115.691 163.276 123.018 163.276V161.276ZM101.218 183.476C101.218 196.218 107.392 206.442 114.618 216.076L116.218 214.876C109.043 205.31 103.218 195.533 103.218 183.476H101.218ZM115.977 216.305C132.069 205.443 140.818 193.181 140.818 181.476H138.818C138.818 192.171 130.766 203.909 114.858 214.647L115.977 216.305ZM140.818 181.476C140.818 175.306 139.172 170.247 136.069 166.716C132.952 163.169 128.462 161.276 123.018 161.276V163.276C127.974 163.276 131.883 164.983 134.566 168.036C137.264 171.105 138.818 175.646 138.818 181.476H140.818ZM116.218 342.076C127.228 342.076 136.636 338.809 144.411 333.081L143.224 331.471C135.799 336.942 126.807 340.076 116.218 340.076V342.076ZM144.571 331.619L103.771 284.819L102.264 286.133L143.064 332.933L144.571 331.619ZM102.357 284.725C92.3073 293.569 84.8177 302.624 84.8177 315.876H86.8177C86.8177 303.528 93.728 294.983 103.678 286.227L102.357 284.725ZM84.8177 315.876C84.8177 323.933 87.7208 330.529 93.176 335.093C98.6087 339.638 106.463 342.076 116.218 342.076V340.076C106.773 340.076 99.4266 337.714 94.4593 333.559C89.5146 329.422 86.8177 323.418 86.8177 315.876H84.8177Z" fill="black"/>
<path d="M36.1457 76.148C23.1897 76.148 14.8257 70.08 14.8257 56.632V17.6H29.0117V55.402C29.0117 60.568 31.5537 62.7 36.1457 62.7C40.8197 62.7 43.3617 60.568 43.3617 55.402V17.6H57.4657V56.632C57.4657 70.08 49.1837 76.148 36.1457 76.148Z" fill="black"/>
<path d="M60.3664 75L75.6184 45.48L61.5964 17.6H77.0944L84.9664 34.82L92.8384 17.6H108.336L94.2324 45.48L109.566 75H93.7404L84.9664 56.468L76.1924 75H60.3664Z" fill="black"/>
<path d="M131.358 79.838H121.354L141.116 12.762H151.038L131.358 79.838Z" fill="black"/>
<path d="M189.896 76.148C176.94 76.148 168.576 70.08 168.576 56.632V17.6H182.762V55.402C182.762 60.568 185.304 62.7 189.896 62.7C194.57 62.7 197.112 60.568 197.112 55.402V17.6H211.216V56.632C211.216 70.08 202.934 76.148 189.896 76.148Z" fill="black"/>
<path d="M233.14 17.6V75H218.954V17.6H233.14Z" fill="black"/>
<path d="M27.5077 101.5C39.5527 101.5 43.8977 109.97 43.8977 120.75C43.8977 131.53 39.5527 140 27.5077 140H14.9127V101.5H27.5077ZM27.5077 110.52H24.4277V130.98H27.5077C32.1277 130.98 34.3827 128.175 34.3827 120.75C34.3827 113.325 32.1277 110.52 27.5077 110.52Z" fill="black"/>
<path d="M47.9449 140V101.5H70.6599V109.97H57.4599V116.515H69.3949V124.765H57.4599V131.42H70.9899V140H47.9449Z" fill="black"/>
<path d="M86.7775 140.77C82.3225 140.77 78.7475 140.055 74.9525 138.295V128.67C77.9775 130.54 82.1025 131.75 85.7875 131.75C88.8125 131.75 90.6825 130.815 90.6825 128.78C90.6825 123.61 73.9075 125.59 73.9075 112.555C73.9075 104.25 80.1225 100.73 87.4375 100.73C91.7825 100.73 94.8075 101.665 98.1075 103.425V112.665C94.9175 110.795 91.6725 109.53 88.0975 109.53C85.2375 109.53 83.5875 110.465 83.5875 112.39C83.5875 117.395 100.582 115.745 100.582 128.945C100.582 137.525 93.8175 140.77 86.7775 140.77Z" fill="black"/>
<path d="M113.749 101.5V140H104.234V101.5H113.749Z" fill="black"/>
<path d="M134.951 140.77C125.876 140.77 117.736 135.215 117.736 121.08C117.736 108.32 125.546 100.73 136.161 100.73C138.911 100.73 141.716 101.225 144.466 102.27V111.29C142.266 110.41 139.956 109.97 137.316 109.97C131.541 109.97 127.636 113.82 127.636 121.245C127.636 127.625 129.946 130.54 132.916 131.31C134.016 131.585 134.951 131.585 136.106 131.31V119.045H145.346V138.295C142.376 140 139.241 140.77 134.951 140.77Z" fill="black"/>
<path d="M149.942 140V101.5H158.577L169.962 123.28C169.412 120.035 169.082 116.735 169.082 113.215V101.5H178.542V140H169.962L158.522 118.22C159.127 121.465 159.457 124.71 159.457 128.285V140H149.942Z" fill="black"/>
<path d="M183.995 140V101.5H206.71V109.97H193.51V116.515H205.445V124.765H193.51V131.42H207.04V140H183.995Z" fill="black"/>
<path d="M211.387 140V101.5H225.687C233.112 101.5 239.272 105.735 239.272 114.48C239.272 119.98 237.072 123.83 233.332 125.81L240.537 140H230.252L224.147 127.46H220.902V140H211.387ZM220.902 118.99H225.302C227.997 118.99 229.757 117.45 229.757 114.645C229.757 111.84 227.997 110.3 225.302 110.3H220.902V118.99Z" fill="black"/>
<path d="M94.2181 412.046C84.8681 412.046 76.8381 405.776 76.8381 392.301C76.8931 379.156 84.5381 372.006 94.2731 372.006C96.8031 372.006 99.2231 372.556 101.588 373.491V382.676C100.048 381.851 98.1231 381.411 95.6481 381.411C90.4231 381.411 86.7381 385.096 86.7381 392.301C86.7381 399.231 90.0931 402.696 95.3731 402.696C97.5731 402.696 99.8281 402.146 101.863 401.266V410.671C99.5531 411.551 97.0781 412.046 94.2181 412.046Z" fill="black"/>
<path d="M105.929 411.276V372.776H120.229C127.654 372.776 133.814 377.011 133.814 385.756C133.814 391.256 131.614 395.106 127.874 397.086L135.079 411.276H124.794L118.689 398.736H115.444V411.276H105.929ZM115.444 390.266H119.844C122.539 390.266 124.299 388.726 124.299 385.921C124.299 383.116 122.539 381.576 119.844 381.576H115.444V390.266Z" fill="black"/>
<path d="M138.21 411.276V372.776H160.925V381.246H147.725V387.791H159.66V396.041H147.725V402.696H161.255V411.276H138.21Z" fill="black"/>
<path d="M162.687 411.276L174.897 372.776H184.467L196.677 411.276H186.777L185.182 405.501H174.237L172.642 411.276H162.687ZM176.162 397.691H183.202L181.387 391.091C180.727 388.561 180.122 385.866 179.682 382.786C179.242 385.866 178.692 388.561 178.032 391.091L176.162 397.691Z" fill="black"/>
<path d="M202.229 411.276V381.796H193.429V372.776H220.489V381.796H211.689V411.276H202.229Z" fill="black"/>
<path d="M233.286 372.776V411.276H223.771V372.776H233.286Z" fill="black"/>
<path d="M247.228 411.276L236.008 372.776H246.128L251.023 392.961C251.573 395.436 252.013 398.076 252.453 401.211C252.838 398.076 253.278 395.436 253.828 392.961L258.723 372.776H268.843L257.623 411.276H247.228Z" fill="black"/>
<path d="M271.52 411.276V372.776H294.235V381.246H281.035V387.791H292.97V396.041H281.035V402.696H294.565V411.276H271.52Z" fill="black"/>
<path d="M41.2342 438.776C53.2792 438.776 57.6242 447.246 57.6242 458.026C57.6242 468.806 53.2792 477.276 41.2342 477.276H28.6392V438.776H41.2342ZM41.2342 447.796H38.1542V468.256H41.2342C45.8542 468.256 48.1092 465.451 48.1092 458.026C48.1092 450.601 45.8542 447.796 41.2342 447.796Z" fill="black"/>
<path d="M61.6714 477.276V438.776H84.3864V447.246H71.1864V453.791H83.1214V462.041H71.1864V468.696H84.7164V477.276H61.6714Z" fill="black"/>
<path d="M97.589 477.276L86.369 438.776H96.489L101.384 458.961C101.934 461.436 102.374 464.076 102.814 467.211C103.199 464.076 103.639 461.436 104.189 458.961L109.084 438.776H119.204L107.984 477.276H97.589Z" fill="black"/>
<path d="M121.881 477.276V438.776H144.596V447.246H131.396V453.791H143.331V462.041H131.396V468.696H144.926V477.276H121.881Z" fill="black"/>
<path d="M158.789 438.776V468.256H171.934V477.276H149.274V438.776H158.789Z" fill="black"/>
<path d="M188.441 478.046C177.551 478.046 172.876 469.906 172.876 458.026C172.876 446.091 177.551 438.006 188.441 438.006C199.331 438.006 204.006 446.091 204.006 458.026C204.006 469.906 199.331 478.046 188.441 478.046ZM188.441 468.641C192.401 468.641 194.161 465.176 194.161 458.026C194.161 450.876 192.401 447.411 188.441 447.411C184.536 447.411 182.776 450.876 182.776 458.026C182.776 465.176 184.536 468.641 188.441 468.641Z" fill="black"/>
<path d="M222.331 438.776C229.756 438.776 235.586 442.956 235.586 452.141C235.586 461.326 229.756 465.506 222.331 465.506H217.656V477.276H208.141V438.776H222.331ZM221.506 447.411H217.656V456.871H221.506C224.421 456.871 226.071 455.111 226.071 452.141C226.071 449.116 224.476 447.411 221.506 447.411Z" fill="black"/>
<path d="M239.24 477.276V438.776H261.955V447.246H248.755V453.791H260.69V462.041H248.755V468.696H262.285V477.276H239.24Z" fill="black"/>
<path d="M266.632 477.276V438.776H280.932C288.357 438.776 294.517 443.011 294.517 451.756C294.517 457.256 292.317 461.106 288.577 463.086L295.782 477.276H285.497L279.392 464.736H276.147V477.276H266.632ZM276.147 456.266H280.547C283.242 456.266 285.002 454.726 285.002 451.921C285.002 449.116 283.242 447.576 280.547 447.576H276.147V456.266Z" fill="black"/>
<line x1="19.7177" y1="254.276" x2="19.7177" y2="396.276" stroke="black" stroke-dasharray="7 7"/>
<circle cx="19.2177" cy="325.276" r="5.5" fill="white" stroke="black"/>
<circle cx="19.7177" cy="254.776" r="4.5" fill="black"/>
<circle cx="19.7177" cy="395.776" r="4.5" fill="black"/>
<rect x="2.71765" y="86.7759" width="250" height="65" stroke="black"/>
<rect x="0.717651" y="84.7759" width="4" height="4" fill="white" stroke="black"/>
<rect x="0.717651" y="149.776" width="4" height="4" fill="white" stroke="black"/>
<rect x="250.718" y="84.7759" width="4" height="4" fill="white" stroke="black"/>
<rect x="250.718" y="149.776" width="4" height="4" fill="white" stroke="black"/>
<path d="M295.176 180.868L283.786 192.234L280.555 188.957L291.899 177.613L295.176 180.868ZM257.868 153.276L272.695 168.172C273.405 167.943 274.299 168.103 274.895 168.699C275.789 169.593 275.789 171.059 274.895 171.953C273.978 172.847 272.534 172.847 271.641 171.953C271.045 171.357 270.884 170.463 271.114 169.753L256.218 154.926L264.353 179.24L278.928 187.33L290.272 176.009L282.182 161.411L257.868 153.276Z" fill="black"/>
</svg>
