<svg width="296" height="466" viewBox="0 0 296 466" fill="none" xmlns="http://www.w3.org/2000/svg">
<path d="M266.618 380.29H267.711L266.996 379.463L223.656 329.363C243.161 302.547 253.118 270.588 253.118 242.59V242.09H252.618H189.418H188.918V242.59C188.918 255.075 186.623 268.704 181.666 280.848L150.168 244.294C176.834 226.697 203.518 201.84 203.518 164.59C203.518 143.654 195.462 125.918 181.653 113.419C167.848 100.924 148.323 93.6897 125.418 93.6897C71.1787 93.6897 38.9176 128.278 38.9176 168.99C38.9176 194.169 52.0034 213.771 65.8921 230.499C41.2108 248.513 18.9176 273.37 18.9176 310.59C18.9176 332.318 26.8684 351.16 42.0872 364.565C57.3003 377.965 79.7286 385.89 108.618 385.89C138.134 385.89 162.511 377.959 182.523 365.243L195.44 380.118L195.59 380.29H195.818H266.618ZM102.718 170.99C102.718 166.074 104.095 160.895 107.305 156.956C110.502 153.032 115.554 150.29 123.018 150.29C128.096 150.29 132.15 152.043 134.942 155.22C137.741 158.404 139.318 163.075 139.318 168.99C139.318 179.847 131.227 191.61 115.532 202.308C108.474 192.844 102.718 183.056 102.718 170.99ZM102.971 273.698L143.082 319.707C135.655 325.045 126.705 328.09 116.218 328.09C106.695 328.09 99.2221 325.709 94.1385 321.456C89.0661 317.213 86.3176 311.061 86.3176 303.39C86.3176 290.975 93.1958 282.363 102.971 273.698Z" fill="#DDF29F" stroke="black"/>
<path d="M36.1457 63.6619C23.1897 63.6619 14.8257 57.5939 14.8257 44.1459V5.11386H29.0117V42.9159C29.0117 48.0819 31.5537 50.2139 36.1457 50.2139C40.8197 50.2139 43.3617 48.0819 43.3617 42.9159V5.11386H57.4657V44.1459C57.4657 57.5939 49.1837 63.6619 36.1457 63.6619Z" fill="black"/>
<path d="M60.3664 62.5139L75.6184 32.9939L61.5964 5.11386H77.0944L84.9664 22.3339L92.8384 5.11386H108.336L94.2324 32.9939L109.566 62.5139H93.7404L84.9664 43.9819L76.1924 62.5139H60.3664Z" fill="black"/>
<path d="M131.358 67.3519H121.354L141.116 0.275864H151.038L131.358 67.3519Z" fill="black"/>
<path d="M189.896 63.6619C176.94 63.6619 168.576 57.5939 168.576 44.1459V5.11386H182.762V42.9159C182.762 48.0819 185.304 50.2139 189.896 50.2139C194.57 50.2139 197.112 48.0819 197.112 42.9159V5.11386H211.216V44.1459C211.216 57.5939 202.934 63.6619 189.896 63.6619Z" fill="black"/>
<path d="M233.14 5.11386V62.5139H218.954V5.11386H233.14Z" fill="black"/>
<path d="M27.5077 89.0139C39.5527 89.0139 43.8977 97.4839 43.8977 108.264C43.8977 119.044 39.5527 127.514 27.5077 127.514H14.9127V89.0139H27.5077ZM27.5077 98.0339H24.4277V118.494H27.5077C32.1277 118.494 34.3827 115.689 34.3827 108.264C34.3827 100.839 32.1277 98.0339 27.5077 98.0339Z" fill="black"/>
<path d="M47.9449 127.514V89.0139H70.6599V97.4839H57.4599V104.029H69.3949V112.279H57.4599V118.934H70.9899V127.514H47.9449Z" fill="black"/>
<path d="M86.7775 128.284C82.3225 128.284 78.7475 127.569 74.9525 125.809V116.184C77.9775 118.054 82.1025 119.264 85.7875 119.264C88.8125 119.264 90.6825 118.329 90.6825 116.294C90.6825 111.124 73.9075 113.104 73.9075 100.069C73.9075 91.7639 80.1225 88.2439 87.4375 88.2439C91.7825 88.2439 94.8075 89.1789 98.1075 90.9389V100.179C94.9175 98.3089 91.6725 97.0439 88.0975 97.0439C85.2375 97.0439 83.5875 97.9789 83.5875 99.9039C83.5875 104.909 100.582 103.259 100.582 116.459C100.582 125.039 93.8175 128.284 86.7775 128.284Z" fill="black"/>
<path d="M113.749 89.0139V127.514H104.234V89.0139H113.749Z" fill="black"/>
<path d="M134.951 128.284C125.876 128.284 117.736 122.729 117.736 108.594C117.736 95.8339 125.546 88.2439 136.161 88.2439C138.911 88.2439 141.716 88.7389 144.466 89.7839V98.8039C142.266 97.9239 139.956 97.4839 137.316 97.4839C131.541 97.4839 127.636 101.334 127.636 108.759C127.636 115.139 129.946 118.054 132.916 118.824C134.016 119.099 134.951 119.099 136.106 118.824V106.559H145.346V125.809C142.376 127.514 139.241 128.284 134.951 128.284Z" fill="black"/>
<path d="M149.942 127.514V89.0139H158.577L169.962 110.794C169.412 107.549 169.082 104.249 169.082 100.729V89.0139H178.542V127.514H169.962L158.522 105.734C159.127 108.979 159.457 112.224 159.457 115.799V127.514H149.942Z" fill="black"/>
<path d="M183.995 127.514V89.0139H206.71V97.4839H193.51V104.029H205.445V112.279H193.51V118.934H207.04V127.514H183.995Z" fill="black"/>
<path d="M211.387 127.514V89.0139H225.687C233.112 89.0139 239.272 93.2489 239.272 101.994C239.272 107.494 237.072 111.344 233.332 113.324L240.537 127.514H230.252L224.147 114.974H220.902V127.514H211.387ZM220.902 106.504H225.302C227.997 106.504 229.757 104.964 229.757 102.159C229.757 99.3539 227.997 97.8139 225.302 97.8139H220.902V106.504Z" fill="black"/>
<path d="M94.2181 399.56C84.8681 399.56 76.8381 393.29 76.8381 379.815C76.8931 366.67 84.5381 359.52 94.2731 359.52C96.8031 359.52 99.2231 360.07 101.588 361.005V370.19C100.048 369.365 98.1231 368.925 95.6481 368.925C90.4231 368.925 86.7381 372.61 86.7381 379.815C86.7381 386.745 90.0931 390.21 95.3731 390.21C97.5731 390.21 99.8281 389.66 101.863 388.78V398.185C99.5531 399.065 97.0781 399.56 94.2181 399.56Z" fill="black"/>
<path d="M105.929 398.79V360.29H120.229C127.654 360.29 133.814 364.525 133.814 373.27C133.814 378.77 131.614 382.62 127.874 384.6L135.079 398.79H124.794L118.689 386.25H115.444V398.79H105.929ZM115.444 377.78H119.844C122.539 377.78 124.299 376.24 124.299 373.435C124.299 370.63 122.539 369.09 119.844 369.09H115.444V377.78Z" fill="black"/>
<path d="M138.21 398.79V360.29H160.925V368.76H147.725V375.305H159.66V383.555H147.725V390.21H161.255V398.79H138.21Z" fill="black"/>
<path d="M162.687 398.79L174.897 360.29H184.467L196.677 398.79H186.777L185.182 393.015H174.237L172.642 398.79H162.687ZM176.162 385.205H183.202L181.387 378.605C180.727 376.075 180.122 373.38 179.682 370.3C179.242 373.38 178.692 376.075 178.032 378.605L176.162 385.205Z" fill="black"/>
<path d="M202.229 398.79V369.31H193.429V360.29H220.489V369.31H211.689V398.79H202.229Z" fill="black"/>
<path d="M233.286 360.29V398.79H223.771V360.29H233.286Z" fill="black"/>
<path d="M247.228 398.79L236.008 360.29H246.128L251.023 380.475C251.573 382.95 252.013 385.59 252.453 388.725C252.838 385.59 253.278 382.95 253.828 380.475L258.723 360.29H268.843L257.623 398.79H247.228Z" fill="black"/>
<path d="M271.52 398.79V360.29H294.235V368.76H281.035V375.305H292.97V383.555H281.035V390.21H294.565V398.79H271.52Z" fill="black"/>
<path d="M41.2342 426.29C53.2792 426.29 57.6242 434.76 57.6242 445.54C57.6242 456.32 53.2792 464.79 41.2342 464.79H28.6392V426.29H41.2342ZM41.2342 435.31H38.1542V455.77H41.2342C45.8542 455.77 48.1092 452.965 48.1092 445.54C48.1092 438.115 45.8542 435.31 41.2342 435.31Z" fill="black"/>
<path d="M61.6714 464.79V426.29H84.3864V434.76H71.1864V441.305H83.1214V449.555H71.1864V456.21H84.7164V464.79H61.6714Z" fill="black"/>
<path d="M97.589 464.79L86.369 426.29H96.489L101.384 446.475C101.934 448.95 102.374 451.59 102.814 454.725C103.199 451.59 103.639 448.95 104.189 446.475L109.084 426.29H119.204L107.984 464.79H97.589Z" fill="black"/>
<path d="M121.881 464.79V426.29H144.596V434.76H131.396V441.305H143.331V449.555H131.396V456.21H144.926V464.79H121.881Z" fill="black"/>
<path d="M158.789 426.29V455.77H171.934V464.79H149.274V426.29H158.789Z" fill="black"/>
<path d="M188.441 465.56C177.551 465.56 172.876 457.42 172.876 445.54C172.876 433.605 177.551 425.52 188.441 425.52C199.331 425.52 204.006 433.605 204.006 445.54C204.006 457.42 199.331 465.56 188.441 465.56ZM188.441 456.155C192.401 456.155 194.161 452.69 194.161 445.54C194.161 438.39 192.401 434.925 188.441 434.925C184.536 434.925 182.776 438.39 182.776 445.54C182.776 452.69 184.536 456.155 188.441 456.155Z" fill="black"/>
<path d="M222.331 426.29C229.756 426.29 235.586 430.47 235.586 439.655C235.586 448.84 229.756 453.02 222.331 453.02H217.656V464.79H208.141V426.29H222.331ZM221.506 434.925H217.656V444.385H221.506C224.421 444.385 226.071 442.625 226.071 439.655C226.071 436.63 224.476 434.925 221.506 434.925Z" fill="black"/>
<path d="M239.24 464.79V426.29H261.955V434.76H248.755V441.305H260.69V449.555H248.755V456.21H262.285V464.79H239.24Z" fill="black"/>
<path d="M266.632 464.79V426.29H280.932C288.357 426.29 294.517 430.525 294.517 439.27C294.517 444.77 292.317 448.62 288.577 450.6L295.782 464.79H285.497L279.392 452.25H276.147V464.79H266.632ZM276.147 443.78H280.547C283.242 443.78 285.002 442.24 285.002 439.435C285.002 436.63 283.242 435.09 280.547 435.09H276.147V443.78Z" fill="black"/>
<line x1="19.7177" y1="241.79" x2="19.7177" y2="383.79" stroke="black" stroke-dasharray="7 7"/>
<circle cx="19.2177" cy="312.79" r="5.5" fill="white" stroke="black"/>
<circle cx="19.7177" cy="242.29" r="4.5" fill="black"/>
<circle cx="19.7177" cy="383.29" r="4.5" fill="black"/>
<rect x="2.71765" y="74.2897" width="250" height="65" stroke="black"/>
<rect x="0.717651" y="72.2897" width="4" height="4" fill="white" stroke="black"/>
<rect x="0.717651" y="137.29" width="4" height="4" fill="white" stroke="black"/>
<rect x="250.718" y="72.2897" width="4" height="4" fill="white" stroke="black"/>
<rect x="250.718" y="137.29" width="4" height="4" fill="white" stroke="black"/>
<path d="M295.176 168.381L283.786 179.748L280.555 176.471L291.899 165.127L295.176 168.381ZM257.868 140.79L272.695 155.686C273.405 155.456 274.299 155.617 274.895 156.213C275.789 157.106 275.789 158.573 274.895 159.467C273.978 160.361 272.534 160.361 271.641 159.467C271.045 158.871 270.884 157.977 271.114 157.267L256.218 142.44L264.353 166.754L278.928 174.844L290.272 163.523L282.182 148.925L257.868 140.79Z" fill="black"/>
</svg>
