<svg width="25" height="25" viewBox="0 0 25 25" fill="none" xmlns="http://www.w3.org/2000/svg">
<path d="M7.57861 16.4062C8.12861 16.4062 8.57861 16.8562 8.57861 17.4062C8.57861 18.5063 7.67861 19.4062 6.57861 19.4062C6.40861 19.4062 6.24861 19.4063 6.07861 19.3563C6.38861 18.8063 6.57861 18.1463 6.57861 17.4062C6.57861 16.8562 7.02861 16.4062 7.57861 16.4062ZM19.2486 3.40625C18.9886 3.40625 18.7386 3.50625 18.5386 3.69625L9.57861 12.6562L12.3286 15.4062L21.2886 6.44625C21.6786 6.05625 21.6786 5.40625 21.2886 5.03625L19.9486 3.69625C19.7486 3.49625 19.4986 3.40625 19.2486 3.40625ZM7.57861 14.4062C5.91861 14.4062 4.57861 15.7463 4.57861 17.4062C4.57861 18.7162 3.41861 19.4062 2.57861 19.4062C3.49861 20.6263 5.07861 21.4062 6.57861 21.4062C8.78861 21.4062 10.5786 19.6163 10.5786 17.4062C10.5786 15.7463 9.23861 14.4062 7.57861 14.4062Z" fill="black"/>
</svg>
