<svg width="36" height="37" viewBox="0 0 36 37" fill="none" xmlns="http://www.w3.org/2000/svg">
<path d="M33 18.0591V30.0591C33 30.8547 32.6839 31.6178 32.1213 32.1804C31.5587 32.743 30.7957 33.0591 30 33.0591H6C5.20435 33.0591 4.44129 32.743 3.87868 32.1804C3.31607 31.6178 3 30.8547 3 30.0591V18.0591C2.60218 18.0591 2.22064 17.901 1.93934 17.6197C1.65804 17.3384 1.5 16.9569 1.5 16.5591V12.0591C1.5 11.2634 1.81607 10.5004 2.37868 9.93776C2.94129 9.37515 3.70435 9.05908 4.5 9.05908H9.255C9.09 8.59408 9 8.08408 9 7.55908C9 6.36561 9.47411 5.22102 10.318 4.3771C11.1619 3.53319 12.3065 3.05908 13.5 3.05908C15 3.05908 16.32 3.80908 17.145 4.91908V4.90408L18 6.05908L18.855 4.90408V4.91908C19.68 3.80908 21 3.05908 22.5 3.05908C23.6935 3.05908 24.8381 3.53319 25.682 4.3771C26.5259 5.22102 27 6.36561 27 7.55908C27 8.08408 26.91 8.59408 26.745 9.05908H31.5C32.2957 9.05908 33.0587 9.37515 33.6213 9.93776C34.1839 10.5004 34.5 11.2634 34.5 12.0591V16.5591C34.5 16.9569 34.342 17.3384 34.0607 17.6197C33.7794 17.901 33.3978 18.0591 33 18.0591ZM6 30.0591H16.5V18.0591H6V30.0591ZM30 30.0591V18.0591H19.5V30.0591H30ZM13.5 6.05908C13.1022 6.05908 12.7206 6.21712 12.4393 6.49842C12.158 6.77973 12 7.16126 12 7.55908C12 7.95691 12.158 8.33844 12.4393 8.61974C12.7206 8.90105 13.1022 9.05908 13.5 9.05908C13.8978 9.05908 14.2794 8.90105 14.5607 8.61974C14.842 8.33844 15 7.95691 15 7.55908C15 7.16126 14.842 6.77973 14.5607 6.49842C14.2794 6.21712 13.8978 6.05908 13.5 6.05908ZM22.5 6.05908C22.1022 6.05908 21.7206 6.21712 21.4393 6.49842C21.158 6.77973 21 7.16126 21 7.55908C21 7.95691 21.158 8.33844 21.4393 8.61974C21.7206 8.90105 22.1022 9.05908 22.5 9.05908C22.8978 9.05908 23.2794 8.90105 23.5607 8.61974C23.842 8.33844 24 7.95691 24 7.55908C24 7.16126 23.842 6.77973 23.5607 6.49842C23.2794 6.21712 22.8978 6.05908 22.5 6.05908ZM4.5 12.0591V15.0591H16.5V12.0591H4.5ZM19.5 12.0591V15.0591H31.5V12.0591H19.5Z" fill="black"/>
</svg>
